BosaLisuMaster-BlackItalic.ufo
<glyph name="ampersand" format="2">
  <advance width="468"/>
  <unicode hex="0026"/>
  <outline>
    <contour>
      <point x="209" y="271" type="line"/>
      <point x="136" y="293"/>
      <point x="108" y="327"/>
      <point x="108" y="378" type="curve" smooth="yes"/>
      <point x="108" y="446"/>
      <point x="170" y="538"/>
      <point x="287" y="538" type="curve" smooth="yes"/>
      <point x="326" y="538"/>
      <point x="359" y="522"/>
      <point x="384" y="504" type="curve" smooth="yes"/>
      <point x="406" y="488"/>
      <point x="420" y="468"/>
      <point x="420" y="451" type="curve" smooth="yes"/>
      <point x="420" y="438"/>
      <point x="384" y="422"/>
      <point x="370" y="422" type="curve" smooth="yes"/>
      <point x="362" y="422"/>
      <point x="357" y="427"/>
      <point x="351" y="434" type="curve" smooth="yes"/>
      <point x="333" y="455"/>
      <point x="311" y="469"/>
      <point x="278" y="469" type="curve" smooth="yes"/>
      <point x="220" y="469"/>
      <point x="182" y="424"/>
      <point x="182" y="383" type="curve" smooth="yes"/>
      <point x="182" y="360"/>
      <point x="190" y="330"/>
      <point x="231" y="319" type="curve"/>
    </contour>
    <contour>
      <point x="408" y="156" type="curve" smooth="yes"/>
      <point x="400" y="133"/>
      <point x="387" y="131"/>
      <point x="369" y="131" type="curve" smooth="yes"/>
      <point x="339" y="131"/>
      <point x="332" y="133"/>
      <point x="315" y="133" type="curve" smooth="yes"/>
      <point x="283" y="133"/>
      <point x="265" y="130"/>
      <point x="239" y="130" type="curve" smooth="yes"/>
      <point x="224" y="130"/>
      <point x="215" y="132"/>
      <point x="209" y="138" type="curve" smooth="yes"/>
      <point x="206" y="141"/>
      <point x="205" y="146"/>
      <point x="205" y="150" type="curve" smooth="yes"/>
      <point x="205" y="156"/>
      <point x="208" y="164"/>
      <point x="210" y="168" type="curve" smooth="yes"/>
      <point x="219" y="185"/>
      <point x="222" y="193"/>
      <point x="229" y="196" type="curve" smooth="yes"/>
      <point x="236" y="199"/>
      <point x="254" y="199"/>
      <point x="258" y="199" type="curve" smooth="yes"/>
      <point x="275" y="199"/>
      <point x="284" y="198"/>
      <point x="309" y="198" type="curve" smooth="yes"/>
      <point x="342" y="198"/>
      <point x="356" y="199"/>
      <point x="382" y="199" type="curve" smooth="yes"/>
      <point x="385" y="199"/>
      <point x="394" y="198"/>
      <point x="401" y="197" type="curve" smooth="yes"/>
      <point x="406" y="196"/>
      <point x="412" y="190"/>
      <point x="412" y="178" type="curve" smooth="yes"/>
      <point x="412" y="172"/>
      <point x="411" y="165"/>
    </contour>
    <contour>
      <point x="107" y="293" type="curve" smooth="yes"/>
      <point x="146" y="311"/>
      <point x="183" y="320"/>
      <point x="217" y="320" type="curve" smooth="yes"/>
      <point x="222" y="320"/>
      <point x="234" y="319"/>
      <point x="237" y="318" type="curve" smooth="yes"/>
      <point x="242" y="316"/>
      <point x="248" y="309"/>
      <point x="248" y="297" type="curve" smooth="yes"/>
      <point x="248" y="291"/>
      <point x="247" y="284"/>
      <point x="243" y="275" type="curve" smooth="yes"/>
      <point x="234" y="254"/>
      <point x="223" y="250"/>
      <point x="205" y="250" type="curve" smooth="yes"/>
      <point x="178" y="250"/>
      <point x="153" y="245"/>
      <point x="133" y="234" type="curve" smooth="yes"/>
      <point x="100" y="216"/>
      <point x="90" y="175"/>
      <point x="90" y="143" type="curve" smooth="yes"/>
      <point x="90" y="100"/>
      <point x="123" y="59"/>
      <point x="180" y="59" type="curve" smooth="yes"/>
      <point x="219" y="59"/>
      <point x="259" y="74"/>
      <point x="284" y="111" type="curve" smooth="yes"/>
      <point x="294" y="126"/>
      <point x="295" y="144"/>
      <point x="298" y="151" type="curve" smooth="yes"/>
      <point x="303" y="162"/>
      <point x="309" y="166"/>
      <point x="321" y="166" type="curve" smooth="yes"/>
      <point x="344" y="166"/>
      <point x="368" y="159"/>
      <point x="368" y="136" type="curve" smooth="yes"/>
      <point x="368" y="130"/>
      <point x="366" y="123"/>
      <point x="362" y="112" type="curve" smooth="yes"/>
      <point x="337" y="43"/>
      <point x="265" y="-10"/>
      <point x="172" y="-10" type="curve" smooth="yes"/>
      <point x="72" y="-10"/>
      <point x="19" y="53"/>
      <point x="19" y="132" type="curve" smooth="yes"/>
      <point x="19" y="200"/>
      <point x="55" y="269"/>
    </contour>
  </outline>
</glyph>
<glyph name="hyphen" format="2">
  <advance width="375"/>
  <unicode hex="002D"/>
  <outline>
    <contour>
      <point x="44" y="267" type="curve" smooth="yes"/>
      <point x="41" y="258"/>
      <point x="40" y="251"/>
      <point x="40" y="246" type="curve" smooth="yes"/>
      <point x="40" y="233"/>
      <point x="46" y="228"/>
      <point x="51" y="226" type="curve" smooth="yes"/>
      <point x="58" y="223"/>
      <point x="66" y="223"/>
      <point x="70" y="223" type="curve" smooth="yes"/>
      <point x="110" y="223"/>
      <point x="135" y="226"/>
      <point x="217" y="226" type="curve" smooth="yes"/>
      <point x="251" y="226"/>
      <point x="281" y="224"/>
      <point x="318" y="224" type="curve" smooth="yes"/>
      <point x="326" y="224"/>
      <point x="340" y="225"/>
      <point x="346" y="228" type="curve" smooth="yes"/>
      <point x="352" y="231"/>
      <point x="359" y="237"/>
      <point x="365" y="255" type="curve" smooth="yes"/>
      <point x="367" y="262"/>
      <point x="369" y="269"/>
      <point x="369" y="275" type="curve" smooth="yes"/>
      <point x="369" y="291"/>
      <point x="362" y="297"/>
      <point x="340" y="297" type="curve" smooth="yes"/>
      <point x="309" y="297"/>
      <point x="263" y="295"/>
      <point x="202" y="295" type="curve" smooth="yes"/>
      <point x="143" y="295"/>
      <point x="108" y="297"/>
      <point x="82" y="297" type="curve" smooth="yes"/>
      <point x="64" y="297"/>
      <point x="54" y="294"/>
    </contour>
  </outline>
</glyph>
<glyph name="two" format="2">
  <advance width="474"/>
  <unicode hex="0032"/>
  <outline>
    <contour>
      <point x="379" y="18" type="curve" smooth="yes"/>
      <point x="379" y="5"/>
      <point x="368" y="-4"/>
      <point x="324" y="-4" type="curve" smooth="yes"/>
      <point x="268" y="-4"/>
      <point x="200" y="-2"/>
      <point x="144" y="-2" type="curve" smooth="yes"/>
      <point x="111" y="-2"/>
      <point x="74" y="-4"/>
      <point x="51" y="-4" type="curve" smooth="yes"/>
      <point x="35" y="-4"/>
      <point x="22" y="6"/>
      <point x="17" y="16" type="curve" smooth="yes"/>
      <point x="14" y="22"/>
      <point x="12" y="30"/>
      <point x="12" y="38" type="curve" smooth="yes"/>
      <point x="12" y="51"/>
      <point x="16" y="60"/>
      <point x="35" y="81" type="curve" smooth="yes"/>
      <point x="61" y="109"/>
      <point x="150" y="179"/>
      <point x="242" y="251" type="curve" smooth="yes"/>
      <point x="310" y="304"/>
      <point x="357" y="359"/>
      <point x="357" y="398" type="curve" smooth="yes"/>
      <point x="357" y="440"/>
      <point x="323" y="466"/>
      <point x="272" y="466" type="curve" smooth="yes"/>
      <point x="238" y="466"/>
      <point x="206" y="449"/>
      <point x="184" y="426" type="curve" smooth="yes"/>
      <point x="166" y="408"/>
      <point x="155" y="383"/>
      <point x="142" y="383" type="curve" smooth="yes"/>
      <point x="124" y="383"/>
      <point x="91" y="398"/>
      <point x="91" y="417" type="curve" smooth="yes"/>
      <point x="91" y="427"/>
      <point x="113" y="461"/>
      <point x="139" y="485" type="curve" smooth="yes"/>
      <point x="166" y="510"/>
      <point x="216" y="538"/>
      <point x="281" y="538" type="curve" smooth="yes"/>
      <point x="371" y="538"/>
      <point x="432" y="475"/>
      <point x="432" y="411" type="curve" smooth="yes"/>
      <point x="432" y="344"/>
      <point x="385" y="277"/>
      <point x="295" y="204" type="curve" smooth="yes"/>
      <point x="247" y="165"/>
      <point x="158" y="97"/>
      <point x="123" y="68" type="curve"/>
      <point x="137" y="69"/>
      <point x="151" y="69"/>
      <point x="165" y="69" type="curve" smooth="yes"/>
      <point x="232" y="69"/>
      <point x="280" y="67"/>
      <point x="327" y="67" type="curve" smooth="yes"/>
      <point x="353" y="67"/>
      <point x="365" y="56"/>
      <point x="373" y="42" type="curve" smooth="yes"/>
      <point x="377" y="35"/>
      <point x="379" y="26"/>
    </contour>
  </outline>
</glyph>
<glyph name="six" format="2">
  <advance width="474"/>
  <unicode hex="0036"/>
  <outline>
    <contour>
      <point x="413" y="164" type="qcurve"/>
      <point x="413" y="88"/>
      <point x="323" y="-9"/>
      <point x="248" y="-9" type="qcurve"/>
      <point x="150" y="-9"/>
      <point x="103" y="69" type="qcurve"/>
      <point x="65" y="132"/>
      <point x="65" y="237" type="qcurve"/>
      <point x="65" y="354"/>
      <point x="101" y="433" type="qcurve"/>
      <point x="150" y="540"/>
      <point x="253" y="540" type="qcurve"/>
      <point x="309" y="540"/>
      <point x="390" y="478"/>
      <point x="405" y="424" type="qcurve"/>
      <point x="329" y="403" type="line"/>
      <point x="322" y="430"/>
      <point x="280" y="465"/>
      <point x="253" y="465" type="qcurve"/>
      <point x="202" y="465"/>
      <point x="172" y="402" type="qcurve"/>
      <point x="149" y="354"/>
      <point x="145" y="294" type="qcurve"/>
      <point x="191" y="338"/>
      <point x="250" y="338" type="qcurve"/>
      <point x="323" y="338"/>
      <point x="413" y="238"/>
    </contour>
    <contour>
      <point x="335" y="166" type="qcurve"/>
      <point x="335" y="206"/>
      <point x="284" y="264"/>
      <point x="245" y="264" type="qcurve"/>
      <point x="205" y="264"/>
      <point x="153" y="205"/>
      <point x="153" y="164" type="qcurve"/>
      <point x="153" y="124"/>
      <point x="204" y="64"/>
      <point x="243" y="64" type="qcurve"/>
      <point x="284" y="64"/>
      <point x="335" y="124"/>
    </contour>
  </outline>
</glyph>
<glyph name="semicolon" format="2">
  <advance width="292"/>
  <unicode hex="003B"/>
  <outline>
    <contour>
      <point x="184" y="305" type="curve" smooth="yes"/>
      <point x="226" y="305"/>
      <point x="264" y="339"/>
      <point x="264" y="384" type="curve" smooth="yes"/>
      <point x="264" y="420"/>
      <point x="236" y="449"/>
      <point x="196" y="449" type="curve" smooth="yes"/>
      <point x="153" y="449"/>
      <point x="115" y="415"/>
      <point x="115" y="370" type="curve" smooth="yes"/>
      <point x="115" y="335"/>
      <point x="144" y="305"/>
    </contour>
    <contour>
      <point x="8" y="-148" type="line"/>
      <point x="117" y="-117"/>
      <point x="190" y="-28"/>
      <point x="190" y="72" type="curve" smooth="yes"/>
      <point x="190" y="88"/>
      <point x="187" y="99"/>
      <point x="181" y="112" type="curve"/>
      <point x="164" y="125"/>
      <point x="145" y="132"/>
      <point x="124" y="132" type="curve" smooth="yes"/>
      <point x="78" y="132"/>
      <point x="51" y="97"/>
      <point x="51" y="62" type="curve" smooth="yes"/>
      <point x="51" y="40"/>
      <point x="61" y="14"/>
      <point x="83" y="0" type="curve" smooth="yes"/>
      <point x="126" y="-34" type="line"/>
      <point x="123" y="0" type="line"/>
      <point x="92" y="-57"/>
      <point x="53" y="-92"/>
      <point x="-4" y="-114" type="curve"/>
    </contour>
  </outline>
</glyph>
<glyph name="greater" format="2">
  <advance width="495"/>
  <unicode hex="003E"/>
  <outline>
    <contour>
      <point x="461" y="327" type="line"/>
      <point x="109" y="517" type="line"/>
      <point x="76" y="452" type="line"/>
      <point x="412" y="281" type="line"/>
      <point x="412" y="318" type="line"/>
      <point x="76" y="146" type="line"/>
      <point x="109" y="81" type="line"/>
      <point x="461" y="271" type="line"/>
    </contour>
  </outline>
</glyph>
<glyph name="A" format="2">
  <advance width="629"/>
  <unicode hex="0041"/>
  <anchor x="395" y="632" name="aboveUC"/>
  <anchor x="250" y="-20" name="belowLC"/>
  <anchor x="486" y="0" name="ogonek"/>
  <outline>
    <contour>
      <point x="-26" y="0" type="line"/>
      <point x="180" y="0" type="line"/>
      <point x="189" y="45" type="line"/>
      <point x="102" y="58" type="line"/>
      <point x="79" y="58" type="line"/>
      <point x="-17" y="45" type="line"/>
    </contour>
    <contour>
      <point x="30" y="0" type="line"/>
      <point x="83" y="0" type="line"/>
      <point x="363" y="542" type="line"/>
      <point x="337" y="520" type="line"/>
      <point x="411" y="0" type="line"/>
      <point x="529" y="0" type="line"/>
      <point x="434" y="609" type="line"/>
      <point x="356" y="609" type="line"/>
    </contour>
    <contour>
      <point x="170" y="197" type="line"/>
      <point x="438" y="197" type="line"/>
      <point x="439" y="246" type="line"/>
      <point x="188" y="246" type="line"/>
    </contour>
    <contour>
      <point x="317" y="0" type="line"/>
      <point x="587" y="0" type="line"/>
      <point x="596" y="45" type="line"/>
      <point x="477" y="58" type="line"/>
      <point x="454" y="58" type="line"/>
      <point x="326" y="45" type="line"/>
    </contour>
  </outline>
</glyph>
<glyph name="C" format="2">
  <advance width="550"/>
  <unicode hex="0043"/>
  <anchor x="399" y="632" name="aboveUC"/>
  <anchor x="316" y="0" name="baseLC"/>
  <anchor x="302" y="-20" name="belowLC"/>
  <outline>
    <contour>
      <point x="313" y="-15" type="curve" smooth="yes"/>
      <point x="392" y="-15"/>
      <point x="449" y="4"/>
      <point x="495" y="27" type="curve"/>
      <point x="520" y="166" type="line"/>
      <point x="455" y="166" type="line"/>
      <point x="404" y="23" type="line"/>
      <point x="468" y="70" type="line"/>
      <point x="428" y="49"/>
      <point x="387" y="34"/>
      <point x="345" y="34" type="curve" smooth="yes"/>
      <point x="239" y="34"/>
      <point x="169" y="118"/>
      <point x="169" y="251" type="curve" smooth="yes"/>
      <point x="169" y="424"/>
      <point x="267" y="574"/>
      <point x="407" y="574" type="curve" smooth="yes"/>
      <point x="452" y="574"/>
      <point x="494" y="558"/>
      <point x="529" y="524" type="curve"/>
      <point x="486" y="574" type="line"/>
      <point x="488" y="440" type="line"/>
      <point x="552" y="440" type="line"/>
      <point x="574" y="576" type="line"/>
      <point x="515" y="610"/>
      <point x="463" y="624"/>
      <point x="403" y="624" type="curve" smooth="yes"/>
      <point x="196" y="624"/>
      <point x="46" y="458"/>
      <point x="46" y="253" type="curve" smooth="yes"/>
      <point x="46" y="83"/>
      <point x="153" y="-15"/>
    </contour>
  </outline>
</glyph>
<glyph name="H" format="2">
  <advance width="696"/>
  <unicode hex="0048"/>
  <note>
skew 10 scale 120
</note>
  <anchor x="423" y="632" name="aboveUC"/>
  <anchor x="316" y="-20" name="belowLC"/>
  <outline>
    <contour>
      <point x="4" y="0" type="line"/>
      <point x="274" y="0" type="line"/>
      <point x="283" y="45" type="line"/>
      <point x="164" y="58" type="line"/>
      <point x="141" y="58" type="line"/>
      <point x="13" y="45" type="line"/>
    </contour>
    <contour>
      <point x="78" y="0" type="line"/>
      <point x="197" y="0" type="line"/>
      <point x="213" y="94"/>
      <point x="230" y="190"/>
      <point x="247" y="285" type="curve" smooth="yes"/>
      <point x="309" y="609" type="line"/>
      <point x="189" y="609" type="line"/>
      <point x="173" y="514"/>
      <point x="157" y="418"/>
      <point x="138" y="323" type="curve" smooth="yes"/>
    </contour>
    <contour>
      <point x="103" y="563" type="line"/>
      <point x="227" y="550" type="line"/>
      <point x="250" y="550" type="line"/>
      <point x="373" y="563" type="line"/>
      <point x="382" y="609" type="line"/>
      <point x="113" y="609" type="line"/>
    </contour>
    <contour>
      <point x="195" y="287" type="line"/>
      <point x="553" y="287" type="line"/>
      <point x="557" y="336" type="line"/>
      <point x="199" y="336" type="line"/>
    </contour>
    <contour>
      <point x="360" y="0" type="line"/>
      <point x="630" y="0" type="line"/>
      <point x="639" y="45" type="line"/>
      <point x="520" y="58" type="line"/>
      <point x="497" y="58" type="line"/>
      <point x="369" y="45" type="line"/>
    </contour>
    <contour>
      <point x="434" y="0" type="line"/>
      <point x="553" y="0" type="line"/>
      <point x="569" y="94"/>
      <point x="586" y="190"/>
      <point x="603" y="285" type="curve" smooth="yes"/>
      <point x="665" y="609" type="line"/>
      <point x="544" y="609" type="line"/>
      <point x="529" y="514"/>
      <point x="513" y="418"/>
      <point x="494" y="323" type="curve" smooth="yes"/>
    </contour>
    <contour>
      <point x="460" y="563" type="line"/>
      <point x="583" y="550" type="line"/>
      <point x="607" y="550" type="line"/>
      <point x="729" y="563" type="line"/>
      <point x="738" y="609" type="line"/>
      <point x="469" y="609" type="line"/>
    </contour>
  </outline>
</glyph>
<glyph name="J" format="2">
  <advance width="374"/>
  <unicode hex="004A"/>
  <anchor x="299" y="632" name="aboveUC"/>
  <anchor x="87" y="-57" name="belowLC"/>
  <outline>
    <contour>
      <point x="-36" y="8" type="curve"/>
      <point x="-27" y="-29"/>
      <point x="10" y="-46"/>
      <point x="56" y="-46" type="curve" smooth="yes"/>
      <point x="125" y="-46"/>
      <point x="195" y="0"/>
      <point x="240" y="80" type="curve" smooth="yes"/>
      <point x="265" y="125"/>
      <point x="283" y="188"/>
      <point x="302" y="296" type="curve" smooth="yes"/>
      <point x="358" y="609" type="line"/>
      <point x="237" y="609" type="line"/>
      <point x="219" y="496"/>
      <point x="205" y="405"/>
      <point x="192" y="324" type="curve" smooth="yes"/>
      <point x="178" y="237"/>
      <point x="172" y="187"/>
      <point x="162" y="132" type="curve" smooth="yes"/>
      <point x="150" y="67"/>
      <point x="126" y="19"/>
      <point x="93" y="-6" type="curve"/>
      <point x="131" y="0" type="line"/>
      <point x="79" y="46"/>
      <point x="57" y="61"/>
      <point x="31" y="61" type="curve" smooth="yes"/>
      <point x="-3" y="61"/>
      <point x="-29" y="41"/>
    </contour>
    <contour>
      <point x="145" y="563" type="line"/>
      <point x="266" y="550" type="line"/>
      <point x="295" y="550" type="line"/>
      <point x="424" y="563" type="line"/>
      <point x="432" y="609" type="line"/>
      <point x="154" y="609" type="line"/>
    </contour>
  </outline>
</glyph>
<glyph name="L" format="2">
  <advance width="520"/>
  <unicode hex="004C"/>
  <anchor x="248" y="632" name="aboveUC"/>
  <anchor x="254" y="-20" name="belowLC"/>
  <outline>
    <contour>
      <point x="4" y="0" type="line"/>
      <point x="135" y="0" type="line"/>
      <point x="146" y="58" type="line"/>
      <point x="135" y="58" type="line"/>
      <point x="12" y="45" type="line"/>
    </contour>
    <contour>
      <point x="78" y="0" type="line"/>
      <point x="197" y="0" type="line"/>
      <point x="213" y="94"/>
      <point x="230" y="190"/>
      <point x="247" y="285" type="curve" smooth="yes"/>
      <point x="309" y="609" type="line"/>
      <point x="188" y="609" type="line"/>
      <point x="173" y="514"/>
      <point x="157" y="418"/>
      <point x="138" y="323" type="curve" smooth="yes"/>
    </contour>
    <contour>
      <point x="103" y="563" type="line"/>
      <point x="224" y="550" type="line"/>
      <point x="256" y="550" type="line"/>
      <point x="381" y="563" type="line"/>
      <point x="391" y="609" type="line"/>
      <point x="113" y="609" type="line"/>
    </contour>
    <contour>
      <point x="135" y="0" type="line"/>
      <point x="469" y="0" type="line"/>
      <point x="506" y="177" type="line"/>
      <point x="443" y="177" type="line"/>
      <point x="379" y="0" type="line"/>
      <point x="448" y="50" type="line"/>
      <point x="144" y="50" type="line"/>
    </contour>
  </outline>
</glyph>
<glyph name="M" format="2">
  <advance width="841"/>
  <unicode hex="004D"/>
  <anchor x="492" y="617" name="aboveUC"/>
  <anchor x="350" y="-20" name="belowLC"/>
  <outline>
    <contour>
      <point x="-11" y="0" type="line"/>
      <point x="206" y="0" type="line"/>
      <point x="215" y="45" type="line"/>
      <point x="120" y="58" type="line"/>
      <point x="92" y="58" type="line"/>
      <point x="-2" y="45" type="line"/>
    </contour>
    <contour>
      <point x="71" y="0" type="line"/>
      <point x="119" y="0" type="line"/>
      <point x="257" y="596" type="line"/>
      <point x="210" y="596" type="line"/>
    </contour>
    <contour>
      <point x="334" y="0" type="line"/>
      <point x="374" y="0" type="line"/>
      <point x="726" y="609" type="line"/>
      <point x="676" y="609" type="line"/>
      <point x="381" y="103" type="line"/>
      <point x="424" y="121" type="line"/>
      <point x="325" y="609" type="line"/>
      <point x="137" y="609" type="line"/>
      <point x="127" y="563" type="line"/>
      <point x="252" y="550" type="line"/>
      <point x="205" y="597" type="line"/>
    </contour>
    <contour>
      <point x="509" y="0" type="line"/>
      <point x="775" y="0" type="line"/>
      <point x="782" y="46" type="line"/>
      <point x="662" y="59" type="line"/>
      <point x="640" y="59" type="line"/>
      <point x="517" y="46" type="line"/>
    </contour>
    <contour>
      <point x="582" y="0" type="line"/>
      <point x="701" y="0" type="line"/>
      <point x="713" y="94"/>
      <point x="725" y="191"/>
      <point x="739" y="287" type="curve" smooth="yes"/>
      <point x="788" y="609" type="line"/>
      <point x="700" y="609" type="line"/>
      <point x="664" y="552" type="line"/>
    </contour>
    <contour>
      <point x="713" y="550" type="line"/>
      <point x="738" y="550" type="line"/>
      <point x="858" y="563" type="line"/>
      <point x="865" y="609" type="line"/>
      <point x="719" y="609" type="line"/>
    </contour>
  </outline>
</glyph>
<glyph name="P" format="2">
  <advance width="536"/>
  <unicode hex="0050"/>
  <anchor x="341" y="632" name="aboveUC"/>
  <anchor x="142" y="-20" name="belowLC"/>
  <outline>
    <contour>
      <point x="4" y="0" type="line"/>
      <point x="283" y="0" type="line"/>
      <point x="291" y="45" type="line"/>
      <point x="170" y="58" type="line"/>
      <point x="138" y="58" type="line"/>
      <point x="12" y="45" type="line"/>
    </contour>
    <contour>
      <point x="78" y="0" type="line"/>
      <point x="197" y="0" type="line"/>
      <point x="213" y="94"/>
      <point x="230" y="190"/>
      <point x="247" y="285" type="curve" smooth="yes"/>
      <point x="309" y="609" type="line"/>
      <point x="188" y="609" type="line"/>
      <point x="173" y="514"/>
      <point x="157" y="418"/>
      <point x="138" y="323" type="curve" smooth="yes"/>
    </contour>
    <contour>
      <point x="103" y="563" type="line"/>
      <point x="224" y="550" type="line"/>
      <point x="239" y="550" type="line"/>
      <point x="251" y="609" type="line"/>
      <point x="113" y="609" type="line"/>
    </contour>
    <contour>
      <point x="177" y="233" type="line"/>
      <point x="282" y="233" type="line" smooth="yes"/>
      <point x="467" y="233"/>
      <point x="559" y="330"/>
      <point x="559" y="443" type="curve" smooth="yes"/>
      <point x="559" y="542"/>
      <point x="492" y="609"/>
      <point x="337" y="609" type="curve" smooth="yes"/>
      <point x="251" y="609" type="line"/>
      <point x="241" y="559" type="line"/>
      <point x="326" y="559" type="line" smooth="yes"/>
      <point x="400" y="559"/>
      <point x="441" y="519"/>
      <point x="441" y="445" type="curve" smooth="yes"/>
      <point x="441" y="345"/>
      <point x="381" y="281"/>
      <point x="284" y="281" type="curve" smooth="yes"/>
      <point x="186" y="281" type="line"/>
    </contour>
  </outline>
</glyph>
<glyph name="T" format="2">
  <advance width="545"/>
  <unicode hex="0054"/>
  <anchor x="357" y="632" name="aboveUC"/>
  <anchor x="245" y="0" name="baseLC"/>
  <anchor x="244" y="-20" name="belowLC"/>
  <outline>
    <contour>
      <point x="67" y="440" type="line"/>
      <point x="130" y="440" type="line"/>
      <point x="187" y="609" type="line"/>
      <point x="122" y="558" type="line"/>
      <point x="564" y="558" type="line"/>
      <point x="518" y="609" type="line"/>
      <point x="514" y="440" type="line"/>
      <point x="576" y="440" type="line"/>
      <point x="605" y="609" type="line"/>
      <point x="102" y="609" type="line"/>
    </contour>
    <contour>
      <point x="100" y="0" type="line"/>
      <point x="387" y="0" type="line"/>
      <point x="396" y="45" type="line"/>
      <point x="270" y="58" type="line"/>
      <point x="239" y="58" type="line"/>
      <point x="109" y="45" type="line"/>
    </contour>
    <contour>
      <point x="184" y="0" type="line"/>
      <point x="303" y="0" type="line"/>
      <point x="318" y="94"/>
      <point x="334" y="190"/>
      <point x="353" y="285" type="curve" smooth="yes"/>
      <point x="414" y="609" type="line"/>
      <point x="294" y="609" type="line"/>
      <point x="279" y="514"/>
      <point x="263" y="418"/>
      <point x="244" y="323" type="curve" smooth="yes"/>
    </contour>
  </outline>
</glyph>
<glyph name="V" format="2">
  <advance width="555"/>
  <unicode hex="0056"/>
  <anchor x="390" y="632" name="aboveUC"/>
  <anchor x="248" y="-20" name="belowLC"/>
  <outline>
    <contour>
      <point x="56" y="563" type="line"/>
      <point x="175" y="550" type="line"/>
      <point x="202" y="550" type="line"/>
      <point x="324" y="565" type="line"/>
      <point x="333" y="609" type="line"/>
      <point x="65" y="609" type="line"/>
    </contour>
    <contour>
      <point x="209" y="-4" type="line"/>
      <point x="276" y="-4" type="line"/>
      <point x="598" y="609" type="line"/>
      <point x="542" y="609" type="line"/>
      <point x="280" y="100" type="line"/>
      <point x="307" y="103" type="line"/>
      <point x="234" y="609" type="line"/>
      <point x="108" y="609" type="line"/>
    </contour>
    <contour>
      <point x="443" y="565" type="line"/>
      <point x="538" y="550" type="line"/>
      <point x="553" y="550" type="line"/>
      <point x="643" y="563" type="line"/>
      <point x="653" y="609" type="line"/>
      <point x="451" y="609" type="line"/>
    </contour>
  </outline>
</glyph>
<glyph name="W" format="2">
  <advance width="811"/>
  <unicode hex="0057"/>
  <anchor x="501" y="632" name="aboveUC"/>
  <anchor x="393" y="-10" name="belowLC"/>
  <outline>
    <contour>
      <point x="56" y="563" type="line"/>
      <point x="173" y="550" type="line"/>
      <point x="199" y="550" type="line"/>
      <point x="316" y="563" type="line"/>
      <point x="325" y="609" type="line"/>
      <point x="65" y="609" type="line"/>
    </contour>
    <contour>
      <point x="169" y="-4" type="line"/>
      <point x="238" y="-4" type="line"/>
      <point x="484" y="516" type="line"/>
      <point x="444" y="485" type="line"/>
      <point x="506" y="-4" type="line"/>
      <point x="574" y="-4" type="line"/>
      <point x="853" y="609" type="line"/>
      <point x="800" y="609" type="line"/>
      <point x="551" y="47" type="line"/>
      <point x="598" y="115" type="line"/>
      <point x="543" y="609" type="line"/>
      <point x="476" y="609" type="line"/>
      <point x="216" y="47" type="line"/>
      <point x="265" y="115" type="line"/>
      <point x="234" y="609" type="line"/>
      <point x="111" y="609" type="line"/>
    </contour>
    <contour>
      <point x="374" y="563" type="line"/>
      <point x="481" y="550" type="line"/>
      <point x="518" y="550" type="line"/>
      <point x="631" y="563" type="line"/>
      <point x="640" y="609" type="line"/>
      <point x="383" y="609" type="line"/>
    </contour>
    <contour>
      <point x="700" y="563" type="line"/>
      <point x="791" y="550" type="line"/>
      <point x="812" y="550" type="line"/>
      <point x="900" y="563" type="line"/>
      <point x="908" y="609" type="line"/>
      <point x="709" y="609" type="line"/>
    </contour>
  </outline>
</glyph>
<glyph name="Y" format="2">
  <advance width="521"/>
  <unicode hex="0059"/>
  <anchor x="377" y="632" name="aboveUC"/>
  <anchor x="233" y="-20" name="belowLC"/>
  <outline>
    <contour>
      <point x="56" y="563" type="line"/>
      <point x="180" y="550" type="line"/>
      <point x="211" y="550" type="line"/>
      <point x="325" y="563" type="line"/>
      <point x="333" y="609" type="line"/>
      <point x="65" y="609" type="line"/>
    </contour>
    <contour>
      <point x="94" y="0" type="line"/>
      <point x="381" y="0" type="line"/>
      <point x="391" y="45" type="line"/>
      <point x="264" y="58" type="line"/>
      <point x="233" y="58" type="line"/>
      <point x="103" y="45" type="line"/>
    </contour>
    <contour>
      <point x="236" y="213" type="line"/>
      <point x="312" y="213" type="line"/>
      <point x="575" y="609" type="line"/>
      <point x="519" y="609" type="line"/>
      <point x="314" y="289" type="line"/>
      <point x="332" y="284" type="line"/>
      <point x="235" y="609" type="line"/>
      <point x="103" y="609" type="line"/>
    </contour>
    <contour>
      <point x="177" y="0" type="line"/>
      <point x="297" y="0" type="line"/>
      <point x="312" y="94"/>
      <point x="329" y="191"/>
      <point x="346" y="286" type="curve"/>
      <point x="231" y="286" type="line"/>
    </contour>
    <contour>
      <point x="415" y="563" type="line"/>
      <point x="503" y="550" type="line"/>
      <point x="522" y="550" type="line"/>
      <point x="609" y="563" type="line"/>
      <point x="619" y="609" type="line"/>
      <point x="425" y="609" type="line"/>
    </contour>
  </outline>
</glyph>
<glyph name="backslash" format="2">
  <advance width="326"/>
  <unicode hex="005C"/>
  <outline>
    <contour>
      <point x="267" y="-147" type="line"/>
      <point x="185" y="653" type="line"/>
      <point x="107" y="653" type="line"/>
      <point x="189" y="-147" type="line"/>
    </contour>
  </outline>
</glyph>
<glyph name="asciicircum" format="2">
  <advance width="495"/>
  <unicode hex="005E"/>
  <outline>
    <contour>
      <point x="76" y="217" type="line"/>
      <point x="132" y="176" type="line"/>
      <point x="284" y="412" type="line"/>
      <point x="241" y="412" type="line"/>
      <point x="393" y="176" type="line"/>
      <point x="451" y="217" type="line"/>
      <point x="298" y="456" type="line"/>
      <point x="229" y="456" type="line"/>
    </contour>
  </outline>
</glyph>
<glyph name="c" format="2">
  <advance width="410"/>
  <unicode hex="0063"/>
  <anchor x="314" y="471" name="aboveLC"/>
  <anchor x="180" y="0" name="baseLC"/>
  <anchor x="185" y="-20" name="belowLC"/>
  <outline>
    <contour>
      <point x="198" y="-12" type="curve" smooth="yes"/>
      <point x="282" y="-12"/>
      <point x="356" y="48"/>
      <point x="394" y="119" type="curve"/>
      <point x="370" y="138" type="line"/>
      <point x="339" y="98"/>
      <point x="298" y="70"/>
      <point x="254" y="70" type="curve" smooth="yes"/>
      <point x="195" y="70"/>
      <point x="155" y="105"/>
      <point x="155" y="181" type="curve" smooth="yes"/>
      <point x="155" y="287"/>
      <point x="215" y="394"/>
      <point x="310" y="425" type="curve"/>
      <point x="266" y="431" type="line"/>
      <point x="307" y="369" type="line" smooth="yes"/>
      <point x="322" y="346"/>
      <point x="340" y="326"/>
      <point x="368" y="326" type="curve"/>
      <point x="396" y="326"/>
      <point x="420" y="345"/>
      <point x="422" y="376" type="curve"/>
      <point x="409" y="424"/>
      <point x="368" y="455"/>
      <point x="305" y="455" type="curve" smooth="yes"/>
      <point x="165" y="455"/>
      <point x="46" y="317"/>
      <point x="46" y="160" type="curve" smooth="yes"/>
      <point x="46" y="49"/>
      <point x="109" y="-12"/>
    </contour>
  </outline>
</glyph>
<glyph name="h" format="2">
  <advance width="520"/>
  <unicode hex="0068"/>
  <anchor x="234" y="667" name="aboveLC"/>
  <anchor x="219" y="-15" name="belowLC"/>
  <outline>
    <contour>
      <point x="55" y="-7" type="line"/>
      <point x="153" y="0" type="line"/>
      <point x="163" y="65"/>
      <point x="174" y="122"/>
      <point x="190" y="195" type="curve" smooth="yes"/>
      <point x="218" y="326" type="line"/>
      <point x="218" y="342" type="line"/>
      <point x="286" y="658" type="line"/>
      <point x="274" y="668" type="line"/>
      <point x="94" y="619" type="line"/>
      <point x="90" y="586" type="line"/>
      <point x="203" y="572" type="line"/>
      <point x="163" y="603" type="line"/>
      <point x="154" y="538"/>
      <point x="141" y="472"/>
      <point x="127" y="408" type="curve" smooth="yes"/>
      <point x="43" y="1" type="line"/>
    </contour>
    <contour>
      <point x="360" y="-12" type="curve" smooth="yes"/>
      <point x="433" y="-12"/>
      <point x="495" y="46"/>
      <point x="531" y="104" type="curve"/>
      <point x="505" y="123" type="line"/>
      <point x="474" y="84"/>
      <point x="448" y="62"/>
      <point x="429" y="62" type="curve" smooth="yes"/>
      <point x="419" y="62"/>
      <point x="413" y="69"/>
      <point x="413" y="81" type="curve" smooth="yes"/>
      <point x="413" y="91"/>
      <point x="417" y="105"/>
      <point x="423" y="126" type="curve" smooth="yes"/>
      <point x="465" y="299" type="line" smooth="yes"/>
      <point x="472" y="328"/>
      <point x="478" y="356"/>
      <point x="478" y="382" type="curve" smooth="yes"/>
      <point x="478" y="431"/>
      <point x="451" y="455"/>
      <point x="413" y="455" type="curve" smooth="yes"/>
      <point x="349" y="455"/>
      <point x="270" y="405"/>
      <point x="204" y="334" type="curve"/>
      <point x="202" y="296" type="line"/>
      <point x="259" y="348"/>
      <point x="306" y="372"/>
      <point x="337" y="372" type="curve" smooth="yes"/>
      <point x="353" y="372"/>
      <point x="364" y="363"/>
      <point x="364" y="339" type="curve" smooth="yes"/>
      <point x="364" y="322"/>
      <point x="358" y="295"/>
      <point x="351" y="265" type="curve" smooth="yes"/>
      <point x="315" y="119" type="line" smooth="yes"/>
      <point x="307" y="88"/>
      <point x="299" y="63"/>
      <point x="299" y="38" type="curve" smooth="yes"/>
      <point x="299" y="6"/>
      <point x="322" y="-12"/>
    </contour>
  </outline>
</glyph>
<glyph name="i" format="2">
  <advance width="288"/>
  <unicode hex="0069"/>
  <anchor x="234" y="678" name="aboveLC"/>
  <anchor x="133" y="-20" name="belowLC"/>
  <anchor x="175" y="0" name="ogonek"/>
  <outline>
    <contour>
      <point x="69" y="42" type="curve" smooth="yes"/>
      <point x="69" y="6"/>
      <point x="96" y="-12"/>
      <point x="132" y="-12" type="curve" smooth="yes"/>
      <point x="207" y="-12"/>
      <point x="261" y="46"/>
      <point x="299" y="104" type="curve"/>
      <point x="273" y="123" type="line"/>
      <point x="241" y="82"/>
      <point x="217" y="62"/>
      <point x="199" y="62" type="curve" smooth="yes"/>
      <point x="190" y="62"/>
      <point x="182" y="69"/>
      <point x="182" y="82" type="curve" smooth="yes"/>
      <point x="182" y="92"/>
      <point x="184" y="107"/>
      <point x="189" y="126" type="curve" smooth="yes"/>
      <point x="257" y="444" type="line"/>
      <point x="242" y="455" type="line"/>
      <point x="62" y="405" type="line"/>
      <point x="57" y="373" type="line"/>
      <point x="154" y="360" type="line"/>
      <point x="135" y="381" type="line"/>
      <point x="81" y="124" type="line" smooth="yes"/>
      <point x="75" y="92"/>
      <point x="69" y="63"/>
    </contour>
    <contour>
      <point x="225" y="555" type="curve" smooth="yes"/>
      <point x="261" y="555"/>
      <point x="294" y="587"/>
      <point x="294" y="626" type="curve" smooth="yes"/>
      <point x="294" y="663"/>
      <point x="269" y="687"/>
      <point x="233" y="687" type="curve" smooth="yes"/>
      <point x="197" y="687"/>
      <point x="163" y="656"/>
      <point x="163" y="617" type="curve" smooth="yes"/>
      <point x="163" y="578"/>
      <point x="192" y="555"/>
    </contour>
  </outline>
</glyph>
<glyph name="n" format="2">
  <advance width="534"/>
  <unicode hex="006E"/>
  <anchor x="322" y="471" name="aboveLC"/>
  <anchor x="234" y="-15" name="belowLC"/>
  <outline>
    <contour>
      <point x="313" y="38" type="curve" smooth="yes"/>
      <point x="313" y="6"/>
      <point x="335" y="-12"/>
      <point x="373" y="-12" type="curve" smooth="yes"/>
      <point x="447" y="-12"/>
      <point x="508" y="46"/>
      <point x="544" y="104" type="curve"/>
      <point x="518" y="123" type="line"/>
      <point x="488" y="84"/>
      <point x="461" y="62"/>
      <point x="443" y="62" type="curve" smooth="yes"/>
      <point x="433" y="62"/>
      <point x="426" y="69"/>
      <point x="426" y="81" type="curve" smooth="yes"/>
      <point x="426" y="91"/>
      <point x="431" y="105"/>
      <point x="437" y="126" type="curve" smooth="yes"/>
      <point x="479" y="299" type="line" smooth="yes"/>
      <point x="486" y="328"/>
      <point x="492" y="356"/>
      <point x="492" y="382" type="curve" smooth="yes"/>
      <point x="492" y="431"/>
      <point x="465" y="455"/>
      <point x="425" y="455" type="curve" smooth="yes"/>
      <point x="362" y="455"/>
      <point x="284" y="405"/>
      <point x="218" y="334" type="curve"/>
      <point x="216" y="296" type="line"/>
      <point x="273" y="348"/>
      <point x="320" y="372"/>
      <point x="350" y="372" type="curve" smooth="yes"/>
      <point x="367" y="372"/>
      <point x="378" y="363"/>
      <point x="378" y="339" type="curve" smooth="yes"/>
      <point x="378" y="322"/>
      <point x="372" y="295"/>
      <point x="365" y="265" type="curve" smooth="yes"/>
      <point x="328" y="119" type="line" smooth="yes"/>
      <point x="321" y="88"/>
      <point x="313" y="63"/>
    </contour>
    <contour>
      <point x="165" y="0" type="line"/>
      <point x="177" y="66"/>
      <point x="189" y="130"/>
      <point x="203" y="195" type="curve" smooth="yes"/>
      <point x="231" y="328" type="line"/>
      <point x="254" y="443" type="line"/>
      <point x="239" y="455" type="line"/>
      <point x="62" y="405" type="line"/>
      <point x="57" y="373" type="line"/>
      <point x="172" y="359" type="line"/>
      <point x="135" y="380" type="line"/>
      <point x="55" y="1" type="line"/>
      <point x="67" y="-7" type="line"/>
    </contour>
  </outline>
</glyph>
<glyph name="r" format="2">
  <advance width="401"/>
  <unicode hex="0072"/>
  <anchor x="286" y="471" name="aboveLC"/>
  <anchor x="109" y="-20" name="belowLC"/>
  <outline>
    <contour>
      <point x="207" y="217" type="line"/>
      <point x="240" y="287"/>
      <point x="279" y="349"/>
      <point x="340" y="402" type="curve"/>
      <point x="296" y="403" type="line"/>
      <point x="308" y="390" type="line" smooth="yes"/>
      <point x="333" y="363"/>
      <point x="356" y="347"/>
      <point x="381" y="347" type="curve" smooth="yes"/>
      <point x="418" y="347"/>
      <point x="437" y="377"/>
      <point x="438" y="415" type="curve"/>
      <point x="426" y="442"/>
      <point x="400" y="455"/>
      <point x="369" y="455" type="curve" smooth="yes"/>
      <point x="309" y="455"/>
      <point x="243" y="364"/>
      <point x="201" y="263" type="curve"/>
    </contour>
    <contour>
      <point x="55" y="1" type="line"/>
      <point x="67" y="-7" type="line"/>
      <point x="165" y="0" type="line"/>
      <point x="177" y="66"/>
      <point x="189" y="130"/>
      <point x="203" y="195" type="curve" smooth="yes"/>
      <point x="221" y="280" type="line"/>
      <point x="219" y="290" type="line"/>
      <point x="245" y="443" type="line"/>
      <point x="230" y="455" type="line"/>
      <point x="62" y="405" type="line"/>
      <point x="57" y="373" type="line"/>
      <point x="172" y="359" type="line"/>
      <point x="135" y="380" type="line"/>
    </contour>
  </outline>
</glyph>
<glyph name="t" format="2">
  <advance width="311"/>
  <unicode hex="0074"/>
  <anchor x="244" y="584" name="aboveLC"/>
  <anchor x="130" y="0" name="baseLC"/>
  <anchor x="127" y="-20" name="belowLC"/>
  <outline>
    <contour>
      <point x="59" y="391" type="line"/>
      <point x="177" y="391" type="line"/>
      <point x="347" y="386" type="line"/>
      <point x="356" y="441" type="line"/>
      <point x="182" y="441" type="line"/>
      <point x="182" y="446" type="line"/>
      <point x="67" y="433" type="line"/>
    </contour>
    <contour>
      <point x="80" y="126" type="line" smooth="yes"/>
      <point x="74" y="92"/>
      <point x="69" y="65"/>
      <point x="69" y="44" type="curve" smooth="yes"/>
      <point x="69" y="6"/>
      <point x="95" y="-12"/>
      <point x="133" y="-12" type="curve" smooth="yes"/>
      <point x="205" y="-12"/>
      <point x="264" y="46"/>
      <point x="301" y="104" type="curve"/>
      <point x="275" y="123" type="line"/>
      <point x="241" y="82"/>
      <point x="218" y="62"/>
      <point x="199" y="62" type="curve" smooth="yes"/>
      <point x="190" y="62"/>
      <point x="181" y="69"/>
      <point x="181" y="82" type="curve" smooth="yes"/>
      <point x="181" y="92"/>
      <point x="184" y="107"/>
      <point x="188" y="127" type="curve" smooth="yes"/>
      <point x="279" y="567" type="line"/>
      <point x="208" y="567" type="line"/>
      <point x="143" y="417" type="line"/>
    </contour>
  </outline>
</glyph>
<glyph name="u" format="2">
  <advance width="537"/>
  <unicode hex="0075"/>
  <anchor x="328" y="471" name="aboveLC"/>
  <anchor x="262" y="-20" name="belowLC"/>
  <anchor x="478" y="431" name="hornLC"/>
  <anchor x="415" y="0" name="ogonek"/>
  <outline>
    <contour>
      <point x="147" y="-12" type="curve" smooth="yes"/>
      <point x="213" y="-12"/>
      <point x="286" y="36"/>
      <point x="363" y="124" type="curve"/>
      <point x="359" y="152" type="line"/>
      <point x="295" y="93"/>
      <point x="256" y="69"/>
      <point x="220" y="69" type="curve" smooth="yes"/>
      <point x="201" y="69"/>
      <point x="187" y="80"/>
      <point x="187" y="107" type="curve" smooth="yes"/>
      <point x="187" y="126"/>
      <point x="192" y="149"/>
      <point x="199" y="179" type="curve" smooth="yes"/>
      <point x="260" y="443" type="line"/>
      <point x="245" y="455" type="line"/>
      <point x="64" y="405" type="line"/>
      <point x="59" y="373" type="line"/>
      <point x="153" y="361" type="line"/>
      <point x="139" y="386" type="line"/>
      <point x="88" y="159" type="line" smooth="yes"/>
      <point x="81" y="126"/>
      <point x="73" y="89"/>
      <point x="73" y="60" type="curve" smooth="yes"/>
      <point x="73" y="10"/>
      <point x="107" y="-12"/>
    </contour>
    <contour>
      <point x="386" y="-12" type="curve" smooth="yes"/>
      <point x="458" y="-12"/>
      <point x="512" y="46"/>
      <point x="551" y="104" type="curve"/>
      <point x="525" y="123" type="line"/>
      <point x="491" y="82"/>
      <point x="469" y="62"/>
      <point x="449" y="62" type="curve" smooth="yes"/>
      <point x="440" y="62"/>
      <point x="432" y="69"/>
      <point x="432" y="82" type="curve" smooth="yes"/>
      <point x="432" y="92"/>
      <point x="435" y="107"/>
      <point x="438" y="126" type="curve" smooth="yes"/>
      <point x="507" y="443" type="line"/>
      <point x="492" y="455" type="line"/>
      <point x="392" y="424" type="line"/>
      <point x="383" y="373"/>
      <point x="373" y="322"/>
      <point x="363" y="273" type="curve" smooth="yes"/>
      <point x="332" y="124" type="line" smooth="yes"/>
      <point x="325" y="94"/>
      <point x="322" y="77"/>
      <point x="322" y="57" type="curve" smooth="yes"/>
      <point x="322" y="11"/>
      <point x="351" y="-12"/>
    </contour>
  </outline>
</glyph>
<glyph name="v" format="2">
  <advance width="465"/>
  <unicode hex="0076"/>
  <anchor x="302" y="466" name="aboveLC"/>
  <anchor x="195" y="-20" name="belowLC"/>
  <outline>
    <contour>
      <point x="162" y="0" type="curve"/>
      <point x="171" y="-7" type="line"/>
      <point x="222" y="-1" type="line"/>
      <point x="316" y="92"/>
      <point x="399" y="199"/>
      <point x="444" y="280" type="curve" smooth="yes"/>
      <point x="482" y="349"/>
      <point x="485" y="375"/>
      <point x="485" y="399" type="curve" smooth="yes"/>
      <point x="485" y="423"/>
      <point x="483" y="433"/>
      <point x="476" y="444" type="curve"/>
      <point x="468" y="450"/>
      <point x="453" y="457"/>
      <point x="436" y="457" type="curve" smooth="yes"/>
      <point x="397" y="457"/>
      <point x="369" y="434"/>
      <point x="369" y="383" type="curve" smooth="yes"/>
      <point x="369" y="366"/>
      <point x="377" y="344"/>
      <point x="383" y="323" type="curve" smooth="yes"/>
      <point x="402" y="250" type="line"/>
      <point x="417" y="342" type="line"/>
      <point x="412" y="331"/>
      <point x="407" y="321"/>
      <point x="402" y="310" type="curve" smooth="yes"/>
      <point x="354" y="219"/>
      <point x="306" y="149"/>
      <point x="240" y="68" type="curve"/>
      <point x="258" y="69" type="line"/>
      <point x="253" y="172"/>
      <point x="247" y="280"/>
      <point x="236" y="371" type="curve" smooth="yes"/>
      <point x="229" y="428"/>
      <point x="209" y="455"/>
      <point x="165" y="455" type="curve" smooth="yes"/>
      <point x="120" y="455"/>
      <point x="77" y="418"/>
      <point x="34" y="347" type="curve"/>
      <point x="56" y="327" type="line"/>
      <point x="79" y="359"/>
      <point x="92" y="369"/>
      <point x="105" y="369" type="curve" smooth="yes"/>
      <point x="117" y="369"/>
      <point x="126" y="365"/>
      <point x="128" y="334" type="curve" smooth="yes"/>
      <point x="143" y="232"/>
      <point x="153" y="127"/>
    </contour>
  </outline>
</glyph>
<glyph name="z" format="2">
  <advance width="445"/>
  <unicode hex="007A"/>
  <anchor x="287" y="471" name="aboveLC"/>
  <anchor x="168" y="-20" name="belowLC"/>
  <outline>
    <contour>
      <point x="269" y="-23" type="curve" smooth="yes"/>
      <point x="347" y="-23"/>
      <point x="434" y="66"/>
      <point x="434" y="146" type="curve" smooth="yes"/>
      <point x="434" y="173"/>
      <point x="422" y="195"/>
      <point x="396" y="204" type="curve"/>
      <point x="368" y="201"/>
      <point x="342" y="180"/>
      <point x="342" y="148" type="curve" smooth="yes"/>
      <point x="342" y="126"/>
      <point x="351" y="110"/>
      <point x="384" y="74" type="curve"/>
      <point x="402" y="100" type="line"/>
      <point x="380" y="83"/>
      <point x="352" y="72"/>
      <point x="318" y="72" type="curve" smooth="yes"/>
      <point x="269" y="72"/>
      <point x="211" y="88"/>
      <point x="130" y="140" type="curve"/>
      <point x="92" y="92" type="line"/>
      <point x="160" y="2"/>
      <point x="213" y="-23"/>
    </contour>
    <contour>
      <point x="78" y="0" type="line"/>
      <point x="111" y="88" type="line"/>
      <point x="197" y="162"/>
      <point x="287" y="231"/>
      <point x="375" y="310" type="curve" smooth="yes"/>
      <point x="429" y="358"/>
      <point x="465" y="403"/>
      <point x="478" y="441" type="curve"/>
      <point x="468" y="450" type="line"/>
      <point x="409" y="441" type="line"/>
      <point x="369" y="356" type="line"/>
      <point x="277" y="268"/>
      <point x="179" y="190"/>
      <point x="86" y="107" type="curve" smooth="yes"/>
      <point x="43" y="69"/>
      <point x="23" y="37"/>
      <point x="3" y="0" type="curve"/>
      <point x="11" y="-6" type="line"/>
    </contour>
    <contour>
      <point x="58" y="245" type="line"/>
      <point x="102" y="239" type="line"/>
      <point x="151" y="403" type="line"/>
      <point x="96" y="356" type="line"/>
      <point x="188" y="336"/>
      <point x="256" y="321"/>
      <point x="338" y="298" type="curve"/>
      <point x="396" y="365" type="line"/>
      <point x="313" y="402"/>
      <point x="237" y="428"/>
      <point x="152" y="455" type="curve"/>
      <point x="78" y="394" type="line"/>
    </contour>
  </outline>
</glyph>
<glyph name="braceright" format="2">
  <advance width="329"/>
  <unicode hex="007D"/>
  <outline>
    <contour>
      <point x="319" y="278" type="line"/>
      <point x="255" y="287"/>
      <point x="235" y="310"/>
      <point x="235" y="341" type="curve" smooth="yes"/>
      <point x="235" y="410"/>
      <point x="308" y="484"/>
      <point x="308" y="568" type="curve" smooth="yes"/>
      <point x="308" y="629"/>
      <point x="253" y="657"/>
      <point x="168" y="657" type="curve" smooth="yes"/>
      <point x="126" y="657" type="line"/>
      <point x="117" y="613" type="line"/>
      <point x="149" y="610" type="line" smooth="yes"/>
      <point x="188" y="607"/>
      <point x="208" y="591"/>
      <point x="208" y="559" type="curve" smooth="yes"/>
      <point x="208" y="504"/>
      <point x="161" y="402"/>
      <point x="161" y="342" type="curve" smooth="yes"/>
      <point x="161" y="288"/>
      <point x="195" y="253"/>
      <point x="274" y="249" type="curve"/>
      <point x="276" y="262" type="line"/>
      <point x="174" y="257"/>
      <point x="114" y="195"/>
      <point x="114" y="111" type="curve" smooth="yes"/>
      <point x="114" y="83"/>
      <point x="116" y="40"/>
      <point x="116" y="9" type="curve" smooth="yes"/>
      <point x="116" y="-60"/>
      <point x="92" y="-95"/>
      <point x="19" y="-100" type="curve" smooth="yes"/>
      <point x="-2" y="-102" type="line"/>
      <point x="-11" y="-146" type="line"/>
      <point x="18" y="-146" type="line" smooth="yes"/>
      <point x="139" y="-146"/>
      <point x="214" y="-97"/>
      <point x="214" y="3" type="curve" smooth="yes"/>
      <point x="214" y="48"/>
      <point x="196" y="90"/>
      <point x="196" y="126" type="curve" smooth="yes"/>
      <point x="196" y="182"/>
      <point x="219" y="220"/>
      <point x="310" y="232" type="curve"/>
    </contour>
  </outline>
</glyph>
<glyph name="exclamdown" format="2">
  <advance width="274"/>
  <unicode hex="00A1"/>
  <outline>
    <contour>
      <point x="176" y="251" type="line"/>
      <point x="138" y="251" type="line"/>
      <point x="29" y="-20"/>
      <point x="8" y="-80"/>
      <point x="8" y="-121" type="curve" smooth="yes"/>
      <point x="8" y="-157"/>
      <point x="26" y="-179"/>
      <point x="66" y="-179" type="curve" smooth="yes"/>
      <point x="106" y="-179"/>
      <point x="138" y="-161"/>
      <point x="151" y="-101" type="curve" smooth="yes"/>
      <point x="159" y="-71"/>
      <point x="165" y="0"/>
      <point x="169" y="119" type="curve" smooth="yes"/>
    </contour>
    <contour>
      <point x="252" y="395" type="curve" smooth="yes"/>
      <point x="252" y="429"/>
      <point x="225" y="457"/>
      <point x="189" y="457" type="curve" smooth="yes"/>
      <point x="149" y="457"/>
      <point x="113" y="424"/>
      <point x="113" y="382" type="curve" smooth="yes"/>
      <point x="113" y="348"/>
      <point x="138" y="320"/>
      <point x="175" y="320" type="curve" smooth="yes"/>
      <point x="216" y="320"/>
      <point x="252" y="353"/>
    </contour>
  </outline>
</glyph>
<glyph name="cent" format="2">
  <advance width="490"/>
  <unicode hex="00A2"/>
  <outline>
    <contour>
      <point x="69" y="220" type="curve" smooth="yes"/>
      <point x="69" y="109"/>
      <point x="132" y="46"/>
      <point x="221" y="46" type="curve" smooth="yes"/>
      <point x="305" y="46"/>
      <point x="379" y="109"/>
      <point x="416" y="179" type="curve"/>
      <point x="393" y="197" type="line"/>
      <point x="361" y="159"/>
      <point x="320" y="130"/>
      <point x="274" y="130" type="curve" smooth="yes"/>
      <point x="216" y="130"/>
      <point x="174" y="165"/>
      <point x="174" y="244" type="curve" smooth="yes"/>
      <point x="174" y="342"/>
      <point x="228" y="469"/>
      <point x="321" y="469" type="curve" smooth="yes"/>
      <point x="363" y="469"/>
      <point x="386" y="461"/>
      <point x="413" y="448" type="curve"/>
      <point x="367" y="483" type="line"/>
      <point x="373" y="406" type="line" smooth="yes"/>
      <point x="378" y="356"/>
      <point x="393" y="340"/>
      <point x="424" y="340" type="curve" smooth="yes"/>
      <point x="442" y="340"/>
      <point x="463" y="352"/>
      <point x="468" y="382" type="curve"/>
      <point x="468" y="462"/>
      <point x="409" y="515"/>
      <point x="322" y="515" type="curve" smooth="yes"/>
      <point x="186" y="515"/>
      <point x="69" y="377"/>
    </contour>
    <contour>
      <point x="237" y="-41" type="line"/>
      <point x="368" y="602" type="line"/>
      <point x="324" y="602" type="line"/>
      <point x="193" y="-41" type="line"/>
    </contour>
  </outline>
</glyph>
<glyph name="sterling" format="2">
  <advance width="490"/>
  <unicode hex="00A3"/>
  <outline>
    <contour>
      <point x="12" y="0" type="line"/>
      <point x="402" y="0" type="line"/>
      <point x="423" y="99" type="line"/>
      <point x="98" y="99" type="line"/>
      <point x="99" y="80" type="line"/>
      <point x="186" y="129"/>
      <point x="256" y="209"/>
      <point x="256" y="282" type="curve" smooth="yes"/>
      <point x="256" y="336"/>
      <point x="234" y="368"/>
      <point x="234" y="437" type="curve" smooth="yes"/>
      <point x="234" y="500"/>
      <point x="271" y="552"/>
      <point x="348" y="552" type="curve" smooth="yes"/>
      <point x="368" y="552"/>
      <point x="391" y="550"/>
      <point x="415" y="540" type="curve"/>
      <point x="370" y="565" type="line"/>
      <point x="371" y="540"/>
      <point x="373" y="514"/>
      <point x="374" y="488" type="curve" smooth="yes"/>
      <point x="376" y="429"/>
      <point x="393" y="414"/>
      <point x="425" y="414" type="curve" smooth="yes"/>
      <point x="448" y="414"/>
      <point x="467" y="425"/>
      <point x="479" y="455" type="curve"/>
      <point x="479" y="549"/>
      <point x="425" y="598"/>
      <point x="313" y="598" type="curve" smooth="yes"/>
      <point x="201" y="598"/>
      <point x="115" y="530"/>
      <point x="115" y="440" type="curve" smooth="yes"/>
      <point x="115" y="365"/>
      <point x="168" y="328"/>
      <point x="168" y="270" type="curve" smooth="yes"/>
      <point x="168" y="193"/>
      <point x="111" y="126"/>
      <point x="28" y="77" type="curve"/>
    </contour>
    <contour>
      <point x="71" y="246" type="line"/>
      <point x="369" y="246" type="line"/>
      <point x="379" y="296" type="line"/>
      <point x="82" y="296" type="line"/>
    </contour>
  </outline>
</glyph>
<glyph name="brokenbar" format="2">
  <advance width="242"/>
  <unicode hex="00A6"/>
  <outline>
    <contour>
      <point x="98" y="-230" type="line"/>
      <point x="173" y="-230" type="line"/>
      <point x="173" y="184" type="line"/>
      <point x="98" y="184" type="line"/>
    </contour>
    <contour>
      <point x="173" y="294" type="line"/>
      <point x="173" y="690" type="line"/>
      <point x="98" y="690" type="line"/>
      <point x="98" y="294" type="line"/>
    </contour>
  </outline>
</glyph>
<glyph name="copyright" format="2">
  <advance width="706"/>
  <unicode hex="00A9"/>
  <outline>
    <contour>
      <point x="356" y="-15" type="curve" smooth="yes"/>
      <point x="533" y="-15"/>
      <point x="702" y="120"/>
      <point x="702" y="337" type="curve" smooth="yes"/>
      <point x="702" y="516"/>
      <point x="576" y="624"/>
      <point x="412" y="624" type="curve" smooth="yes"/>
      <point x="234" y="624"/>
      <point x="65" y="487"/>
      <point x="65" y="270" type="curve" smooth="yes"/>
      <point x="65" y="92"/>
      <point x="191" y="-15"/>
    </contour>
    <contour>
      <point x="356" y="27" type="curve" smooth="yes"/>
      <point x="220" y="27"/>
      <point x="117" y="119"/>
      <point x="117" y="275" type="curve" smooth="yes"/>
      <point x="117" y="461"/>
      <point x="259" y="581"/>
      <point x="412" y="581" type="curve" smooth="yes"/>
      <point x="547" y="581"/>
      <point x="649" y="488"/>
      <point x="649" y="333" type="curve" smooth="yes"/>
      <point x="649" y="145"/>
      <point x="509" y="27"/>
    </contour>
    <contour>
      <point x="379" y="117" type="curve" smooth="yes"/>
      <point x="422" y="117"/>
      <point x="455" y="129"/>
      <point x="483" y="143" type="curve"/>
      <point x="498" y="230" type="line"/>
      <point x="455" y="230" type="line"/>
      <point x="424" y="141" type="line"/>
      <point x="466" y="176" type="line"/>
      <point x="443" y="164"/>
      <point x="419" y="155"/>
      <point x="394" y="155" type="curve" smooth="yes"/>
      <point x="338" y="155"/>
      <point x="298" y="204"/>
      <point x="298" y="286" type="curve" smooth="yes"/>
      <point x="298" y="369"/>
      <point x="341" y="458"/>
      <point x="426" y="458" type="curve" smooth="yes"/>
      <point x="457" y="458"/>
      <point x="482" y="448"/>
      <point x="501" y="428" type="curve"/>
      <point x="469" y="465" type="line"/>
      <point x="471" y="379" type="line"/>
      <point x="514" y="379" type="line"/>
      <point x="527" y="467" type="line"/>
      <point x="493" y="487"/>
      <point x="463" y="495"/>
      <point x="425" y="495" type="curve" smooth="yes"/>
      <point x="302" y="495"/>
      <point x="218" y="401"/>
      <point x="218" y="285" type="curve" smooth="yes"/>
      <point x="218" y="180"/>
      <point x="287" y="117"/>
    </contour>
  </outline>
</glyph>
<glyph name="ordfeminine" format="2">
  <advance width="347"/>
  <unicode hex="00AA"/>
  <outline>
    <contour>
      <point x="161" y="374" type="curve" smooth="yes"/>
      <point x="205" y="374"/>
      <point x="255" y="413"/>
      <point x="295" y="463" type="curve"/>
      <point x="289" y="482" type="line"/>
      <point x="256" y="449"/>
      <point x="231" y="431"/>
      <point x="209" y="431" type="curve" smooth="yes"/>
      <point x="188" y="431"/>
      <point x="173" y="447"/>
      <point x="173" y="484" type="curve" smooth="yes"/>
      <point x="173" y="568"/>
      <point x="229" y="637"/>
      <point x="275" y="637" type="curve" smooth="yes"/>
      <point x="293" y="637"/>
      <point x="311" y="629"/>
      <point x="327" y="619" type="curve"/>
      <point x="362" y="646" type="line"/>
      <point x="345" y="667"/>
      <point x="325" y="680"/>
      <point x="299" y="680" type="curve" smooth="yes"/>
      <point x="212" y="680"/>
      <point x="98" y="562"/>
      <point x="98" y="455" type="curve" smooth="yes"/>
      <point x="98" y="395"/>
      <point x="129" y="374"/>
    </contour>
    <contour>
      <point x="315" y="374" type="curve" smooth="yes"/>
      <point x="359" y="374"/>
      <point x="400" y="415"/>
      <point x="423" y="452" type="curve"/>
      <point x="404" y="464" type="line"/>
      <point x="385" y="441"/>
      <point x="368" y="425"/>
      <point x="356" y="425" type="curve" smooth="yes"/>
      <point x="348" y="425"/>
      <point x="343" y="430"/>
      <point x="343" y="438" type="curve" smooth="yes"/>
      <point x="343" y="445"/>
      <point x="345" y="454"/>
      <point x="347" y="466" type="curve" smooth="yes"/>
      <point x="395" y="676" type="line"/>
      <point x="385" y="684" type="line"/>
      <point x="313" y="645" type="line"/>
      <point x="276" y="472" type="line" smooth="yes"/>
      <point x="272" y="454"/>
      <point x="270" y="440"/>
      <point x="270" y="425" type="curve" smooth="yes"/>
      <point x="270" y="391"/>
      <point x="288" y="374"/>
    </contour>
  </outline>
</glyph>
<glyph name="uni00AD" format="2">
  <advance width="305"/>
  <unicode hex="00AD"/>
  <outline>
    <contour>
      <point x="47" y="195" type="line"/>
      <point x="276" y="195" type="line"/>
      <point x="276" y="269" type="line"/>
      <point x="47" y="269" type="line"/>
    </contour>
  </outline>
</glyph>
<glyph name="macron" format="2">
  <advance width="368"/>
  <unicode hex="00AF"/>
  <anchor x="254" y="478" name="_aboveLC"/>
  <anchor x="287" y="632" name="aboveLC"/>
  <outline>
    <contour>
      <point x="145" y="559" type="line"/>
      <point x="393" y="559" type="line"/>
      <point x="406" y="623" type="line"/>
      <point x="158" y="623" type="line"/>
    </contour>
  </outline>
</glyph>
<glyph name="degree" format="2">
  <advance width="301"/>
  <unicode hex="00B0"/>
  <outline>
    <contour>
      <point x="223" y="422" type="curve" smooth="yes"/>
      <point x="181" y="422"/>
      <point x="149" y="454"/>
      <point x="149" y="502" type="curve" smooth="yes"/>
      <point x="149" y="551"/>
      <point x="181" y="585"/>
      <point x="223" y="585" type="curve" smooth="yes"/>
      <point x="265" y="585"/>
      <point x="299" y="551"/>
      <point x="299" y="502" type="curve" smooth="yes"/>
      <point x="299" y="454"/>
      <point x="265" y="422"/>
    </contour>
    <contour>
      <point x="223" y="381" type="curve" smooth="yes"/>
      <point x="287" y="381"/>
      <point x="344" y="427"/>
      <point x="344" y="502" type="curve" smooth="yes"/>
      <point x="344" y="577"/>
      <point x="287" y="624"/>
      <point x="223" y="624" type="curve" smooth="yes"/>
      <point x="160" y="624"/>
      <point x="103" y="577"/>
      <point x="103" y="502" type="curve" smooth="yes"/>
      <point x="103" y="427"/>
      <point x="160" y="381"/>
    </contour>
  </outline>
</glyph>
<glyph name="plusminus" format="2">
  <advance width="495"/>
  <unicode hex="00B1"/>
  <outline>
    <contour>
      <point x="223" y="114" type="line"/>
      <point x="292" y="114" type="line"/>
      <point x="292" y="502" type="line"/>
      <point x="223" y="502" type="line"/>
    </contour>
    <contour>
      <point x="465" y="277" type="line"/>
      <point x="465" y="343" type="line"/>
      <point x="49" y="343" type="line"/>
      <point x="49" y="277" type="line"/>
    </contour>
    <contour>
      <point x="465" y="0" type="line"/>
      <point x="465" y="65" type="line"/>
      <point x="49" y="65" type="line"/>
      <point x="49" y="0" type="line"/>
    </contour>
  </outline>
</glyph>
<glyph name="three.sups" format="2">
  <advance width="332"/>
  <unicode hex="00B3"/>
  <outline>
    <contour>
      <point x="210" y="375" type="curve" smooth="yes"/>
      <point x="302" y="375"/>
      <point x="364" y="417"/>
      <point x="364" y="483" type="curve" smooth="yes"/>
      <point x="364" y="536"/>
      <point x="331" y="563"/>
      <point x="251" y="571" type="curve"/>
      <point x="249" y="563" type="line"/>
      <point x="339" y="574"/>
      <point x="380" y="617"/>
      <point x="380" y="667" type="curve" smooth="yes"/>
      <point x="380" y="713"/>
      <point x="348" y="753"/>
      <point x="267" y="753" type="curve" smooth="yes"/>
      <point x="199" y="753"/>
      <point x="150" y="721"/>
      <point x="146" y="660" type="curve"/>
      <point x="152" y="650"/>
      <point x="164" y="643"/>
      <point x="178" y="643" type="curve" smooth="yes"/>
      <point x="196" y="643"/>
      <point x="214" y="654"/>
      <point x="218" y="682" type="curve" smooth="yes"/>
      <point x="227" y="736" type="line"/>
      <point x="195" y="711" type="line"/>
      <point x="212" y="717"/>
      <point x="231" y="720"/>
      <point x="244" y="720" type="curve" smooth="yes"/>
      <point x="278" y="720"/>
      <point x="299" y="702"/>
      <point x="299" y="662" type="curve" smooth="yes"/>
      <point x="299" y="608"/>
      <point x="263" y="580"/>
      <point x="199" y="580" type="curve"/>
      <point x="193" y="549" type="line"/>
      <point x="249" y="549"/>
      <point x="273" y="529"/>
      <point x="273" y="486" type="curve" smooth="yes"/>
      <point x="273" y="432"/>
      <point x="232" y="407"/>
      <point x="194" y="407" type="curve" smooth="yes"/>
      <point x="170" y="407"/>
      <point x="155" y="411"/>
      <point x="140" y="419" type="curve"/>
      <point x="174" y="392" type="line"/>
      <point x="172" y="447" type="line" smooth="yes"/>
      <point x="169" y="485"/>
      <point x="156" y="495"/>
      <point x="136" y="495" type="curve" smooth="yes"/>
      <point x="121" y="495"/>
      <point x="108" y="487"/>
      <point x="100" y="471" type="curve"/>
      <point x="101" y="407"/>
      <point x="140" y="375"/>
    </contour>
  </outline>
</glyph>
<glyph name="acute" format="2">
  <advance width="368"/>
  <unicode hex="00B4"/>
  <anchor x="201" y="471" name="_aboveLC"/>
  <anchor x="253" y="712" name="aboveLC"/>
  <outline>
    <contour>
      <point x="194" y="509" type="curve"/>
      <point x="219" y="493" type="line"/>
      <point x="254" y="529"/>
      <point x="288" y="564"/>
      <point x="322" y="600" type="curve" smooth="yes"/>
      <point x="345" y="624"/>
      <point x="357" y="644"/>
      <point x="357" y="667" type="curve" smooth="yes"/>
      <point x="357" y="695"/>
      <point x="334" y="712"/>
      <point x="310" y="712" type="curve" smooth="yes"/>
      <point x="285" y="712"/>
      <point x="264" y="698"/>
      <point x="249" y="655" type="curve" smooth="yes"/>
      <point x="230" y="607"/>
      <point x="212" y="558"/>
    </contour>
  </outline>
</glyph>
<glyph name="mu" format="2">
  <advance width="509"/>
  <unicode hex="00B5"/>
  <outline>
    <contour>
      <point x="3" y="-176" type="line"/>
      <point x="110" y="-161" type="line"/>
      <point x="131" y="69" type="line"/>
      <point x="163" y="94" type="line"/>
      <point x="174" y="164"/>
      <point x="191" y="234"/>
      <point x="240" y="444" type="curve"/>
      <point x="231" y="455" type="line"/>
      <point x="119" y="436" type="line"/>
      <point x="68" y="103" type="line"/>
      <point x="-9" y="-166" type="line"/>
    </contour>
    <contour>
      <point x="201" y="-12" type="curve" smooth="yes"/>
      <point x="242" y="-12"/>
      <point x="301" y="25"/>
      <point x="340" y="114" type="curve"/>
      <point x="333" y="148" type="line"/>
      <point x="296" y="99"/>
      <point x="256" y="77"/>
      <point x="219" y="77" type="curve" smooth="yes"/>
      <point x="188" y="77"/>
      <point x="166" y="94"/>
      <point x="156" y="133" type="curve"/>
      <point x="115" y="75" type="line"/>
      <point x="124" y="23"/>
      <point x="153" y="-12"/>
    </contour>
    <contour>
      <point x="390" y="-12" type="curve" smooth="yes"/>
      <point x="430" y="-12"/>
      <point x="472" y="12"/>
      <point x="511" y="64" type="curve"/>
      <point x="492" y="88" type="line"/>
      <point x="474" y="73"/>
      <point x="460" y="63"/>
      <point x="446" y="63" type="curve" smooth="yes"/>
      <point x="429" y="63"/>
      <point x="422" y="74"/>
      <point x="422" y="96" type="curve" smooth="yes"/>
      <point x="422" y="134"/>
      <point x="437" y="205"/>
      <point x="473" y="333" type="curve" smooth="yes"/>
      <point x="503" y="444" type="line"/>
      <point x="494" y="455" type="line"/>
      <point x="382" y="436" type="line"/>
      <point x="345" y="241" type="line" smooth="yes"/>
      <point x="321" y="120"/>
      <point x="317" y="94"/>
      <point x="317" y="71" type="curve" smooth="yes"/>
      <point x="317" y="17"/>
      <point x="345" y="-12"/>
    </contour>
  </outline>
</glyph>
<glyph name="periodcentered" format="2">
  <advance width="280"/>
  <unicode hex="00B7"/>
  <outline>
    <contour>
      <point x="167" y="230" type="curve" smooth="yes"/>
      <point x="210" y="230"/>
      <point x="247" y="264"/>
      <point x="247" y="309" type="curve" smooth="yes"/>
      <point x="247" y="345"/>
      <point x="219" y="375"/>
      <point x="180" y="375" type="curve" smooth="yes"/>
      <point x="138" y="375"/>
      <point x="99" y="340"/>
      <point x="99" y="296" type="curve" smooth="yes"/>
      <point x="99" y="260"/>
      <point x="127" y="230"/>
    </contour>
  </outline>
</glyph>
<glyph name="ordmasculine" format="2">
  <advance width="325"/>
  <unicode hex="00BA"/>
  <outline>
    <contour>
      <point x="215" y="374" type="curve" smooth="yes"/>
      <point x="313" y="374"/>
      <point x="387" y="467"/>
      <point x="387" y="568" type="curve" smooth="yes"/>
      <point x="387" y="644"/>
      <point x="338" y="680"/>
      <point x="274" y="680" type="curve" smooth="yes"/>
      <point x="175" y="680"/>
      <point x="100" y="589"/>
      <point x="100" y="486" type="curve" smooth="yes"/>
      <point x="100" y="410"/>
      <point x="151" y="374"/>
    </contour>
    <contour>
      <point x="222" y="405" type="curve" smooth="yes"/>
      <point x="196" y="405"/>
      <point x="176" y="422"/>
      <point x="176" y="475" type="curve" smooth="yes"/>
      <point x="176" y="558"/>
      <point x="213" y="649"/>
      <point x="265" y="649" type="curve" smooth="yes"/>
      <point x="292" y="649"/>
      <point x="311" y="632"/>
      <point x="311" y="581" type="curve" smooth="yes"/>
      <point x="311" y="497"/>
      <point x="276" y="405"/>
    </contour>
  </outline>
</glyph>
<glyph name="onehalf" format="2">
  <advance width="800"/>
  <unicode hex="00BD"/>
  <outline>
    <contour>
      <point x="218" y="-17" type="line"/>
      <point x="667" y="574" type="line"/>
      <point x="629" y="603" type="line"/>
      <point x="180" y="11" type="line"/>
    </contour>
    <contour>
      <point x="303" y="229" type="line"/>
      <point x="308" y="257" type="line"/>
      <point x="218" y="268" type="line"/>
      <point x="174" y="268" type="line"/>
      <point x="82" y="257" type="line"/>
      <point x="77" y="229" type="line"/>
    </contour>
    <contour>
      <point x="230" y="229" type="line"/>
      <point x="288" y="512" type="line"/>
      <point x="308" y="593" type="line"/>
      <point x="301" y="598" type="line"/>
      <point x="148" y="565" type="line"/>
      <point x="141" y="539" type="line"/>
      <point x="223" y="541" type="line"/>
      <point x="209" y="559" type="line"/>
      <point x="143" y="229" type="line"/>
    </contour>
    <contour>
      <point x="474" y="0" type="line"/>
      <point x="722" y="0" type="line"/>
      <point x="736" y="70" type="line"/>
      <point x="536" y="70" type="line"/>
      <point x="540" y="63" type="line"/>
      <point x="710" y="183"/>
      <point x="761" y="221"/>
      <point x="761" y="282" type="curve" smooth="yes"/>
      <point x="761" y="332"/>
      <point x="728" y="369"/>
      <point x="659" y="369" type="curve" smooth="yes"/>
      <point x="591" y="369"/>
      <point x="538" y="345"/>
      <point x="517" y="266" type="curve"/>
      <point x="520" y="241"/>
      <point x="533" y="230"/>
      <point x="553" y="230" type="curve" smooth="yes"/>
      <point x="578" y="230"/>
      <point x="594" y="244"/>
      <point x="596" y="285" type="curve" smooth="yes"/>
      <point x="598" y="349" type="line"/>
      <point x="564" y="314" type="line"/>
      <point x="584" y="328"/>
      <point x="608" y="333"/>
      <point x="629" y="333" type="curve" smooth="yes"/>
      <point x="659" y="333"/>
      <point x="678" y="316"/>
      <point x="678" y="281" type="curve" smooth="yes"/>
      <point x="678" y="234"/>
      <point x="645" y="189"/>
      <point x="483" y="52" type="curve"/>
    </contour>
  </outline>
</glyph>
<glyph name="questiondown" format="2">
  <advance width="416"/>
  <unicode hex="00BF"/>
  <outline>
    <contour>
      <point x="383" y="397" type="curve" smooth="yes"/>
      <point x="383" y="430"/>
      <point x="357" y="457"/>
      <point x="321" y="457" type="curve" smooth="yes"/>
      <point x="284" y="457"/>
      <point x="249" y="425"/>
      <point x="249" y="386" type="curve" smooth="yes"/>
      <point x="249" y="353"/>
      <point x="274" y="324"/>
      <point x="310" y="324" type="curve" smooth="yes"/>
      <point x="348" y="324"/>
      <point x="383" y="356"/>
    </contour>
    <contour>
      <point x="325" y="268" type="curve"/>
      <point x="287" y="274" type="line"/>
      <point x="279" y="223"/>
      <point x="272" y="205"/>
      <point x="254" y="187" type="curve" smooth="yes"/>
      <point x="237" y="170"/>
      <point x="206" y="152"/>
      <point x="120" y="104" type="curve" smooth="yes"/>
      <point x="32" y="55"/>
      <point x="-1" y="8"/>
      <point x="-1" y="-58" type="curve" smooth="yes"/>
      <point x="-1" y="-142"/>
      <point x="66" y="-180"/>
      <point x="152" y="-180" type="curve" smooth="yes"/>
      <point x="251" y="-180"/>
      <point x="305" y="-131"/>
      <point x="319" y="-73" type="curve"/>
      <point x="315" y="-46"/>
      <point x="299" y="-28"/>
      <point x="271" y="-28" type="curve" smooth="yes"/>
      <point x="241" y="-28"/>
      <point x="223" y="-45"/>
      <point x="209" y="-77" type="curve" smooth="yes"/>
      <point x="179" y="-153" type="line"/>
      <point x="236" y="-132" type="line"/>
      <point x="218" y="-135"/>
      <point x="196" y="-139"/>
      <point x="166" y="-139" type="curve" smooth="yes"/>
      <point x="106" y="-139"/>
      <point x="81" y="-115"/>
      <point x="81" y="-78" type="curve" smooth="yes"/>
      <point x="81" y="-43"/>
      <point x="103" y="-12"/>
      <point x="181" y="30" type="curve" smooth="yes"/>
      <point x="256" y="72"/>
      <point x="277" y="90"/>
      <point x="297" y="115" type="curve" smooth="yes"/>
      <point x="322" y="149"/>
      <point x="326" y="187"/>
    </contour>
  </outline>
</glyph>
<glyph name="Agrave" format="2">
  <advance width="629"/>
  <unicode hex="00C0"/>
  <anchor x="436" y="808" name="aboveUC"/>
  <anchor x="250" y="-20" name="belowLC"/>
  <anchor x="486" y="0" name="ogonek"/>
  <outline>
    <contour>
      <point x="-26" y="0" type="line"/>
      <point x="180" y="0" type="line"/>
      <point x="189" y="45" type="line"/>
      <point x="102" y="58" type="line"/>
      <point x="79" y="58" type="line"/>
      <point x="-17" y="45" type="line"/>
    </contour>
    <contour>
      <point x="30" y="0" type="line"/>
      <point x="83" y="0" type="line"/>
      <point x="363" y="542" type="line"/>
      <point x="337" y="520" type="line"/>
      <point x="411" y="0" type="line"/>
      <point x="529" y="0" type="line"/>
      <point x="434" y="609" type="line"/>
      <point x="356" y="609" type="line"/>
    </contour>
    <contour>
      <point x="170" y="197" type="line"/>
      <point x="438" y="197" type="line"/>
      <point x="439" y="246" type="line"/>
      <point x="188" y="246" type="line"/>
    </contour>
    <contour>
      <point x="317" y="0" type="line"/>
      <point x="587" y="0" type="line"/>
      <point x="596" y="45" type="line"/>
      <point x="477" y="58" type="line"/>
      <point x="454" y="58" type="line"/>
      <point x="326" y="45" type="line"/>
    </contour>
    <contour>
      <point x="444" y="678" type="line"/>
      <point x="413" y="711"/>
      <point x="380" y="743"/>
      <point x="348" y="772" type="curve" smooth="yes"/>
      <point x="321" y="799"/>
      <point x="304" y="808"/>
      <point x="284" y="808" type="curve" smooth="yes"/>
      <point x="258" y="808"/>
      <point x="240" y="789"/>
      <point x="240" y="767" type="curve" smooth="yes"/>
      <point x="240" y="750"/>
      <point x="250" y="729"/>
      <point x="290" y="710" type="curve" smooth="yes"/>
      <point x="334" y="689"/>
      <point x="380" y="669"/>
      <point x="425" y="651" type="curve"/>
    </contour>
  </outline>
</glyph>
<glyph name="Adieresis" format="2">
  <advance width="629"/>
  <unicode hex="00C4"/>
  <anchor x="420" y="790" name="aboveUC"/>
  <anchor x="250" y="-20" name="belowLC"/>
  <anchor x="486" y="0" name="ogonek"/>
  <outline>
    <contour>
      <point x="-26" y="0" type="line"/>
      <point x="180" y="0" type="line"/>
      <point x="189" y="45" type="line"/>
      <point x="102" y="58" type="line"/>
      <point x="79" y="58" type="line"/>
      <point x="-17" y="45" type="line"/>
    </contour>
    <contour>
      <point x="30" y="0" type="line"/>
      <point x="83" y="0" type="line"/>
      <point x="363" y="542" type="line"/>
      <point x="337" y="520" type="line"/>
      <point x="411" y="0" type="line"/>
      <point x="529" y="0" type="line"/>
      <point x="434" y="609" type="line"/>
      <point x="356" y="609" type="line"/>
    </contour>
    <contour>
      <point x="170" y="197" type="line"/>
      <point x="438" y="197" type="line"/>
      <point x="439" y="246" type="line"/>
      <point x="188" y="246" type="line"/>
    </contour>
    <contour>
      <point x="317" y="0" type="line"/>
      <point x="587" y="0" type="line"/>
      <point x="596" y="45" type="line"/>
      <point x="477" y="58" type="line"/>
      <point x="454" y="58" type="line"/>
      <point x="326" y="45" type="line"/>
    </contour>
    <contour>
      <point x="293" y="668" type="curve" smooth="yes"/>
      <point x="324" y="668"/>
      <point x="354" y="693"/>
      <point x="354" y="733" type="curve" smooth="yes"/>
      <point x="354" y="760"/>
      <point x="332" y="781"/>
      <point x="303" y="781" type="curve" smooth="yes"/>
      <point x="274" y="781"/>
      <point x="241" y="758"/>
      <point x="241" y="718" type="curve" smooth="yes"/>
      <point x="241" y="687"/>
      <point x="267" y="668"/>
    </contour>
    <contour>
      <point x="501" y="668" type="curve" smooth="yes"/>
      <point x="533" y="668"/>
      <point x="563" y="693"/>
      <point x="563" y="733" type="curve" smooth="yes"/>
      <point x="563" y="760"/>
      <point x="541" y="781"/>
      <point x="512" y="781" type="curve" smooth="yes"/>
      <point x="483" y="781"/>
      <point x="451" y="758"/>
      <point x="451" y="718" type="curve" smooth="yes"/>
      <point x="451" y="687"/>
      <point x="476" y="668"/>
    </contour>
  </outline>
</glyph>
<glyph name="AE" format="2">
  <advance width="819"/>
  <unicode hex="00C6"/>
  <anchor x="600" y="632" name="aboveUC"/>
  <outline>
    <contour>
      <point x="-31" y="0" type="line"/>
      <point x="178" y="0" type="line"/>
      <point x="186" y="45" type="line"/>
      <point x="94" y="58" type="line"/>
      <point x="71" y="58" type="line"/>
      <point x="-22" y="45" type="line"/>
    </contour>
    <contour>
      <point x="17" y="0" type="line"/>
      <point x="78" y="0" type="line"/>
      <point x="493" y="609" type="line"/>
      <point x="440" y="609" type="line"/>
    </contour>
    <contour>
      <point x="182" y="206" type="line"/>
      <point x="437" y="206" type="line"/>
      <point x="441" y="254" type="line"/>
      <point x="213" y="254" type="line"/>
    </contour>
    <contour>
      <point x="284" y="0" type="line"/>
      <point x="415" y="0" type="line"/>
      <point x="426" y="58" type="line"/>
      <point x="415" y="58" type="line"/>
      <point x="293" y="45" type="line"/>
    </contour>
    <contour>
      <point x="313" y="563" type="line"/>
      <point x="434" y="550" type="line"/>
      <point x="514" y="550" type="line"/>
      <point x="526" y="609" type="line"/>
      <point x="322" y="609" type="line"/>
    </contour>
    <contour>
      <point x="357" y="0" type="line"/>
      <point x="477" y="0" type="line"/>
      <point x="493" y="94"/>
      <point x="509" y="190"/>
      <point x="528" y="285" type="curve" smooth="yes"/>
      <point x="588" y="609" type="line"/>
      <point x="469" y="609" type="line"/>
      <point x="454" y="514"/>
      <point x="437" y="418"/>
      <point x="419" y="323" type="curve" smooth="yes"/>
    </contour>
    <contour>
      <point x="415" y="0" type="line"/>
      <point x="756" y="0" type="line"/>
      <point x="792" y="160" type="line"/>
      <point x="729" y="160" type="line"/>
      <point x="672" y="0" type="line"/>
      <point x="737" y="49" type="line"/>
      <point x="425" y="49" type="line"/>
    </contour>
    <contour>
      <point x="471" y="287" type="line"/>
      <point x="671" y="287" type="line"/>
      <point x="679" y="336" type="line"/>
      <point x="480" y="336" type="line"/>
    </contour>
    <contour>
      <point x="519" y="558" type="line"/>
      <point x="793" y="558" type="line"/>
      <point x="748" y="609" type="line"/>
      <point x="746" y="448" type="line"/>
      <point x="809" y="448" type="line"/>
      <point x="832" y="609" type="line"/>
      <point x="529" y="609" type="line"/>
    </contour>
    <contour>
      <point x="644" y="210" type="line"/>
      <point x="690" y="210" type="line"/>
      <point x="728" y="415" type="line"/>
      <point x="682" y="415" type="line"/>
      <point x="650" y="324" type="line"/>
      <point x="647" y="307" type="line"/>
    </contour>
  </outline>
</glyph>
<glyph name="Iacute" format="2">
  <advance width="340"/>
  <unicode hex="00CD"/>
  <anchor x="313" y="802" name="aboveUC"/>
  <anchor x="136" y="-20" name="belowLC"/>
  <anchor x="177" y="0" name="ogonek"/>
  <outline>
    <contour>
      <point x="4" y="0" type="line"/>
      <point x="274" y="0" type="line"/>
      <point x="282" y="45" type="line"/>
      <point x="163" y="58" type="line"/>
      <point x="140" y="58" type="line"/>
      <point x="12" y="45" type="line"/>
    </contour>
    <contour>
      <point x="78" y="0" type="line"/>
      <point x="197" y="0" type="line"/>
      <point x="213" y="94"/>
      <point x="230" y="190"/>
      <point x="247" y="285" type="curve" smooth="yes"/>
      <point x="309" y="609" type="line"/>
      <point x="188" y="609" type="line"/>
      <point x="173" y="514"/>
      <point x="157" y="418"/>
      <point x="138" y="323" type="curve" smooth="yes"/>
    </contour>
    <contour>
      <point x="103" y="563" type="line"/>
      <point x="227" y="550" type="line"/>
      <point x="250" y="550" type="line"/>
      <point x="373" y="563" type="line"/>
      <point x="382" y="609" type="line"/>
      <point x="113" y="609" type="line"/>
    </contour>
    <contour>
      <point x="203" y="673" type="curve"/>
      <point x="219" y="646" type="line"/>
      <point x="268" y="666"/>
      <point x="317" y="684"/>
      <point x="366" y="704" type="curve" smooth="yes"/>
      <point x="412" y="723"/>
      <point x="420" y="743"/>
      <point x="420" y="761" type="curve" smooth="yes"/>
      <point x="420" y="783"/>
      <point x="403" y="802"/>
      <point x="378" y="802" type="curve" smooth="yes"/>
      <point x="354" y="802"/>
      <point x="340" y="794"/>
      <point x="309" y="768" type="curve" smooth="yes"/>
      <point x="273" y="737"/>
      <point x="238" y="705"/>
    </contour>
  </outline>
</glyph>
<glyph name="Icircumflex" format="2">
  <advance width="340"/>
  <unicode hex="00CE"/>
  <anchor x="282" y="808" name="aboveUC"/>
  <anchor x="136" y="-20" name="belowLC"/>
  <anchor x="177" y="0" name="ogonek"/>
  <outline>
    <contour>
      <point x="4" y="0" type="line"/>
      <point x="274" y="0" type="line"/>
      <point x="282" y="45" type="line"/>
      <point x="163" y="58" type="line"/>
      <point x="140" y="58" type="line"/>
      <point x="12" y="45" type="line"/>
    </contour>
    <contour>
      <point x="78" y="0" type="line"/>
      <point x="197" y="0" type="line"/>
      <point x="213" y="94"/>
      <point x="230" y="190"/>
      <point x="247" y="285" type="curve" smooth="yes"/>
      <point x="309" y="609" type="line"/>
      <point x="188" y="609" type="line"/>
      <point x="173" y="514"/>
      <point x="157" y="418"/>
      <point x="138" y="323" type="curve" smooth="yes"/>
    </contour>
    <contour>
      <point x="103" y="563" type="line"/>
      <point x="227" y="550" type="line"/>
      <point x="250" y="550" type="line"/>
      <point x="373" y="563" type="line"/>
      <point x="382" y="609" type="line"/>
      <point x="113" y="609" type="line"/>
    </contour>
    <contour>
      <point x="299" y="799" type="line"/>
      <point x="252" y="799" type="line"/>
      <point x="106" y="669" type="line"/>
      <point x="122" y="644" type="line"/>
      <point x="309" y="752" type="line"/>
      <point x="228" y="752" type="line"/>
      <point x="382" y="644" type="line"/>
      <point x="406" y="668" type="line"/>
    </contour>
  </outline>
</glyph>
<glyph name="Otilde" format="2">
  <advance width="611"/>
  <unicode hex="00D5"/>
  <anchor x="416" y="800" name="aboveUC"/>
  <anchor x="277" y="-19" name="belowLC"/>
  <anchor x="528" y="619" name="hornLC"/>
  <anchor x="369" y="0" name="ogonek"/>
  <outline>
    <contour>
      <point x="276" y="-15" type="curve" smooth="yes"/>
      <point x="484" y="-15"/>
      <point x="613" y="163"/>
      <point x="613" y="371" type="curve" smooth="yes"/>
      <point x="613" y="528"/>
      <point x="522" y="624"/>
      <point x="384" y="624" type="curve" smooth="yes"/>
      <point x="178" y="624"/>
      <point x="49" y="442"/>
      <point x="49" y="237" type="curve" smooth="yes"/>
      <point x="49" y="72"/>
      <point x="143" y="-15"/>
    </contour>
    <contour>
      <point x="288" y="34" type="curve" smooth="yes"/>
      <point x="205" y="34"/>
      <point x="168" y="103"/>
      <point x="168" y="219" type="curve" smooth="yes"/>
      <point x="168" y="416"/>
      <point x="257" y="574"/>
      <point x="375" y="574" type="curve" smooth="yes"/>
      <point x="460" y="574"/>
      <point x="494" y="507"/>
      <point x="494" y="391" type="curve" smooth="yes"/>
      <point x="494" y="195"/>
      <point x="404" y="34"/>
    </contour>
    <contour>
      <point x="223" y="667" type="curve"/>
      <point x="255" y="655" type="line"/>
      <point x="276" y="704"/>
      <point x="298" y="722"/>
      <point x="325" y="722" type="curve" smooth="yes"/>
      <point x="353" y="722"/>
      <point x="368" y="701"/>
      <point x="387" y="685" type="curve" smooth="yes"/>
      <point x="404" y="669"/>
      <point x="425" y="655"/>
      <point x="458" y="655" type="curve" smooth="yes"/>
      <point x="513" y="655"/>
      <point x="552" y="690"/>
      <point x="578" y="777" type="curve"/>
      <point x="546" y="790" type="line"/>
      <point x="524" y="739"/>
      <point x="504" y="722"/>
      <point x="476" y="722" type="curve" smooth="yes"/>
      <point x="451" y="722"/>
      <point x="436" y="743"/>
      <point x="417" y="759" type="curve" smooth="yes"/>
      <point x="398" y="775"/>
      <point x="380" y="790"/>
      <point x="345" y="790" type="curve" smooth="yes"/>
      <point x="292" y="790"/>
      <point x="248" y="751"/>
    </contour>
  </outline>
</glyph>
<glyph name="Odieresis" format="2">
  <advance width="611"/>
  <unicode hex="00D6"/>
  <anchor x="409" y="790" name="aboveUC"/>
  <anchor x="277" y="-19" name="belowLC"/>
  <anchor x="528" y="619" name="hornLC"/>
  <anchor x="369" y="0" name="ogonek"/>
  <outline>
    <contour>
      <point x="276" y="-15" type="curve" smooth="yes"/>
      <point x="484" y="-15"/>
      <point x="613" y="163"/>
      <point x="613" y="371" type="curve" smooth="yes"/>
      <point x="613" y="528"/>
      <point x="522" y="624"/>
      <point x="384" y="624" type="curve" smooth="yes"/>
      <point x="178" y="624"/>
      <point x="49" y="442"/>
      <point x="49" y="237" type="curve" smooth="yes"/>
      <point x="49" y="72"/>
      <point x="143" y="-15"/>
    </contour>
    <contour>
      <point x="288" y="34" type="curve" smooth="yes"/>
      <point x="205" y="34"/>
      <point x="168" y="103"/>
      <point x="168" y="219" type="curve" smooth="yes"/>
      <point x="168" y="416"/>
      <point x="257" y="574"/>
      <point x="375" y="574" type="curve" smooth="yes"/>
      <point x="460" y="574"/>
      <point x="494" y="507"/>
      <point x="494" y="391" type="curve" smooth="yes"/>
      <point x="494" y="195"/>
      <point x="404" y="34"/>
    </contour>
    <contour>
      <point x="282" y="668" type="curve" smooth="yes"/>
      <point x="313" y="668"/>
      <point x="343" y="693"/>
      <point x="343" y="733" type="curve" smooth="yes"/>
      <point x="343" y="760"/>
      <point x="321" y="781"/>
      <point x="292" y="781" type="curve" smooth="yes"/>
      <point x="262" y="781"/>
      <point x="230" y="758"/>
      <point x="230" y="718" type="curve" smooth="yes"/>
      <point x="230" y="687"/>
      <point x="256" y="668"/>
    </contour>
    <contour>
      <point x="491" y="668" type="curve" smooth="yes"/>
      <point x="522" y="668"/>
      <point x="552" y="693"/>
      <point x="552" y="733" type="curve" smooth="yes"/>
      <point x="552" y="760"/>
      <point x="529" y="781"/>
      <point x="501" y="781" type="curve" smooth="yes"/>
      <point x="471" y="781"/>
      <point x="440" y="758"/>
      <point x="440" y="718" type="curve" smooth="yes"/>
      <point x="440" y="687"/>
      <point x="466" y="668"/>
    </contour>
  </outline>
</glyph>
<glyph name="Oslash" format="2">
  <advance width="611"/>
  <unicode hex="00D8"/>
  <anchor x="387" y="632" name="aboveUC"/>
  <outline>
    <contour>
      <point x="638" y="597" type="line"/>
      <point x="597" y="635" type="line"/>
      <point x="4" y="11" type="line"/>
      <point x="45" y="-26" type="line"/>
    </contour>
    <contour>
      <point x="276" y="-15" type="curve" smooth="yes"/>
      <point x="480" y="-15"/>
      <point x="613" y="163"/>
      <point x="613" y="371" type="curve" smooth="yes"/>
      <point x="613" y="525"/>
      <point x="523" y="624"/>
      <point x="386" y="624" type="curve" smooth="yes"/>
      <point x="184" y="624"/>
      <point x="49" y="442"/>
      <point x="49" y="237" type="curve" smooth="yes"/>
      <point x="49" y="72"/>
      <point x="143" y="-15"/>
    </contour>
    <contour>
      <point x="286" y="34" type="curve" smooth="yes"/>
      <point x="202" y="34"/>
      <point x="163" y="92"/>
      <point x="163" y="221" type="curve" smooth="yes"/>
      <point x="163" y="415"/>
      <point x="260" y="575"/>
      <point x="377" y="575" type="curve" smooth="yes"/>
      <point x="462" y="575"/>
      <point x="498" y="518"/>
      <point x="498" y="391" type="curve" smooth="yes"/>
      <point x="498" y="196"/>
      <point x="402" y="34"/>
    </contour>
  </outline>
</glyph>
<glyph name="Uacute" format="2">
  <advance width="640"/>
  <unicode hex="00DA"/>
  <anchor x="510" y="802" name="aboveUC"/>
  <anchor x="299" y="-20" name="belowLC"/>
  <anchor x="626" y="625" name="hornLC"/>
  <anchor x="390" y="0" name="ogonek"/>
  <outline>
    <contour>
      <point x="97" y="166" type="curve" smooth="yes"/>
      <point x="97" y="45"/>
      <point x="172" y="-15"/>
      <point x="301" y="-15" type="curve" smooth="yes"/>
      <point x="436" y="-15"/>
      <point x="529" y="58"/>
      <point x="564" y="246" type="curve" smooth="yes"/>
      <point x="632" y="609" type="line"/>
      <point x="577" y="609" type="line"/>
      <point x="510" y="256" type="line" smooth="yes"/>
      <point x="482" y="106"/>
      <point x="431" y="57"/>
      <point x="333" y="57" type="curve" smooth="yes"/>
      <point x="264" y="57"/>
      <point x="218" y="99"/>
      <point x="218" y="172" type="curve" smooth="yes"/>
      <point x="218" y="206"/>
      <point x="223" y="230"/>
      <point x="229" y="259" type="curve" smooth="yes"/>
      <point x="294" y="609" type="line"/>
      <point x="169" y="609" type="line"/>
      <point x="154" y="516"/>
      <point x="137" y="421"/>
      <point x="120" y="329" type="curve" smooth="yes"/>
      <point x="106" y="253" type="line" smooth="yes"/>
      <point x="101" y="223"/>
      <point x="97" y="193"/>
    </contour>
    <contour>
      <point x="87" y="563" type="line"/>
      <point x="209" y="550" type="line"/>
      <point x="232" y="550" type="line"/>
      <point x="357" y="563" type="line"/>
      <point x="367" y="609" type="line"/>
      <point x="95" y="609" type="line"/>
    </contour>
    <contour>
      <point x="481" y="563" type="line"/>
      <point x="581" y="553" type="line"/>
      <point x="604" y="553" type="line"/>
      <point x="698" y="563" type="line"/>
      <point x="706" y="609" type="line"/>
      <point x="490" y="609" type="line"/>
    </contour>
    <contour>
      <point x="399" y="673" type="curve"/>
      <point x="415" y="646" type="line"/>
      <point x="464" y="666"/>
      <point x="514" y="684"/>
      <point x="563" y="704" type="curve" smooth="yes"/>
      <point x="609" y="723"/>
      <point x="616" y="743"/>
      <point x="616" y="761" type="curve" smooth="yes"/>
      <point x="616" y="783"/>
      <point x="599" y="802"/>
      <point x="574" y="802" type="curve" smooth="yes"/>
      <point x="550" y="802"/>
      <point x="536" y="794"/>
      <point x="504" y="768" type="curve" smooth="yes"/>
      <point x="469" y="737"/>
      <point x="434" y="705"/>
    </contour>
  </outline>
</glyph>
<glyph name="Udieresis" format="2">
  <advance width="640"/>
  <unicode hex="00DC"/>
  <anchor x="462" y="790" name="aboveUC"/>
  <anchor x="299" y="-20" name="belowLC"/>
  <anchor x="626" y="625" name="hornLC"/>
  <anchor x="390" y="0" name="ogonek"/>
  <outline>
    <contour>
      <point x="97" y="166" type="curve" smooth="yes"/>
      <point x="97" y="45"/>
      <point x="172" y="-15"/>
      <point x="301" y="-15" type="curve" smooth="yes"/>
      <point x="436" y="-15"/>
      <point x="529" y="58"/>
      <point x="564" y="246" type="curve" smooth="yes"/>
      <point x="632" y="609" type="line"/>
      <point x="577" y="609" type="line"/>
      <point x="510" y="256" type="line" smooth="yes"/>
      <point x="482" y="106"/>
      <point x="431" y="57"/>
      <point x="333" y="57" type="curve" smooth="yes"/>
      <point x="264" y="57"/>
      <point x="218" y="99"/>
      <point x="218" y="172" type="curve" smooth="yes"/>
      <point x="218" y="206"/>
      <point x="223" y="230"/>
      <point x="229" y="259" type="curve" smooth="yes"/>
      <point x="294" y="609" type="line"/>
      <point x="169" y="609" type="line"/>
      <point x="154" y="516"/>
      <point x="137" y="421"/>
      <point x="120" y="329" type="curve" smooth="yes"/>
      <point x="106" y="253" type="line" smooth="yes"/>
      <point x="101" y="223"/>
      <point x="97" y="193"/>
    </contour>
    <contour>
      <point x="87" y="563" type="line"/>
      <point x="209" y="550" type="line"/>
      <point x="232" y="550" type="line"/>
      <point x="357" y="563" type="line"/>
      <point x="367" y="609" type="line"/>
      <point x="95" y="609" type="line"/>
    </contour>
    <contour>
      <point x="481" y="563" type="line"/>
      <point x="581" y="553" type="line"/>
      <point x="604" y="553" type="line"/>
      <point x="698" y="563" type="line"/>
      <point x="706" y="609" type="line"/>
      <point x="490" y="609" type="line"/>
    </contour>
    <contour>
      <point x="335" y="668" type="curve" smooth="yes"/>
      <point x="367" y="668"/>
      <point x="396" y="693"/>
      <point x="396" y="733" type="curve" smooth="yes"/>
      <point x="396" y="760"/>
      <point x="374" y="781"/>
      <point x="345" y="781" type="curve" smooth="yes"/>
      <point x="316" y="781"/>
      <point x="285" y="758"/>
      <point x="285" y="718" type="curve" smooth="yes"/>
      <point x="285" y="687"/>
      <point x="310" y="668"/>
    </contour>
    <contour>
      <point x="544" y="668" type="curve" smooth="yes"/>
      <point x="575" y="668"/>
      <point x="606" y="693"/>
      <point x="606" y="733" type="curve" smooth="yes"/>
      <point x="606" y="760"/>
      <point x="584" y="781"/>
      <point x="554" y="781" type="curve" smooth="yes"/>
      <point x="525" y="781"/>
      <point x="494" y="758"/>
      <point x="494" y="718" type="curve" smooth="yes"/>
      <point x="494" y="687"/>
      <point x="519" y="668"/>
    </contour>
  </outline>
</glyph>
<glyph name="germandbls" format="2">
  <advance width="510"/>
  <unicode hex="00DF"/>
  <outline>
    <contour>
      <point x="72" y="39" type="curve" smooth="yes"/>
      <point x="59" y="-37"/>
      <point x="46" y="-89"/>
      <point x="27" y="-129" type="curve" smooth="yes"/>
      <point x="12" y="-160"/>
      <point x="-2" y="-177"/>
      <point x="-19" y="-193" type="curve"/>
      <point x="5" y="-190" type="line"/>
      <point x="-21" y="-156" type="line" smooth="yes"/>
      <point x="-41" y="-128"/>
      <point x="-63" y="-110"/>
      <point x="-92" y="-110" type="curve" smooth="yes"/>
      <point x="-121" y="-110"/>
      <point x="-139" y="-129"/>
      <point x="-143" y="-156" type="curve"/>
      <point x="-126" y="-202"/>
      <point x="-84" y="-222"/>
      <point x="-34" y="-222" type="curve" smooth="yes"/>
      <point x="1" y="-222"/>
      <point x="46" y="-205"/>
      <point x="84" y="-167" type="curve" smooth="yes"/>
      <point x="130" y="-121"/>
      <point x="156" y="-53"/>
      <point x="173" y="39" type="curve" smooth="yes"/>
      <point x="198" y="171"/>
      <point x="218" y="317"/>
      <point x="241" y="457" type="curve" smooth="yes"/>
      <point x="261" y="586"/>
      <point x="302" y="649"/>
      <point x="375" y="649" type="curve" smooth="yes"/>
      <point x="412" y="649"/>
      <point x="437" y="623"/>
      <point x="437" y="579" type="curve" smooth="yes"/>
      <point x="437" y="538"/>
      <point x="422" y="506"/>
      <point x="376" y="463" type="curve" smooth="yes"/>
      <point x="322" y="413"/>
      <point x="281" y="371"/>
      <point x="281" y="312" type="curve" smooth="yes"/>
      <point x="281" y="258"/>
      <point x="307" y="219"/>
      <point x="354" y="180" type="curve" smooth="yes"/>
      <point x="399" y="144"/>
      <point x="413" y="121"/>
      <point x="413" y="92" type="curve" smooth="yes"/>
      <point x="413" y="51"/>
      <point x="382" y="22"/>
      <point x="332" y="22" type="curve" smooth="yes"/>
      <point x="313" y="22"/>
      <point x="301" y="23"/>
      <point x="282" y="26" type="curve"/>
      <point x="329" y="4" type="line"/>
      <point x="316" y="63" type="line" smooth="yes"/>
      <point x="309" y="97"/>
      <point x="290" y="112"/>
      <point x="264" y="112" type="curve" smooth="yes"/>
      <point x="240" y="112"/>
      <point x="225" y="98"/>
      <point x="219" y="74" type="curve"/>
      <point x="230" y="15"/>
      <point x="270" y="-12"/>
      <point x="345" y="-12" type="curve" smooth="yes"/>
      <point x="443" y="-12"/>
      <point x="508" y="45"/>
      <point x="508" y="119" type="curve" smooth="yes"/>
      <point x="508" y="176"/>
      <point x="487" y="207"/>
      <point x="434" y="252" type="curve" smooth="yes"/>
      <point x="389" y="291"/>
      <point x="366" y="322"/>
      <point x="366" y="364" type="curve" smooth="yes"/>
      <point x="366" y="398"/>
      <point x="384" y="423"/>
      <point x="418" y="446" type="curve" smooth="yes"/>
      <point x="483" y="486"/>
      <point x="530" y="521"/>
      <point x="530" y="584" type="curve" smooth="yes"/>
      <point x="530" y="645"/>
      <point x="479" y="682"/>
      <point x="379" y="681" type="curve" smooth="yes"/>
      <point x="256" y="681"/>
      <point x="158" y="609"/>
      <point x="131" y="426" type="curve" smooth="yes"/>
      <point x="111" y="293"/>
      <point x="93" y="167"/>
    </contour>
  </outline>
</glyph>
<glyph name="adieresis" format="2">
  <advance width="507"/>
  <unicode hex="00E4"/>
  <anchor x="376" y="664" name="aboveLC"/>
  <anchor x="232" y="-20" name="belowLC"/>
  <anchor x="401" y="0" name="ogonek"/>
  <outline>
    <contour>
      <point x="136" y="-12" type="curve" smooth="yes"/>
      <point x="198" y="-12"/>
      <point x="276" y="49"/>
      <point x="333" y="131" type="curve"/>
      <point x="327" y="157" type="line"/>
      <point x="276" y="97"/>
      <point x="237" y="69"/>
      <point x="205" y="69" type="curve" smooth="yes"/>
      <point x="172" y="69"/>
      <point x="152" y="94"/>
      <point x="152" y="151" type="curve" smooth="yes"/>
      <point x="152" y="222"/>
      <point x="184" y="308"/>
      <point x="227" y="350" type="curve" smooth="yes"/>
      <point x="253" y="376"/>
      <point x="281" y="389"/>
      <point x="305" y="389" type="curve" smooth="yes"/>
      <point x="333" y="389"/>
      <point x="359" y="375"/>
      <point x="381" y="358" type="curve"/>
      <point x="434" y="396" type="line"/>
      <point x="408" y="431"/>
      <point x="380" y="455"/>
      <point x="343" y="455" type="curve" smooth="yes"/>
      <point x="214" y="455"/>
      <point x="42" y="270"/>
      <point x="42" y="107" type="curve" smooth="yes"/>
      <point x="42" y="20"/>
      <point x="87" y="-12"/>
    </contour>
    <contour>
      <point x="360" y="-12" type="curve" smooth="yes"/>
      <point x="426" y="-12"/>
      <point x="486" y="49"/>
      <point x="521" y="105" type="curve"/>
      <point x="495" y="124" type="line"/>
      <point x="465" y="86"/>
      <point x="439" y="62"/>
      <point x="420" y="62" type="curve" smooth="yes"/>
      <point x="409" y="62"/>
      <point x="402" y="69"/>
      <point x="402" y="82" type="curve" smooth="yes"/>
      <point x="402" y="92"/>
      <point x="404" y="107"/>
      <point x="409" y="126" type="curve" smooth="yes"/>
      <point x="483" y="448" type="line"/>
      <point x="467" y="460" type="line"/>
      <point x="362" y="402" type="line"/>
      <point x="304" y="133" type="line" smooth="yes"/>
      <point x="298" y="104"/>
      <point x="295" y="83"/>
      <point x="295" y="58" type="curve" smooth="yes"/>
      <point x="295" y="10"/>
      <point x="322" y="-12"/>
    </contour>
    <contour>
      <point x="260" y="556" type="curve" smooth="yes"/>
      <point x="293" y="556"/>
      <point x="324" y="582"/>
      <point x="324" y="623" type="curve" smooth="yes"/>
      <point x="324" y="654"/>
      <point x="300" y="674"/>
      <point x="271" y="674" type="curve" smooth="yes"/>
      <point x="239" y="674"/>
      <point x="207" y="649"/>
      <point x="207" y="609" type="curve" smooth="yes"/>
      <point x="207" y="575"/>
      <point x="231" y="556"/>
    </contour>
    <contour>
      <point x="455" y="556" type="curve" smooth="yes"/>
      <point x="488" y="556"/>
      <point x="519" y="582"/>
      <point x="519" y="623" type="curve" smooth="yes"/>
      <point x="519" y="654"/>
      <point x="495" y="674"/>
      <point x="466" y="674" type="curve" smooth="yes"/>
      <point x="434" y="674"/>
      <point x="402" y="649"/>
      <point x="402" y="609" type="curve" smooth="yes"/>
      <point x="402" y="575"/>
      <point x="426" y="556"/>
    </contour>
  </outline>
</glyph>
<glyph name="ccedilla" format="2">
  <advance width="410"/>
  <unicode hex="00E7"/>
  <anchor x="314" y="471" name="aboveLC"/>
  <anchor x="180" y="0" name="baseLC"/>
  <anchor x="185" y="-20" name="belowLC"/>
  <outline>
    <contour>
      <point x="198" y="-12" type="curve" smooth="yes"/>
      <point x="282" y="-12"/>
      <point x="356" y="48"/>
      <point x="394" y="119" type="curve"/>
      <point x="370" y="138" type="line"/>
      <point x="339" y="98"/>
      <point x="298" y="70"/>
      <point x="254" y="70" type="curve" smooth="yes"/>
      <point x="195" y="70"/>
      <point x="155" y="105"/>
      <point x="155" y="181" type="curve" smooth="yes"/>
      <point x="155" y="287"/>
      <point x="215" y="394"/>
      <point x="310" y="425" type="curve"/>
      <point x="266" y="431" type="line"/>
      <point x="307" y="369" type="line" smooth="yes"/>
      <point x="322" y="346"/>
      <point x="340" y="326"/>
      <point x="368" y="326" type="curve"/>
      <point x="396" y="326"/>
      <point x="420" y="345"/>
      <point x="422" y="376" type="curve"/>
      <point x="409" y="424"/>
      <point x="368" y="455"/>
      <point x="305" y="455" type="curve" smooth="yes"/>
      <point x="165" y="455"/>
      <point x="46" y="317"/>
      <point x="46" y="160" type="curve" smooth="yes"/>
      <point x="46" y="49"/>
      <point x="109" y="-12"/>
    </contour>
    <contour>
      <point x="145" y="-81" type="line"/>
      <point x="185" y="-90"/>
      <point x="209" y="-104"/>
      <point x="209" y="-134" type="curve" smooth="yes"/>
      <point x="209" y="-159"/>
      <point x="190" y="-173"/>
      <point x="160" y="-173" type="curve" smooth="yes"/>
      <point x="140" y="-173"/>
      <point x="122" y="-169"/>
      <point x="103" y="-161" type="curve"/>
      <point x="89" y="-191" type="line"/>
      <point x="108" y="-203"/>
      <point x="139" y="-212"/>
      <point x="173" y="-212" type="curve" smooth="yes"/>
      <point x="239" y="-212"/>
      <point x="275" y="-179"/>
      <point x="275" y="-139" type="curve" smooth="yes"/>
      <point x="275" y="-96"/>
      <point x="244" y="-74"/>
      <point x="174" y="-54" type="curve"/>
      <point x="184" y="-75" type="line"/>
      <point x="219" y="0" type="line"/>
      <point x="185" y="0" type="line"/>
    </contour>
  </outline>
</glyph>
<glyph name="eacute" format="2">
  <advance width="411"/>
  <unicode hex="00E9"/>
  <anchor x="355" y="712" name="aboveLC"/>
  <anchor x="197" y="-20" name="belowLC"/>
  <anchor x="249" y="0" name="ogonek"/>
  <outline>
    <contour>
      <point x="199" y="-12" type="curve" smooth="yes"/>
      <point x="287" y="-12"/>
      <point x="356" y="51"/>
      <point x="394" y="119" type="curve"/>
      <point x="369" y="138" type="line"/>
      <point x="342" y="103"/>
      <point x="300" y="70"/>
      <point x="245" y="70" type="curve" smooth="yes"/>
      <point x="187" y="70"/>
      <point x="152" y="106"/>
      <point x="152" y="187" type="curve" smooth="yes"/>
      <point x="152" y="304"/>
      <point x="236" y="408"/>
      <point x="291" y="408" type="curve" smooth="yes"/>
      <point x="315" y="408"/>
      <point x="332" y="391"/>
      <point x="332" y="359" type="curve" smooth="yes"/>
      <point x="332" y="304"/>
      <point x="278" y="232"/>
      <point x="108" y="189" type="curve"/>
      <point x="111" y="154" type="line"/>
      <point x="333" y="205"/>
      <point x="422" y="285"/>
      <point x="422" y="360" type="curve" smooth="yes"/>
      <point x="422" y="418"/>
      <point x="381" y="455"/>
      <point x="308" y="455" type="curve" smooth="yes"/>
      <point x="161" y="455"/>
      <point x="46" y="314"/>
      <point x="46" y="159" type="curve" smooth="yes"/>
      <point x="46" y="47"/>
      <point x="109" y="-12"/>
    </contour>
    <contour>
      <point x="296" y="509" type="curve"/>
      <point x="322" y="493" type="line"/>
      <point x="356" y="529"/>
      <point x="391" y="564"/>
      <point x="425" y="600" type="curve" smooth="yes"/>
      <point x="448" y="624"/>
      <point x="460" y="644"/>
      <point x="460" y="667" type="curve" smooth="yes"/>
      <point x="460" y="695"/>
      <point x="437" y="712"/>
      <point x="412" y="712" type="curve" smooth="yes"/>
      <point x="387" y="712"/>
      <point x="367" y="698"/>
      <point x="351" y="655" type="curve" smooth="yes"/>
      <point x="333" y="607"/>
      <point x="314" y="558"/>
    </contour>
  </outline>
</glyph>
<glyph name="ecircumflex" format="2">
  <advance width="411"/>
  <unicode hex="00EA"/>
  <anchor x="336" y="689" name="aboveLC"/>
  <anchor x="197" y="-20" name="belowLC"/>
  <anchor x="249" y="0" name="ogonek"/>
  <outline>
    <contour>
      <point x="199" y="-12" type="curve" smooth="yes"/>
      <point x="287" y="-12"/>
      <point x="356" y="51"/>
      <point x="394" y="119" type="curve"/>
      <point x="369" y="138" type="line"/>
      <point x="342" y="103"/>
      <point x="300" y="70"/>
      <point x="245" y="70" type="curve" smooth="yes"/>
      <point x="187" y="70"/>
      <point x="152" y="106"/>
      <point x="152" y="187" type="curve" smooth="yes"/>
      <point x="152" y="304"/>
      <point x="236" y="408"/>
      <point x="291" y="408" type="curve" smooth="yes"/>
      <point x="315" y="408"/>
      <point x="332" y="391"/>
      <point x="332" y="359" type="curve" smooth="yes"/>
      <point x="332" y="304"/>
      <point x="278" y="232"/>
      <point x="108" y="189" type="curve"/>
      <point x="111" y="154" type="line"/>
      <point x="333" y="205"/>
      <point x="422" y="285"/>
      <point x="422" y="360" type="curve" smooth="yes"/>
      <point x="422" y="418"/>
      <point x="381" y="455"/>
      <point x="308" y="455" type="curve" smooth="yes"/>
      <point x="161" y="455"/>
      <point x="46" y="314"/>
      <point x="46" y="159" type="curve" smooth="yes"/>
      <point x="46" y="47"/>
      <point x="109" y="-12"/>
    </contour>
    <contour>
      <point x="423" y="501" type="line"/>
      <point x="451" y="523" type="line"/>
      <point x="356" y="689" type="line"/>
      <point x="309" y="689" type="line"/>
      <point x="160" y="527" type="line"/>
      <point x="184" y="500" type="line"/>
      <point x="356" y="634" type="line"/>
      <point x="290" y="634" type="line"/>
    </contour>
  </outline>
</glyph>
<glyph name="icircumflex" format="2">
  <advance width="288"/>
  <unicode hex="00EE"/>
  <anchor x="243" y="689" name="aboveLC"/>
  <anchor x="133" y="-20" name="belowLC"/>
  <anchor x="175" y="0" name="ogonek"/>
  <outline>
    <contour>
      <point x="69" y="42" type="curve" smooth="yes"/>
      <point x="69" y="6"/>
      <point x="96" y="-12"/>
      <point x="132" y="-12" type="curve" smooth="yes"/>
      <point x="207" y="-12"/>
      <point x="261" y="46"/>
      <point x="299" y="104" type="curve"/>
      <point x="273" y="123" type="line"/>
      <point x="241" y="82"/>
      <point x="217" y="62"/>
      <point x="199" y="62" type="curve" smooth="yes"/>
      <point x="190" y="62"/>
      <point x="182" y="69"/>
      <point x="182" y="82" type="curve" smooth="yes"/>
      <point x="182" y="92"/>
      <point x="184" y="107"/>
      <point x="189" y="126" type="curve" smooth="yes"/>
      <point x="257" y="444" type="line"/>
      <point x="242" y="455" type="line"/>
      <point x="62" y="405" type="line"/>
      <point x="57" y="373" type="line"/>
      <point x="154" y="360" type="line"/>
      <point x="135" y="381" type="line"/>
      <point x="81" y="124" type="line" smooth="yes"/>
      <point x="75" y="92"/>
      <point x="69" y="63"/>
    </contour>
    <contour>
      <point x="329" y="501" type="line"/>
      <point x="357" y="523" type="line"/>
      <point x="264" y="689" type="line"/>
      <point x="215" y="689" type="line"/>
      <point x="67" y="527" type="line"/>
      <point x="90" y="500" type="line"/>
      <point x="263" y="634" type="line"/>
      <point x="197" y="634" type="line"/>
    </contour>
  </outline>
</glyph>
<glyph name="eth" format="2">
  <advance width="470"/>
  <unicode hex="00F0"/>
  <outline>
    <contour>
      <point x="215" y="-12" type="curve" smooth="yes"/>
      <point x="355" y="-12"/>
      <point x="465" y="115"/>
      <point x="465" y="305" type="curve" smooth="yes"/>
      <point x="465" y="486"/>
      <point x="371" y="621"/>
      <point x="217" y="681" type="curve"/>
      <point x="193" y="644" type="line"/>
      <point x="313" y="577"/>
      <point x="357" y="486"/>
      <point x="371" y="338" type="curve"/>
      <point x="398" y="360" type="line"/>
      <point x="379" y="415"/>
      <point x="346" y="446"/>
      <point x="289" y="446" type="curve" smooth="yes"/>
      <point x="158" y="446"/>
      <point x="45" y="323"/>
      <point x="45" y="161" type="curve" smooth="yes"/>
      <point x="45" y="45"/>
      <point x="116" y="-12"/>
    </contour>
    <contour>
      <point x="225" y="32" type="curve" smooth="yes"/>
      <point x="184" y="32"/>
      <point x="157" y="63"/>
      <point x="157" y="151" type="curve" smooth="yes"/>
      <point x="157" y="287"/>
      <point x="217" y="400"/>
      <point x="293" y="400" type="curve" smooth="yes"/>
      <point x="333" y="400"/>
      <point x="359" y="375"/>
      <point x="359" y="300" type="curve" smooth="yes"/>
      <point x="359" y="157"/>
      <point x="300" y="32"/>
    </contour>
    <contour>
      <point x="190" y="486" type="line"/>
      <point x="467" y="626" type="line"/>
      <point x="447" y="667" type="line"/>
      <point x="172" y="524" type="line"/>
    </contour>
  </outline>
</glyph>
<glyph name="ntilde" format="2">
  <advance width="534"/>
  <unicode hex="00F1"/>
  <anchor x="364" y="674" name="aboveLC"/>
  <anchor x="234" y="-15" name="belowLC"/>
  <outline>
    <contour>
      <point x="313" y="38" type="curve" smooth="yes"/>
      <point x="313" y="6"/>
      <point x="335" y="-12"/>
      <point x="373" y="-12" type="curve" smooth="yes"/>
      <point x="447" y="-12"/>
      <point x="508" y="46"/>
      <point x="544" y="104" type="curve"/>
      <point x="518" y="123" type="line"/>
      <point x="488" y="84"/>
      <point x="461" y="62"/>
      <point x="443" y="62" type="curve" smooth="yes"/>
      <point x="433" y="62"/>
      <point x="426" y="69"/>
      <point x="426" y="81" type="curve" smooth="yes"/>
      <point x="426" y="91"/>
      <point x="431" y="105"/>
      <point x="437" y="126" type="curve" smooth="yes"/>
      <point x="479" y="299" type="line" smooth="yes"/>
      <point x="486" y="328"/>
      <point x="492" y="356"/>
      <point x="492" y="382" type="curve" smooth="yes"/>
      <point x="492" y="431"/>
      <point x="465" y="455"/>
      <point x="425" y="455" type="curve" smooth="yes"/>
      <point x="362" y="455"/>
      <point x="284" y="405"/>
      <point x="218" y="334" type="curve"/>
      <point x="216" y="296" type="line"/>
      <point x="273" y="348"/>
      <point x="320" y="372"/>
      <point x="350" y="372" type="curve" smooth="yes"/>
      <point x="367" y="372"/>
      <point x="378" y="363"/>
      <point x="378" y="339" type="curve" smooth="yes"/>
      <point x="378" y="322"/>
      <point x="372" y="295"/>
      <point x="365" y="265" type="curve" smooth="yes"/>
      <point x="328" y="119" type="line" smooth="yes"/>
      <point x="321" y="88"/>
      <point x="313" y="63"/>
    </contour>
    <contour>
      <point x="165" y="0" type="line"/>
      <point x="177" y="66"/>
      <point x="189" y="130"/>
      <point x="203" y="195" type="curve" smooth="yes"/>
      <point x="231" y="328" type="line"/>
      <point x="254" y="443" type="line"/>
      <point x="239" y="455" type="line"/>
      <point x="62" y="405" type="line"/>
      <point x="57" y="373" type="line"/>
      <point x="172" y="359" type="line"/>
      <point x="135" y="380" type="line"/>
      <point x="55" y="1" type="line"/>
      <point x="67" y="-7" type="line"/>
    </contour>
    <contour>
      <point x="178" y="540" type="curve"/>
      <point x="209" y="527" type="line"/>
      <point x="223" y="572"/>
      <point x="246" y="595"/>
      <point x="271" y="595" type="curve" smooth="yes"/>
      <point x="299" y="595"/>
      <point x="316" y="575"/>
      <point x="334" y="556" type="curve" smooth="yes"/>
      <point x="350" y="541"/>
      <point x="371" y="527"/>
      <point x="404" y="527" type="curve" smooth="yes"/>
      <point x="454" y="527"/>
      <point x="494" y="563"/>
      <point x="516" y="651" type="curve"/>
      <point x="484" y="664" type="line"/>
      <point x="469" y="619"/>
      <point x="447" y="597"/>
      <point x="423" y="597" type="curve" smooth="yes"/>
      <point x="397" y="597"/>
      <point x="380" y="616"/>
      <point x="362" y="633" type="curve" smooth="yes"/>
      <point x="345" y="649"/>
      <point x="326" y="664"/>
      <point x="289" y="664" type="curve" smooth="yes"/>
      <point x="242" y="664"/>
      <point x="198" y="623"/>
    </contour>
  </outline>
</glyph>
<glyph name="oslash" format="2">
  <advance width="474"/>
  <unicode hex="00F8"/>
  <anchor x="307" y="471" name="aboveLC"/>
  <outline>
    <contour>
      <point x="504" y="440" type="line"/>
      <point x="472" y="471" type="line"/>
      <point x="1" y="3" type="line"/>
      <point x="34" y="-26" type="line"/>
    </contour>
    <contour>
      <point x="214" y="-12" type="curve" smooth="yes"/>
      <point x="358" y="-12"/>
      <point x="470" y="128"/>
      <point x="470" y="284" type="curve" smooth="yes"/>
      <point x="470" y="399"/>
      <point x="399" y="455"/>
      <point x="303" y="455" type="curve" smooth="yes"/>
      <point x="159" y="455"/>
      <point x="45" y="315"/>
      <point x="45" y="157" type="curve" smooth="yes"/>
      <point x="45" y="42"/>
      <point x="120" y="-12"/>
    </contour>
    <contour>
      <point x="225" y="32" type="curve" smooth="yes"/>
      <point x="183" y="32"/>
      <point x="151" y="56"/>
      <point x="151" y="146" type="curve" smooth="yes"/>
      <point x="151" y="275"/>
      <point x="210" y="409"/>
      <point x="292" y="409" type="curve" smooth="yes"/>
      <point x="334" y="409"/>
      <point x="364" y="385"/>
      <point x="364" y="297" type="curve" smooth="yes"/>
      <point x="364" y="170"/>
      <point x="308" y="32"/>
    </contour>
  </outline>
</glyph>
<glyph name="thorn" format="2">
  <advance width="487"/>
  <unicode hex="00FE"/>
  <anchor x="239" y="667" name="aboveLC"/>
  <anchor x="320" y="-11" name="belowLC"/>
  <outline>
    <contour>
      <point x="2" y="-213" type="line"/>
      <point x="109" y="-213" type="line"/>
      <point x="122" y="-137"/>
      <point x="137" y="-64"/>
      <point x="153" y="16" type="curve"/>
      <point x="161" y="31" type="line"/>
      <point x="222" y="323" type="line"/>
      <point x="223" y="335" type="line"/>
      <point x="291" y="658" type="line"/>
      <point x="278" y="668" type="line"/>
      <point x="98" y="619" type="line"/>
      <point x="92" y="586" type="line"/>
      <point x="206" y="572" type="line"/>
      <point x="169" y="597" type="line"/>
      <point x="160" y="534"/>
      <point x="146" y="471"/>
      <point x="130" y="392" type="curve" smooth="yes"/>
    </contour>
    <contour>
      <point x="104" y="33" type="line"/>
      <point x="133" y="0"/>
      <point x="161" y="-12"/>
      <point x="198" y="-12" type="curve" smooth="yes"/>
      <point x="335" y="-12"/>
      <point x="491" y="167"/>
      <point x="491" y="333" type="curve" smooth="yes"/>
      <point x="491" y="425"/>
      <point x="449" y="455"/>
      <point x="400" y="455" type="curve" smooth="yes"/>
      <point x="335" y="455"/>
      <point x="248" y="395"/>
      <point x="194" y="305" type="curve"/>
      <point x="201" y="289" type="line"/>
      <point x="246" y="339"/>
      <point x="293" y="372"/>
      <point x="328" y="372" type="curve" smooth="yes"/>
      <point x="363" y="372"/>
      <point x="382" y="348"/>
      <point x="382" y="291" type="curve" smooth="yes"/>
      <point x="382" y="233"/>
      <point x="361" y="163"/>
      <point x="331" y="119" type="curve" smooth="yes"/>
      <point x="300" y="74"/>
      <point x="267" y="52"/>
      <point x="229" y="52" type="curve" smooth="yes"/>
      <point x="197" y="52"/>
      <point x="169" y="73"/>
      <point x="142" y="109" type="curve"/>
    </contour>
    <contour>
      <point x="56" y="-161" type="line"/>
      <point x="-50" y="-179" type="line"/>
      <point x="-57" y="-213" type="line"/>
      <point x="189" y="-213" type="line"/>
      <point x="196" y="-179" type="line"/>
      <point x="86" y="-161" type="line"/>
    </contour>
  </outline>
</glyph>
<glyph name="dotlessi" format="2">
  <advance width="288"/>
  <unicode hex="0131"/>
  <anchor x="202" y="471" name="aboveLC"/>
  <anchor x="133" y="-20" name="belowLC"/>
  <anchor x="175" y="0" name="ogonek"/>
  <outline>
    <contour>
      <point x="69" y="42" type="curve" smooth="yes"/>
      <point x="69" y="6"/>
      <point x="96" y="-12"/>
      <point x="132" y="-12" type="curve" smooth="yes"/>
      <point x="207" y="-12"/>
      <point x="261" y="46"/>
      <point x="299" y="104" type="curve"/>
      <point x="273" y="123" type="line"/>
      <point x="241" y="82"/>
      <point x="217" y="62"/>
      <point x="199" y="62" type="curve" smooth="yes"/>
      <point x="190" y="62"/>
      <point x="182" y="69"/>
      <point x="182" y="82" type="curve" smooth="yes"/>
      <point x="182" y="92"/>
      <point x="184" y="107"/>
      <point x="189" y="126" type="curve" smooth="yes"/>
      <point x="257" y="444" type="line"/>
      <point x="242" y="455" type="line"/>
      <point x="62" y="405" type="line"/>
      <point x="57" y="373" type="line"/>
      <point x="154" y="360" type="line"/>
      <point x="135" y="381" type="line"/>
      <point x="81" y="124" type="line" smooth="yes"/>
      <point x="75" y="92"/>
      <point x="69" y="63"/>
    </contour>
  </outline>
</glyph>
<glyph name="OE" format="2">
  <advance width="816"/>
  <unicode hex="0152"/>
  <anchor x="534" y="632" name="aboveUC"/>
  <outline>
    <contour>
      <point x="413" y="0" type="curve"/>
      <point x="417" y="50" type="line"/>
      <point x="385" y="39"/>
      <point x="349" y="34"/>
      <point x="322" y="34" type="curve" smooth="yes"/>
      <point x="234" y="34"/>
      <point x="170" y="101"/>
      <point x="170" y="230" type="curve" smooth="yes"/>
      <point x="170" y="426"/>
      <point x="275" y="575"/>
      <point x="417" y="575" type="curve" smooth="yes"/>
      <point x="456" y="575"/>
      <point x="483" y="567"/>
      <point x="517" y="557" type="curve"/>
      <point x="529" y="609" type="line"/>
      <point x="489" y="619"/>
      <point x="456" y="624"/>
      <point x="417" y="624" type="curve" smooth="yes"/>
      <point x="199" y="624"/>
      <point x="49" y="440"/>
      <point x="49" y="241" type="curve" smooth="yes"/>
      <point x="49" y="67"/>
      <point x="154" y="-15"/>
      <point x="303" y="-15" type="curve" smooth="yes"/>
      <point x="346" y="-15"/>
      <point x="376" y="-10"/>
    </contour>
    <contour>
      <point x="354" y="0" type="line"/>
      <point x="473" y="0" type="line"/>
      <point x="488" y="94"/>
      <point x="506" y="190"/>
      <point x="523" y="285" type="curve" smooth="yes"/>
      <point x="585" y="609" type="line"/>
      <point x="464" y="609" type="line"/>
      <point x="449" y="514"/>
      <point x="433" y="418"/>
      <point x="415" y="323" type="curve" smooth="yes"/>
    </contour>
    <contour>
      <point x="411" y="0" type="line"/>
      <point x="751" y="0" type="line"/>
      <point x="788" y="160" type="line"/>
      <point x="724" y="160" type="line"/>
      <point x="667" y="0" type="line"/>
      <point x="734" y="49" type="line"/>
      <point x="421" y="49" type="line"/>
    </contour>
    <contour>
      <point x="466" y="287" type="line"/>
      <point x="667" y="287" type="line"/>
      <point x="676" y="336" type="line"/>
      <point x="476" y="336" type="line"/>
    </contour>
    <contour>
      <point x="515" y="558" type="line"/>
      <point x="789" y="558" type="line"/>
      <point x="745" y="609" type="line"/>
      <point x="742" y="448" type="line"/>
      <point x="805" y="448" type="line"/>
      <point x="828" y="609" type="line"/>
      <point x="525" y="609" type="line"/>
    </contour>
    <contour>
      <point x="639" y="206" type="line"/>
      <point x="686" y="206" type="line"/>
      <point x="724" y="415" type="line"/>
      <point x="678" y="415" type="line"/>
      <point x="646" y="324" type="line"/>
      <point x="643" y="307" type="line"/>
    </contour>
  </outline>
</glyph>
<glyph name="oe" format="2">
  <advance width="713"/>
  <unicode hex="0153"/>
  <anchor x="449" y="471" name="aboveLC"/>
  <anchor x="499" y="-20" name="belowLC"/>
  <anchor x="552" y="0" name="ogonek"/>
  <outline>
    <contour>
      <point x="211" y="-12" type="curve" smooth="yes"/>
      <point x="292" y="-12"/>
      <point x="362" y="36"/>
      <point x="406" y="113" type="curve"/>
      <point x="458" y="339" type="line"/>
      <point x="434" y="415"/>
      <point x="377" y="455"/>
      <point x="303" y="455" type="curve" smooth="yes"/>
      <point x="159" y="455"/>
      <point x="45" y="315"/>
      <point x="45" y="157" type="curve" smooth="yes"/>
      <point x="45" y="42"/>
      <point x="120" y="-12"/>
    </contour>
    <contour>
      <point x="225" y="32" type="curve" smooth="yes"/>
      <point x="186" y="32"/>
      <point x="157" y="60"/>
      <point x="157" y="146" type="curve" smooth="yes"/>
      <point x="157" y="275"/>
      <point x="214" y="409"/>
      <point x="292" y="409" type="curve" smooth="yes"/>
      <point x="331" y="409"/>
      <point x="358" y="380"/>
      <point x="358" y="297" type="curve" smooth="yes"/>
      <point x="358" y="170"/>
      <point x="304" y="32"/>
    </contour>
    <contour>
      <point x="502" y="-12" type="curve" smooth="yes"/>
      <point x="590" y="-12"/>
      <point x="658" y="51"/>
      <point x="696" y="119" type="curve"/>
      <point x="672" y="138" type="line"/>
      <point x="645" y="103"/>
      <point x="603" y="70"/>
      <point x="548" y="70" type="curve" smooth="yes"/>
      <point x="490" y="70"/>
      <point x="455" y="106"/>
      <point x="455" y="187" type="curve" smooth="yes"/>
      <point x="455" y="304"/>
      <point x="539" y="408"/>
      <point x="594" y="408" type="curve" smooth="yes"/>
      <point x="617" y="408"/>
      <point x="634" y="391"/>
      <point x="634" y="359" type="curve" smooth="yes"/>
      <point x="634" y="304"/>
      <point x="580" y="232"/>
      <point x="410" y="189" type="curve"/>
      <point x="414" y="154" type="line"/>
      <point x="636" y="205"/>
      <point x="724" y="285"/>
      <point x="724" y="360" type="curve" smooth="yes"/>
      <point x="724" y="418"/>
      <point x="684" y="455"/>
      <point x="610" y="455" type="curve" smooth="yes"/>
      <point x="464" y="455"/>
      <point x="349" y="314"/>
      <point x="349" y="159" type="curve" smooth="yes"/>
      <point x="349" y="47"/>
      <point x="412" y="-12"/>
    </contour>
  </outline>
</glyph>
<glyph name="Ydieresis" format="2">
  <advance width="521"/>
  <unicode hex="0178"/>
  <anchor x="413" y="790" name="aboveUC"/>
  <anchor x="233" y="-20" name="belowLC"/>
  <outline>
    <contour>
      <point x="56" y="563" type="line"/>
      <point x="180" y="550" type="line"/>
      <point x="211" y="550" type="line"/>
      <point x="325" y="563" type="line"/>
      <point x="333" y="609" type="line"/>
      <point x="65" y="609" type="line"/>
    </contour>
    <contour>
      <point x="94" y="0" type="line"/>
      <point x="381" y="0" type="line"/>
      <point x="391" y="45" type="line"/>
      <point x="264" y="58" type="line"/>
      <point x="233" y="58" type="line"/>
      <point x="103" y="45" type="line"/>
    </contour>
    <contour>
      <point x="236" y="213" type="line"/>
      <point x="312" y="213" type="line"/>
      <point x="575" y="609" type="line"/>
      <point x="519" y="609" type="line"/>
      <point x="314" y="289" type="line"/>
      <point x="332" y="284" type="line"/>
      <point x="235" y="609" type="line"/>
      <point x="103" y="609" type="line"/>
    </contour>
    <contour>
      <point x="177" y="0" type="line"/>
      <point x="297" y="0" type="line"/>
      <point x="312" y="94"/>
      <point x="329" y="191"/>
      <point x="346" y="286" type="curve"/>
      <point x="231" y="286" type="line"/>
    </contour>
    <contour>
      <point x="415" y="563" type="line"/>
      <point x="503" y="550" type="line"/>
      <point x="522" y="550" type="line"/>
      <point x="609" y="563" type="line"/>
      <point x="619" y="609" type="line"/>
      <point x="425" y="609" type="line"/>
    </contour>
    <contour>
      <point x="286" y="668" type="curve" smooth="yes"/>
      <point x="316" y="668"/>
      <point x="345" y="693"/>
      <point x="345" y="733" type="curve" smooth="yes"/>
      <point x="345" y="760"/>
      <point x="324" y="781"/>
      <point x="295" y="781" type="curve" smooth="yes"/>
      <point x="265" y="781"/>
      <point x="233" y="758"/>
      <point x="233" y="718" type="curve" smooth="yes"/>
      <point x="233" y="687"/>
      <point x="259" y="668"/>
    </contour>
    <contour>
      <point x="494" y="668" type="curve" smooth="yes"/>
      <point x="526" y="668"/>
      <point x="555" y="693"/>
      <point x="555" y="733" type="curve" smooth="yes"/>
      <point x="555" y="760"/>
      <point x="533" y="781"/>
      <point x="504" y="781" type="curve" smooth="yes"/>
      <point x="475" y="781"/>
      <point x="444" y="758"/>
      <point x="444" y="718" type="curve" smooth="yes"/>
      <point x="444" y="687"/>
      <point x="469" y="668"/>
    </contour>
  </outline>
</glyph>
<glyph name="Zcaron" format="2">
  <advance width="498"/>
  <unicode hex="017D"/>
  <anchor x="373" y="801" name="aboveUC"/>
  <anchor x="232" y="-20" name="belowLC"/>
  <outline>
    <contour>
      <point x="-3" y="0" type="line"/>
      <point x="104" y="0" type="line"/>
      <point x="540" y="570" type="line"/>
      <point x="547" y="609" type="line"/>
      <point x="438" y="609" type="line"/>
      <point x="4" y="38" type="line"/>
    </contour>
    <contour>
      <point x="71" y="440" type="line"/>
      <point x="136" y="440" type="line"/>
      <point x="198" y="609" type="line"/>
      <point x="128" y="558" type="line"/>
      <point x="483" y="558" type="line"/>
      <point x="494" y="609" type="line"/>
      <point x="106" y="609" type="line"/>
    </contour>
    <contour>
      <point x="54" y="0" type="line"/>
      <point x="449" y="0" type="line"/>
      <point x="486" y="168" type="line"/>
      <point x="419" y="168" type="line"/>
      <point x="357" y="0" type="line"/>
      <point x="429" y="50" type="line"/>
      <point x="64" y="50" type="line"/>
    </contour>
    <contour>
      <point x="244" y="809" type="line"/>
      <point x="216" y="787" type="line"/>
      <point x="314" y="656" type="line"/>
      <point x="379" y="656" type="line"/>
      <point x="510" y="786" type="line"/>
      <point x="490" y="810" type="line"/>
      <point x="317" y="696" type="line"/>
      <point x="386" y="696" type="line"/>
    </contour>
  </outline>
</glyph>
<glyph name="circumflex" format="2">
  <advance width="309"/>
  <unicode hex="02C6"/>
  <anchor x="214" y="471" name="_aboveLC"/>
  <anchor x="261" y="689" name="aboveLC"/>
  <outline>
    <contour>
      <point x="346" y="501" type="line"/>
      <point x="375" y="523" type="line"/>
      <point x="280" y="689" type="line"/>
      <point x="232" y="689" type="line"/>
      <point x="84" y="527" type="line"/>
      <point x="107" y="500" type="line"/>
      <point x="279" y="634" type="line"/>
      <point x="215" y="634" type="line"/>
    </contour>
  </outline>
</glyph>
<glyph name="caron" format="2">
  <advance width="368"/>
  <unicode hex="02C7"/>
  <anchor x="239" y="471" name="_aboveLC"/>
  <anchor x="286" y="691" name="aboveLC"/>
  <outline>
    <contour>
      <point x="168" y="700" type="line"/>
      <point x="137" y="679" type="line"/>
      <point x="220" y="511" type="line"/>
      <point x="274" y="511" type="line"/>
      <point x="418" y="676" type="line"/>
      <point x="393" y="701" type="line"/>
      <point x="226" y="568" type="line"/>
      <point x="284" y="568" type="line"/>
    </contour>
  </outline>
</glyph>
<glyph name="breve" format="2">
  <advance width="368"/>
  <unicode hex="02D8"/>
  <anchor x="241" y="468" name="_aboveLC"/>
  <anchor x="286" y="674" name="aboveLC"/>
  <outline>
    <contour>
      <point x="253" y="521" type="curve" smooth="yes"/>
      <point x="347" y="521"/>
      <point x="396" y="598"/>
      <point x="414" y="662" type="curve"/>
      <point x="379" y="674" type="line"/>
      <point x="354" y="626"/>
      <point x="312" y="596"/>
      <point x="258" y="596" type="curve" smooth="yes"/>
      <point x="205" y="596"/>
      <point x="174" y="628"/>
      <point x="158" y="674" type="curve"/>
      <point x="121" y="660" type="line"/>
      <point x="124" y="586"/>
      <point x="161" y="521"/>
    </contour>
  </outline>
</glyph>
<glyph name="ring" format="2">
  <advance width="368"/>
  <unicode hex="02DA"/>
  <anchor x="242" y="474" name="_aboveLC"/>
  <anchor x="295" y="718" name="aboveLC"/>
  <outline>
    <contour>
      <point x="264" y="506" type="curve" smooth="yes"/>
      <point x="321" y="506"/>
      <point x="378" y="547"/>
      <point x="378" y="621" type="curve" smooth="yes"/>
      <point x="378" y="675"/>
      <point x="333" y="709"/>
      <point x="279" y="709" type="curve" smooth="yes"/>
      <point x="222" y="709"/>
      <point x="165" y="667"/>
      <point x="165" y="597" type="curve" smooth="yes"/>
      <point x="165" y="541"/>
      <point x="207" y="506"/>
    </contour>
    <contour>
      <point x="264" y="549" type="curve" smooth="yes"/>
      <point x="232" y="549"/>
      <point x="216" y="574"/>
      <point x="216" y="600" type="curve" smooth="yes"/>
      <point x="216" y="633"/>
      <point x="240" y="667"/>
      <point x="277" y="667" type="curve" smooth="yes"/>
      <point x="310" y="667"/>
      <point x="326" y="641"/>
      <point x="326" y="615" type="curve" smooth="yes"/>
      <point x="326" y="579"/>
      <point x="299" y="549"/>
    </contour>
  </outline>
</glyph>
<glyph name="ogonek" format="2">
  <advance width="368"/>
  <unicode hex="02DB"/>
  <anchor x="133" y="0" name="_ogonek"/>
  <outline>
    <contour>
      <point x="24" y="-147" type="curve" smooth="yes"/>
      <point x="24" y="-189"/>
      <point x="54" y="-217"/>
      <point x="106" y="-217" type="curve" smooth="yes"/>
      <point x="154" y="-217"/>
      <point x="192" y="-192"/>
      <point x="217" y="-166" type="curve"/>
      <point x="203" y="-144" type="line"/>
      <point x="185" y="-156"/>
      <point x="163" y="-164"/>
      <point x="144" y="-164" type="curve" smooth="yes"/>
      <point x="118" y="-164"/>
      <point x="100" y="-149"/>
      <point x="100" y="-116" type="curve" smooth="yes"/>
      <point x="100" y="-73"/>
      <point x="129" y="-33"/>
      <point x="169" y="11" type="curve"/>
      <point x="137" y="11" type="line"/>
      <point x="78" y="-40"/>
      <point x="24" y="-91"/>
    </contour>
  </outline>
</glyph>
<glyph name="tilde" format="2">
  <advance width="368"/>
  <unicode hex="02DC"/>
  <anchor x="242" y="471" name="_aboveLC"/>
  <anchor x="286" y="674" name="aboveLC"/>
  <outline>
    <contour>
      <point x="100" y="540" type="curve"/>
      <point x="130" y="527" type="line"/>
      <point x="145" y="572"/>
      <point x="167" y="595"/>
      <point x="193" y="595" type="curve" smooth="yes"/>
      <point x="219" y="595"/>
      <point x="238" y="575"/>
      <point x="255" y="556" type="curve" smooth="yes"/>
      <point x="272" y="541"/>
      <point x="293" y="527"/>
      <point x="326" y="527" type="curve" smooth="yes"/>
      <point x="376" y="527"/>
      <point x="416" y="563"/>
      <point x="437" y="651" type="curve"/>
      <point x="406" y="664" type="line"/>
      <point x="391" y="619"/>
      <point x="368" y="597"/>
      <point x="345" y="597" type="curve" smooth="yes"/>
      <point x="319" y="597"/>
      <point x="301" y="616"/>
      <point x="283" y="633" type="curve" smooth="yes"/>
      <point x="265" y="649"/>
      <point x="248" y="664"/>
      <point x="211" y="664" type="curve" smooth="yes"/>
      <point x="164" y="664"/>
      <point x="119" y="623"/>
    </contour>
  </outline>
</glyph>
<glyph name="hungarumlaut" format="2">
  <advance width="368"/>
  <unicode hex="02DD"/>
  <anchor x="213" y="472" name="_aboveLC"/>
  <anchor x="264" y="712" name="aboveLC"/>
  <outline>
    <contour>
      <point x="120" y="531" type="line"/>
      <point x="149" y="509" type="line"/>
      <point x="253" y="609" type="line" smooth="yes"/>
      <point x="280" y="636"/>
      <point x="290" y="656"/>
      <point x="290" y="675" type="curve" smooth="yes"/>
      <point x="290" y="698"/>
      <point x="276" y="712"/>
      <point x="252" y="712" type="curve" smooth="yes"/>
      <point x="231" y="712"/>
      <point x="211" y="697"/>
      <point x="190" y="656" type="curve" smooth="yes"/>
    </contour>
    <contour>
      <point x="265" y="531" type="line"/>
      <point x="295" y="509" type="line"/>
      <point x="398" y="609" type="line" smooth="yes"/>
      <point x="425" y="636"/>
      <point x="436" y="656"/>
      <point x="436" y="675" type="curve" smooth="yes"/>
      <point x="436" y="698"/>
      <point x="420" y="712"/>
      <point x="397" y="712" type="curve" smooth="yes"/>
      <point x="376" y="712"/>
      <point x="356" y="697"/>
      <point x="334" y="656" type="curve" smooth="yes"/>
    </contour>
  </outline>
</glyph>
<glyph name="pi" format="2">
  <advance width="560"/>
  <unicode hex="03C0"/>
  <outline>
    <contour>
      <point x="80" y="-12" type="curve" smooth="yes"/>
      <point x="138" y="-12"/>
      <point x="179" y="32"/>
      <point x="201" y="121" type="curve" smooth="yes"/>
      <point x="218" y="194"/>
      <point x="235" y="264"/>
      <point x="262" y="394" type="curve"/>
      <point x="216" y="395" type="line"/>
      <point x="192" y="288"/>
      <point x="162" y="185"/>
      <point x="130" y="84" type="curve"/>
      <point x="164" y="87" type="line"/>
      <point x="172" y="111" type="line"/>
      <point x="132" y="108"/>
      <point x="90" y="103"/>
      <point x="56" y="95" type="curve"/>
      <point x="35" y="81"/>
      <point x="23" y="63"/>
      <point x="23" y="38" type="curve" smooth="yes"/>
      <point x="23" y="6"/>
      <point x="43" y="-12"/>
    </contour>
    <contour>
      <point x="396" y="-12" type="curve" smooth="yes"/>
      <point x="439" y="-12"/>
      <point x="483" y="9"/>
      <point x="523" y="65" type="curve"/>
      <point x="504" y="90" type="line"/>
      <point x="483" y="72"/>
      <point x="467" y="63"/>
      <point x="452" y="63" type="curve" smooth="yes"/>
      <point x="435" y="63"/>
      <point x="427" y="73"/>
      <point x="427" y="101" type="curve" smooth="yes"/>
      <point x="427" y="138"/>
      <point x="431" y="170"/>
      <point x="468" y="388" type="curve"/>
      <point x="392" y="391" type="line"/>
      <point x="326" y="152"/>
      <point x="317" y="98"/>
      <point x="317" y="63" type="curve" smooth="yes"/>
      <point x="317" y="14"/>
      <point x="347" y="-12"/>
    </contour>
    <contour>
      <point x="69" y="334" type="line"/>
      <point x="228" y="355" type="line"/>
      <point x="424" y="355" type="line"/>
      <point x="574" y="348" type="line"/>
      <point x="587" y="445" type="line"/>
      <point x="253" y="445" type="line" smooth="yes"/>
      <point x="160" y="445"/>
      <point x="121" y="425"/>
      <point x="66" y="383" type="curve"/>
    </contour>
  </outline>
</glyph>
<glyph name="figuredash" format="2">
  <advance width="490"/>
  <unicode hex="2012"/>
  <outline>
    <contour>
      <point x="60" y="195" type="line"/>
      <point x="471" y="195" type="line"/>
      <point x="471" y="269" type="line"/>
      <point x="60" y="269" type="line"/>
    </contour>
  </outline>
</glyph>
<glyph name="endash" format="2">
  <advance width="489"/>
  <unicode hex="2013"/>
  <outline>
    <contour>
      <point x="47" y="195" type="line"/>
      <point x="460" y="195" type="line"/>
      <point x="460" y="269" type="line"/>
      <point x="47" y="269" type="line"/>
    </contour>
  </outline>
</glyph>
<glyph name="quoteleft" format="2">
  <advance width="289"/>
  <unicode hex="2018"/>
  <outline>
    <contour>
      <point x="198" y="332" type="curve" smooth="yes"/>
      <point x="233" y="332"/>
      <point x="264" y="358"/>
      <point x="264" y="399" type="curve" smooth="yes"/>
      <point x="264" y="419"/>
      <point x="254" y="438"/>
      <point x="239" y="455" type="curve"/>
      <point x="202" y="498" type="line"/>
      <point x="192" y="442" type="line"/>
      <point x="226" y="498"/>
      <point x="255" y="535"/>
      <point x="307" y="578" type="curve"/>
      <point x="284" y="605" type="line"/>
      <point x="201" y="549"/>
      <point x="136" y="487"/>
      <point x="136" y="398" type="curve" smooth="yes"/>
      <point x="136" y="383"/>
      <point x="140" y="370"/>
      <point x="144" y="357" type="curve"/>
      <point x="158" y="342"/>
      <point x="174" y="332"/>
    </contour>
  </outline>
</glyph>
<glyph name="quoteright" format="2">
  <advance width="280"/>
  <unicode hex="2019"/>
  <outline>
    <contour>
      <point x="221" y="605" type="curve" smooth="yes"/>
      <point x="186" y="605"/>
      <point x="155" y="579"/>
      <point x="155" y="538" type="curve" smooth="yes"/>
      <point x="155" y="518"/>
      <point x="165" y="499"/>
      <point x="180" y="482" type="curve"/>
      <point x="217" y="439" type="line"/>
      <point x="227" y="495" type="line"/>
      <point x="193" y="439"/>
      <point x="164" y="402"/>
      <point x="112" y="359" type="curve"/>
      <point x="135" y="332" type="line"/>
      <point x="218" y="388"/>
      <point x="283" y="450"/>
      <point x="283" y="539" type="curve" smooth="yes"/>
      <point x="283" y="554"/>
      <point x="279" y="567"/>
      <point x="275" y="580" type="curve"/>
      <point x="261" y="595"/>
      <point x="245" y="605"/>
    </contour>
  </outline>
</glyph>
<glyph name="quotesinglbase" format="2">
  <advance width="269"/>
  <unicode hex="201A"/>
  <outline>
    <contour>
      <point x="121" y="132" type="curve" smooth="yes"/>
      <point x="86" y="132"/>
      <point x="55" y="106"/>
      <point x="55" y="65" type="curve" smooth="yes"/>
      <point x="55" y="45"/>
      <point x="65" y="26"/>
      <point x="80" y="9" type="curve"/>
      <point x="117" y="-34" type="line"/>
      <point x="127" y="22" type="line"/>
      <point x="93" y="-34"/>
      <point x="64" y="-71"/>
      <point x="12" y="-114" type="curve"/>
      <point x="35" y="-141" type="line"/>
      <point x="118" y="-85"/>
      <point x="183" y="-23"/>
      <point x="183" y="66" type="curve" smooth="yes"/>
      <point x="183" y="81"/>
      <point x="179" y="94"/>
      <point x="175" y="107" type="curve"/>
      <point x="161" y="122"/>
      <point x="145" y="132"/>
    </contour>
  </outline>
</glyph>
<glyph name="quotedblbase" format="2">
  <advance width="458"/>
  <unicode hex="201E"/>
  <outline>
    <contour>
      <point x="310" y="132" type="curve" smooth="yes"/>
      <point x="274" y="132"/>
      <point x="243" y="106"/>
      <point x="243" y="65" type="curve" smooth="yes"/>
      <point x="243" y="45"/>
      <point x="252" y="26"/>
      <point x="267" y="9" type="curve"/>
      <point x="305" y="-34" type="line"/>
      <point x="316" y="22" type="line"/>
      <point x="282" y="-34"/>
      <point x="253" y="-71"/>
      <point x="200" y="-114" type="curve"/>
      <point x="223" y="-141" type="line"/>
      <point x="307" y="-85"/>
      <point x="370" y="-23"/>
      <point x="370" y="66" type="curve" smooth="yes"/>
      <point x="370" y="81"/>
      <point x="368" y="94"/>
      <point x="364" y="107" type="curve"/>
      <point x="349" y="122"/>
      <point x="333" y="132"/>
    </contour>
    <contour>
      <point x="121" y="132" type="curve" smooth="yes"/>
      <point x="86" y="132"/>
      <point x="55" y="106"/>
      <point x="55" y="65" type="curve" smooth="yes"/>
      <point x="55" y="45"/>
      <point x="65" y="26"/>
      <point x="80" y="9" type="curve"/>
      <point x="117" y="-34" type="line"/>
      <point x="127" y="22" type="line"/>
      <point x="93" y="-34"/>
      <point x="64" y="-71"/>
      <point x="12" y="-114" type="curve"/>
      <point x="35" y="-141" type="line"/>
      <point x="118" y="-85"/>
      <point x="183" y="-23"/>
      <point x="183" y="66" type="curve" smooth="yes"/>
      <point x="183" y="81"/>
      <point x="179" y="94"/>
      <point x="175" y="107" type="curve"/>
      <point x="161" y="122"/>
      <point x="145" y="132"/>
    </contour>
  </outline>
</glyph>
<glyph name="daggerdbl" format="2">
  <advance width="457"/>
  <unicode hex="2021"/>
  <outline>
    <contour>
      <point x="23" y="115" type="curve" smooth="yes"/>
      <point x="23" y="89"/>
      <point x="41" y="73"/>
      <point x="74" y="73" type="curve" smooth="yes"/>
      <point x="98" y="73"/>
      <point x="138" y="84"/>
      <point x="168" y="94" type="curve" smooth="yes"/>
      <point x="227" y="114" type="line"/>
      <point x="231" y="133" type="line"/>
      <point x="181" y="151" type="line" smooth="yes"/>
      <point x="152" y="161"/>
      <point x="115" y="172"/>
      <point x="90" y="172" type="curve" smooth="yes"/>
      <point x="50" y="172"/>
      <point x="23" y="150"/>
    </contour>
    <contour>
      <point x="73" y="438" type="curve" smooth="yes"/>
      <point x="73" y="412"/>
      <point x="89" y="397"/>
      <point x="122" y="397" type="curve" smooth="yes"/>
      <point x="149" y="397"/>
      <point x="189" y="407"/>
      <point x="221" y="417" type="curve" smooth="yes"/>
      <point x="281" y="436" type="line"/>
      <point x="287" y="455" type="line"/>
      <point x="229" y="475" type="line" smooth="yes"/>
      <point x="202" y="484"/>
      <point x="165" y="495"/>
      <point x="138" y="495" type="curve" smooth="yes"/>
      <point x="102" y="495"/>
      <point x="73" y="475"/>
    </contour>
    <contour>
      <point x="190" y="-90" type="curve" smooth="yes"/>
      <point x="219" y="-90"/>
      <point x="244" y="-68"/>
      <point x="246" y="-33" type="curve" smooth="yes"/>
      <point x="251" y="-3"/>
      <point x="249" y="26"/>
      <point x="245" y="62" type="curve" smooth="yes"/>
      <point x="239" y="124" type="line"/>
      <point x="219" y="124" type="line"/>
      <point x="190" y="62" type="line" smooth="yes"/>
      <point x="174" y="27"/>
      <point x="149" y="-23"/>
      <point x="149" y="-48" type="curve" smooth="yes"/>
      <point x="149" y="-80"/>
      <point x="163" y="-90"/>
    </contour>
    <contour>
      <point x="303" y="285" type="curve" smooth="yes"/>
      <point x="311" y="332"/>
      <point x="308" y="364"/>
      <point x="291" y="445" type="curve"/>
      <point x="276" y="445" type="line"/>
      <point x="230" y="364"/>
      <point x="217" y="332"/>
      <point x="209" y="285" type="curve" smooth="yes"/>
      <point x="201" y="239"/>
      <point x="204" y="207"/>
      <point x="221" y="124" type="curve"/>
      <point x="237" y="124" type="line"/>
      <point x="281" y="204"/>
      <point x="295" y="240"/>
    </contour>
    <contour>
      <point x="440" y="130" type="curve" smooth="yes"/>
      <point x="440" y="156"/>
      <point x="424" y="172"/>
      <point x="391" y="172" type="curve" smooth="yes"/>
      <point x="363" y="172"/>
      <point x="324" y="161"/>
      <point x="292" y="151" type="curve" smooth="yes"/>
      <point x="231" y="133" type="line"/>
      <point x="227" y="114" type="line"/>
      <point x="284" y="93" type="line" smooth="yes"/>
      <point x="311" y="84"/>
      <point x="348" y="73"/>
      <point x="374" y="73" type="curve" smooth="yes"/>
      <point x="412" y="73"/>
      <point x="440" y="93"/>
    </contour>
    <contour>
      <point x="323" y="659" type="curve" smooth="yes"/>
      <point x="294" y="659"/>
      <point x="268" y="637"/>
      <point x="266" y="601" type="curve" smooth="yes"/>
      <point x="263" y="572"/>
      <point x="264" y="541"/>
      <point x="267" y="506" type="curve" smooth="yes"/>
      <point x="274" y="445" type="line"/>
      <point x="293" y="445" type="line"/>
      <point x="323" y="506" type="line" smooth="yes"/>
      <point x="338" y="541"/>
      <point x="364" y="591"/>
      <point x="364" y="617" type="curve" smooth="yes"/>
      <point x="364" y="649"/>
      <point x="350" y="659"/>
    </contour>
    <contour>
      <point x="489" y="455" type="curve" smooth="yes"/>
      <point x="489" y="479"/>
      <point x="472" y="495"/>
      <point x="439" y="495" type="curve" smooth="yes"/>
      <point x="414" y="495"/>
      <point x="375" y="485"/>
      <point x="345" y="474" type="curve" smooth="yes"/>
      <point x="287" y="455" type="line"/>
      <point x="281" y="436" type="line"/>
      <point x="333" y="417" type="line" smooth="yes"/>
      <point x="360" y="406"/>
      <point x="397" y="396"/>
      <point x="423" y="396" type="curve" smooth="yes"/>
      <point x="463" y="396"/>
      <point x="489" y="418"/>
    </contour>
  </outline>
</glyph>
<glyph name="uni2027" format="2">
  <advance width="281"/>
  <unicode hex="2027"/>
  <outline>
    <contour>
      <point x="132" y="152" type="curve" smooth="yes"/>
      <point x="175" y="152"/>
      <point x="212" y="185"/>
      <point x="212" y="230" type="curve" smooth="yes"/>
      <point x="212" y="265"/>
      <point x="184" y="297"/>
      <point x="146" y="297" type="curve" smooth="yes"/>
      <point x="103" y="297"/>
      <point x="64" y="262"/>
      <point x="64" y="218" type="curve" smooth="yes"/>
      <point x="64" y="182"/>
      <point x="92" y="152"/>
    </contour>
  </outline>
</glyph>
<glyph name="perthousand" format="2">
  <advance width="1133"/>
  <unicode hex="2030"/>
  <outline>
    <contour>
      <point x="218" y="-17" type="line"/>
      <point x="667" y="574" type="line"/>
      <point x="629" y="603" type="line"/>
      <point x="180" y="11" type="line"/>
    </contour>
    <contour>
      <point x="184" y="221" type="curve" smooth="yes"/>
      <point x="278" y="221"/>
      <point x="362" y="318"/>
      <point x="362" y="467" type="curve" smooth="yes"/>
      <point x="362" y="552"/>
      <point x="322" y="598"/>
      <point x="252" y="598" type="curve" smooth="yes"/>
      <point x="154" y="598"/>
      <point x="70" y="494"/>
      <point x="70" y="351" type="curve" smooth="yes"/>
      <point x="70" y="262"/>
      <point x="117" y="221"/>
    </contour>
    <contour>
      <point x="185" y="253" type="curve" smooth="yes"/>
      <point x="167" y="253"/>
      <point x="150" y="266"/>
      <point x="150" y="327" type="curve" smooth="yes"/>
      <point x="150" y="448"/>
      <point x="202" y="566"/>
      <point x="249" y="566" type="curve" smooth="yes"/>
      <point x="266" y="566"/>
      <point x="283" y="552"/>
      <point x="283" y="495" type="curve" smooth="yes"/>
      <point x="283" y="391"/>
      <point x="234" y="253"/>
    </contour>
    <contour>
      <point x="595" y="-7" type="curve" smooth="yes"/>
      <point x="689" y="-7"/>
      <point x="772" y="90"/>
      <point x="772" y="238" type="curve" smooth="yes"/>
      <point x="772" y="323"/>
      <point x="732" y="369"/>
      <point x="663" y="369" type="curve" smooth="yes"/>
      <point x="564" y="369"/>
      <point x="481" y="264"/>
      <point x="481" y="122" type="curve" smooth="yes"/>
      <point x="481" y="33"/>
      <point x="528" y="-7"/>
    </contour>
    <contour>
      <point x="597" y="23" type="curve" smooth="yes"/>
      <point x="577" y="23"/>
      <point x="561" y="37"/>
      <point x="561" y="98" type="curve" smooth="yes"/>
      <point x="561" y="218"/>
      <point x="612" y="337"/>
      <point x="659" y="337" type="curve" smooth="yes"/>
      <point x="677" y="337"/>
      <point x="693" y="323"/>
      <point x="693" y="266" type="curve" smooth="yes"/>
      <point x="693" y="162"/>
      <point x="645" y="23"/>
    </contour>
    <contour>
      <point x="919" y="-7" type="curve" smooth="yes"/>
      <point x="1012" y="-7"/>
      <point x="1096" y="90"/>
      <point x="1096" y="238" type="curve" smooth="yes"/>
      <point x="1096" y="323"/>
      <point x="1057" y="369"/>
      <point x="987" y="369" type="curve" smooth="yes"/>
      <point x="888" y="369"/>
      <point x="805" y="264"/>
      <point x="805" y="122" type="curve" smooth="yes"/>
      <point x="805" y="33"/>
      <point x="851" y="-7"/>
    </contour>
    <contour>
      <point x="920" y="23" type="curve" smooth="yes"/>
      <point x="901" y="23"/>
      <point x="885" y="37"/>
      <point x="885" y="98" type="curve" smooth="yes"/>
      <point x="885" y="218"/>
      <point x="936" y="337"/>
      <point x="983" y="337" type="curve" smooth="yes"/>
      <point x="1000" y="337"/>
      <point x="1017" y="323"/>
      <point x="1017" y="266" type="curve" smooth="yes"/>
      <point x="1017" y="162"/>
      <point x="969" y="23"/>
    </contour>
  </outline>
</glyph>
<glyph name="fraction" format="2">
  <advance width="102"/>
  <unicode hex="2044"/>
  <outline>
    <contour>
      <point x="-126" y="-17" type="line"/>
      <point x="322" y="574" type="line"/>
      <point x="285" y="603" type="line"/>
      <point x="-164" y="11" type="line"/>
    </contour>
  </outline>
</glyph>
<glyph name="trademark" format="2">
  <advance width="705"/>
  <unicode hex="2122"/>
  <outline>
    <contour>
      <point x="98" y="529" type="line"/>
      <point x="138" y="529" type="line"/>
      <point x="163" y="609" type="line"/>
      <point x="124" y="584" type="line"/>
      <point x="350" y="584" type="line"/>
      <point x="320" y="609" type="line"/>
      <point x="316" y="529" type="line"/>
      <point x="355" y="529" type="line"/>
      <point x="369" y="609" type="line"/>
      <point x="114" y="609" type="line"/>
    </contour>
    <contour>
      <point x="115" y="336" type="line"/>
      <point x="266" y="336" type="line"/>
      <point x="271" y="362" type="line"/>
      <point x="207" y="368" type="line"/>
      <point x="184" y="368" type="line"/>
      <point x="119" y="362" type="line"/>
    </contour>
    <contour>
      <point x="152" y="336" type="line"/>
      <point x="230" y="336" type="line"/>
      <point x="280" y="609" type="line"/>
      <point x="202" y="609" type="line"/>
    </contour>
    <contour>
      <point x="335" y="336" type="line"/>
      <point x="444" y="336" type="line"/>
      <point x="448" y="362" type="line"/>
      <point x="405" y="368" type="line"/>
      <point x="387" y="368" type="line"/>
      <point x="341" y="362" type="line"/>
    </contour>
    <contour>
      <point x="377" y="336" type="line"/>
      <point x="406" y="336" type="line"/>
      <point x="467" y="609" type="line"/>
      <point x="440" y="609" type="line"/>
    </contour>
    <contour>
      <point x="567" y="336" type="line"/>
      <point x="713" y="336" type="line"/>
      <point x="716" y="361" type="line"/>
      <point x="651" y="368" type="line"/>
      <point x="637" y="368" type="line"/>
      <point x="572" y="361" type="line"/>
    </contour>
    <contour>
      <point x="602" y="336" type="line"/>
      <point x="680" y="336" type="line"/>
      <point x="719" y="609" type="line"/>
      <point x="663" y="609" type="line"/>
      <point x="635" y="567" type="line"/>
    </contour>
    <contour>
      <point x="669" y="577" type="line"/>
      <point x="686" y="577" type="line"/>
      <point x="748" y="584" type="line"/>
      <point x="753" y="609" type="line"/>
      <point x="675" y="609" type="line"/>
    </contour>
    <contour>
      <point x="491" y="336" type="line"/>
      <point x="518" y="336" type="line"/>
      <point x="678" y="609" type="line"/>
      <point x="645" y="609" type="line"/>
      <point x="543" y="433" type="line"/>
      <point x="506" y="609" type="line"/>
      <point x="407" y="609" type="line"/>
      <point x="402" y="584" type="line"/>
      <point x="436" y="581" type="line"/>
    </contour>
  </outline>
</glyph>
<glyph name="Omega" format="2">
  <advance width="654"/>
  <unicode hex="2126"/>
  <outline>
    <contour>
      <point x="45" y="0" type="line"/>
      <point x="274" y="0" type="line"/>
      <point x="293" y="127" type="line"/>
      <point x="241" y="158"/>
      <point x="211" y="218"/>
      <point x="211" y="303" type="curve" smooth="yes"/>
      <point x="211" y="463"/>
      <point x="285" y="575"/>
      <point x="391" y="575" type="curve" smooth="yes"/>
      <point x="464" y="575"/>
      <point x="509" y="514"/>
      <point x="509" y="413" type="curve" smooth="yes"/>
      <point x="509" y="276"/>
      <point x="452" y="162"/>
      <point x="364" y="126" type="curve"/>
      <point x="353" y="0" type="line"/>
      <point x="582" y="0" type="line"/>
      <point x="624" y="164" type="line"/>
      <point x="567" y="164" type="line"/>
      <point x="505" y="20" type="line"/>
      <point x="551" y="83" type="line"/>
      <point x="379" y="83" type="line"/>
      <point x="408" y="30" type="line"/>
      <point x="414" y="96" type="line"/>
      <point x="545" y="146"/>
      <point x="630" y="265"/>
      <point x="630" y="398" type="curve" smooth="yes"/>
      <point x="630" y="533"/>
      <point x="533" y="624"/>
      <point x="388" y="624" type="curve" smooth="yes"/>
      <point x="218" y="624"/>
      <point x="92" y="494"/>
      <point x="92" y="322" type="curve" smooth="yes"/>
      <point x="92" y="221"/>
      <point x="145" y="138"/>
      <point x="232" y="98" type="curve"/>
      <point x="223" y="34" type="line"/>
      <point x="253" y="83" type="line"/>
      <point x="79" y="83" type="line"/>
      <point x="124" y="26" type="line"/>
      <point x="98" y="164" type="line"/>
      <point x="44" y="164" type="line"/>
    </contour>
  </outline>
</glyph>
<glyph name="partialdiff" format="2">
  <advance width="506"/>
  <unicode hex="2202"/>
  <outline>
    <contour>
      <point x="208" y="-12" type="curve" smooth="yes"/>
      <point x="365" y="-12"/>
      <point x="479" y="133"/>
      <point x="479" y="356" type="curve" smooth="yes"/>
      <point x="479" y="519"/>
      <point x="379" y="598"/>
      <point x="269" y="598" type="curve" smooth="yes"/>
      <point x="215" y="598"/>
      <point x="168" y="584"/>
      <point x="128" y="563" type="curve"/>
      <point x="138" y="525" type="line"/>
      <point x="178" y="540"/>
      <point x="200" y="548"/>
      <point x="231" y="548" type="curve" smooth="yes"/>
      <point x="308" y="548"/>
      <point x="366" y="496"/>
      <point x="366" y="353" type="curve" smooth="yes"/>
      <point x="366" y="161"/>
      <point x="298" y="32"/>
      <point x="225" y="32" type="curve" smooth="yes"/>
      <point x="186" y="32"/>
      <point x="159" y="69"/>
      <point x="159" y="137" type="curve" smooth="yes"/>
      <point x="159" y="259"/>
      <point x="227" y="329"/>
      <point x="292" y="329" type="curve" smooth="yes"/>
      <point x="332" y="329"/>
      <point x="359" y="317"/>
      <point x="390" y="293" type="curve"/>
      <point x="397" y="322" type="line"/>
      <point x="368" y="358"/>
      <point x="326" y="377"/>
      <point x="272" y="377" type="curve" smooth="yes"/>
      <point x="148" y="377"/>
      <point x="46" y="288"/>
      <point x="46" y="156" type="curve" smooth="yes"/>
      <point x="46" y="46"/>
      <point x="120" y="-12"/>
    </contour>
  </outline>
</glyph>
<glyph name="Delta" format="2">
  <advance width="555"/>
  <unicode hex="2206"/>
  <outline>
    <contour>
      <point x="0" y="0" type="line"/>
      <point x="499" y="0" type="line"/>
      <point x="512" y="69" type="line"/>
      <point x="397" y="609" type="line"/>
      <point x="321" y="609" type="line"/>
      <point x="13" y="69" type="line"/>
    </contour>
    <contour>
      <point x="60" y="55" type="line"/>
      <point x="318" y="527" type="line"/>
      <point x="301" y="529" type="line"/>
      <point x="398" y="52" type="line"/>
      <point x="418" y="79" type="line"/>
      <point x="46" y="79" type="line"/>
    </contour>
  </outline>
</glyph>
<glyph name="product" format="2">
  <advance width="716"/>
  <unicode hex="220F"/>
  <outline>
    <contour>
      <point x="576" y="556" type="line"/>
      <point x="576" y="609" type="line"/>
      <point x="212" y="609" type="line"/>
      <point x="212" y="556" type="line"/>
    </contour>
    <contour>
      <point x="197" y="-57" type="line"/>
      <point x="74" y="-70" type="line"/>
      <point x="74" y="-115" type="line"/>
      <point x="350" y="-115" type="line"/>
      <point x="350" y="-70" type="line"/>
      <point x="221" y="-57" type="line"/>
    </contour>
    <contour>
      <point x="151" y="170" type="line" smooth="yes"/>
      <point x="151" y="73"/>
      <point x="151" y="-22"/>
      <point x="149" y="-115" type="curve"/>
      <point x="276" y="-115" type="line"/>
      <point x="273" y="-20"/>
      <point x="273" y="75"/>
      <point x="273" y="170" type="curve" smooth="yes"/>
      <point x="273" y="323" type="line" smooth="yes"/>
      <point x="273" y="420"/>
      <point x="273" y="516"/>
      <point x="276" y="609" type="curve"/>
      <point x="149" y="609" type="line"/>
      <point x="151" y="514"/>
      <point x="151" y="418"/>
      <point x="151" y="323" type="curve" smooth="yes"/>
    </contour>
    <contour>
      <point x="571" y="550" type="line"/>
      <point x="584" y="550" type="line"/>
      <point x="710" y="563" type="line"/>
      <point x="710" y="609" type="line"/>
      <point x="571" y="609" type="line"/>
    </contour>
    <contour>
      <point x="511" y="170" type="line" smooth="yes"/>
      <point x="511" y="73"/>
      <point x="511" y="-22"/>
      <point x="508" y="-115" type="curve"/>
      <point x="634" y="-115" type="line"/>
      <point x="632" y="-20"/>
      <point x="632" y="75"/>
      <point x="632" y="170" type="curve" smooth="yes"/>
      <point x="632" y="323" type="line" smooth="yes"/>
      <point x="632" y="420"/>
      <point x="632" y="516"/>
      <point x="634" y="609" type="curve"/>
      <point x="508" y="609" type="line"/>
      <point x="511" y="514"/>
      <point x="511" y="418"/>
      <point x="511" y="323" type="curve" smooth="yes"/>
    </contour>
    <contour>
      <point x="561" y="-57" type="line"/>
      <point x="433" y="-70" type="line"/>
      <point x="433" y="-115" type="line"/>
      <point x="710" y="-115" type="line"/>
      <point x="710" y="-70" type="line"/>
      <point x="584" y="-57" type="line"/>
    </contour>
    <contour>
      <point x="197" y="550" type="line"/>
      <point x="212" y="550" type="line"/>
      <point x="212" y="609" type="line"/>
      <point x="74" y="609" type="line"/>
      <point x="74" y="563" type="line"/>
    </contour>
  </outline>
</glyph>
<glyph name="summation" format="2">
  <advance width="555"/>
  <unicode hex="2211"/>
  <outline>
    <contour>
      <point x="463" y="440" type="line"/>
      <point x="529" y="440" type="line"/>
      <point x="521" y="609" type="line"/>
      <point x="129" y="609" type="line"/>
      <point x="129" y="558" type="line"/>
      <point x="490" y="558" type="line"/>
      <point x="428" y="609" type="line"/>
    </contour>
    <contour>
      <point x="55" y="-115" type="line"/>
      <point x="537" y="-115" type="line"/>
      <point x="544" y="97" type="line"/>
      <point x="477" y="97" type="line"/>
      <point x="442" y="-70" type="line"/>
      <point x="506" y="-23" type="line"/>
      <point x="111" y="-23" type="line"/>
      <point x="133" y="-43" type="line"/>
      <point x="368" y="268" type="line"/>
      <point x="174" y="609" type="line"/>
      <point x="66" y="609" type="line"/>
      <point x="66" y="561" type="line"/>
      <point x="284" y="197" type="line"/>
      <point x="293" y="274" type="line"/>
      <point x="55" y="-45" type="line"/>
    </contour>
  </outline>
</glyph>
<glyph name="radical" format="2">
  <advance width="521"/>
  <unicode hex="221A"/>
  <outline>
    <contour>
      <point x="149" y="301" type="line"/>
      <point x="257" y="-96" type="line"/>
      <point x="327" y="-96" type="line"/>
      <point x="598" y="714" type="line"/>
      <point x="508" y="714" type="line"/>
      <point x="287" y="-48" type="line"/>
      <point x="322" y="-34" type="line"/>
      <point x="230" y="331" type="line"/>
      <point x="74" y="331" type="line"/>
      <point x="74" y="267" type="line"/>
      <point x="172" y="267" type="line"/>
    </contour>
  </outline>
</glyph>
<glyph name="lessequal" format="2">
  <advance width="495"/>
  <unicode hex="2264"/>
  <outline>
    <contour>
      <point x="461" y="0" type="line"/>
      <point x="461" y="65" type="line"/>
      <point x="50" y="65" type="line"/>
      <point x="50" y="0" type="line"/>
    </contour>
    <contour>
      <point x="67" y="279" type="line"/>
      <point x="420" y="108" type="line"/>
      <point x="449" y="169" type="line"/>
      <point x="116" y="325" type="line"/>
      <point x="116" y="287" type="line"/>
      <point x="449" y="442" type="line"/>
      <point x="420" y="504" type="line"/>
      <point x="67" y="332" type="line"/>
    </contour>
  </outline>
</glyph>
<glyph name="lozenge" format="2">
  <advance width="551"/>
  <unicode hex="25CA"/>
  <outline>
    <contour>
      <point x="439" y="299" type="line"/>
      <point x="291" y="39" type="line"/>
      <point x="141" y="299" type="line"/>
      <point x="291" y="558" type="line"/>
    </contour>
    <contour>
      <point x="522" y="299" type="line"/>
      <point x="304" y="655" type="line"/>
      <point x="277" y="655" type="line"/>
      <point x="59" y="299" type="line"/>
      <point x="277" y="-58" type="line"/>
      <point x="304" y="-58" type="line"/>
    </contour>
  </outline>
</glyph>
<glyph name="uniA4D3" format="2">
  <advance width="536"/>
  <unicode hex="A4D3"/>
  <outline>
    <contour>
      <point x="77" y="86" type="curve" smooth="yes"/>
      <point x="77" y="34"/>
      <point x="142" y="-10"/>
      <point x="223" y="-10" type="curve" smooth="yes"/>
      <point x="384" y="-10"/>
      <point x="519" y="133"/>
      <point x="519" y="301" type="curve" smooth="yes"/>
      <point x="519" y="448"/>
      <point x="414" y="538"/>
      <point x="281" y="538" type="curve" smooth="yes"/>
      <point x="215" y="538"/>
      <point x="157" y="520"/>
      <point x="120" y="500" type="curve" smooth="yes"/>
      <point x="108" y="493"/>
      <point x="101" y="488"/>
      <point x="101" y="477" type="curve" smooth="yes"/>
      <point x="101" y="466"/>
      <point x="104" y="454"/>
      <point x="110" y="445" type="curve" smooth="yes"/>
      <point x="114" y="439"/>
      <point x="121" y="437"/>
      <point x="127" y="437" type="curve" smooth="yes"/>
      <point x="132" y="437"/>
      <point x="138" y="438"/>
      <point x="144" y="441" type="curve" smooth="yes"/>
      <point x="162" y="450"/>
      <point x="216" y="476"/>
      <point x="265" y="476" type="curve" smooth="yes"/>
      <point x="377" y="476"/>
      <point x="449" y="408"/>
      <point x="449" y="292" type="curve" smooth="yes"/>
      <point x="449" y="150"/>
      <point x="323" y="52"/>
      <point x="232" y="52" type="curve" smooth="yes"/>
      <point x="185" y="52"/>
      <point x="150" y="65"/>
      <point x="150" y="95" type="curve" smooth="yes"/>
      <point x="150" y="110"/>
      <point x="163" y="150"/>
      <point x="175" y="183" type="curve" smooth="yes"/>
      <point x="188" y="220"/>
      <point x="204" y="270"/>
      <point x="239" y="366" type="curve" smooth="yes"/>
      <point x="255" y="409"/>
      <point x="255" y="408"/>
      <point x="267" y="440" type="curve" smooth="yes"/>
      <point x="272" y="453"/>
      <point x="273" y="459"/>
      <point x="273" y="465" type="curve" smooth="yes"/>
      <point x="273" y="474"/>
      <point x="257" y="485"/>
      <point x="236" y="485" type="curve" smooth="yes"/>
      <point x="218" y="485"/>
      <point x="211" y="482"/>
      <point x="205" y="475" type="curve" smooth="yes"/>
      <point x="201" y="471"/>
      <point x="198" y="463"/>
      <point x="196" y="456" type="curve" smooth="yes"/>
      <point x="188" y="433"/>
      <point x="186" y="427"/>
      <point x="178" y="403" type="curve" smooth="yes"/>
      <point x="148" y="313"/>
      <point x="119" y="229"/>
      <point x="100" y="176" type="curve" smooth="yes"/>
      <point x="87" y="139"/>
      <point x="77" y="105"/>
    </contour>
  </outline>
</glyph>
<glyph name="uniA4DE" format="2">
  <advance width="489"/>
  <unicode hex="A4DE"/>
  <outline>
    <contour>
      <point x="325" y="64" type="line"/>
      <point x="317" y="64"/>
      <point x="279" y="63"/>
      <point x="234" y="62" type="curve" smooth="yes"/>
      <point x="174" y="61"/>
      <point x="104" y="60"/>
      <point x="85" y="60" type="curve" smooth="yes"/>
      <point x="69" y="60"/>
      <point x="54" y="61"/>
      <point x="39" y="61" type="curve" smooth="yes"/>
      <point x="15" y="61"/>
      <point x="1" y="51"/>
      <point x="1" y="29" type="curve" smooth="yes"/>
      <point x="1" y="6"/>
      <point x="23" y="-8"/>
      <point x="60" y="-8" type="curve" smooth="yes"/>
      <point x="81" y="-8"/>
      <point x="126" y="-8"/>
      <point x="172" y="-7" type="curve" smooth="yes"/>
      <point x="226" y="-6"/>
      <point x="278" y="-7"/>
      <point x="292" y="-6" type="curve"/>
    </contour>
    <contour>
      <point x="292" y="-6" type="curve" smooth="yes"/>
      <point x="321" y="-6"/>
      <point x="332" y="4"/>
      <point x="337" y="21" type="curve" smooth="yes"/>
      <point x="342" y="37"/>
      <point x="350" y="66"/>
      <point x="362" y="104" type="curve" smooth="yes"/>
      <point x="385" y="177"/>
      <point x="415" y="270"/>
      <point x="451" y="366" type="curve" smooth="yes"/>
      <point x="467" y="409"/>
      <point x="489" y="459"/>
      <point x="503" y="502" type="curve" smooth="yes"/>
      <point x="505" y="508"/>
      <point x="506" y="512"/>
      <point x="506" y="516" type="curve" smooth="yes"/>
      <point x="506" y="527"/>
      <point x="490" y="538"/>
      <point x="467" y="538" type="curve" smooth="yes"/>
      <point x="449" y="538"/>
      <point x="440" y="535"/>
      <point x="435" y="528" type="curve" smooth="yes"/>
      <point x="431" y="523"/>
      <point x="428" y="514"/>
      <point x="426" y="509" type="curve" smooth="yes"/>
      <point x="413" y="476"/>
      <point x="401" y="436"/>
      <point x="390" y="403" type="curve" smooth="yes"/>
      <point x="360" y="313"/>
      <point x="331" y="229"/>
      <point x="299" y="140" type="curve" smooth="yes"/>
      <point x="286" y="104"/>
      <point x="274" y="72"/>
      <point x="261" y="34" type="curve" smooth="yes"/>
      <point x="259" y="28"/>
      <point x="256" y="22"/>
      <point x="256" y="15" type="curve" smooth="yes"/>
      <point x="256" y="7"/>
      <point x="263" y="-6"/>
    </contour>
    <contour>
      <point x="96" y="259" type="curve" smooth="yes"/>
      <point x="103" y="246"/>
      <point x="112" y="241"/>
      <point x="142" y="241" type="curve" smooth="yes"/>
      <point x="179" y="241"/>
      <point x="219" y="242"/>
      <point x="253" y="242" type="curve" smooth="yes"/>
      <point x="298" y="242"/>
      <point x="330" y="240"/>
      <point x="373" y="240" type="curve" smooth="yes"/>
      <point x="399" y="240"/>
      <point x="406" y="248"/>
      <point x="406" y="276" type="curve" smooth="yes"/>
      <point x="406" y="295"/>
      <point x="394" y="302"/>
      <point x="387" y="305" type="curve" smooth="yes"/>
      <point x="381" y="308"/>
      <point x="363" y="308"/>
      <point x="358" y="308" type="curve" smooth="yes"/>
      <point x="322" y="308"/>
      <point x="303" y="307"/>
      <point x="268" y="307" type="curve" smooth="yes"/>
      <point x="211" y="307"/>
      <point x="170" y="308"/>
      <point x="150" y="308" type="curve" smooth="yes"/>
      <point x="118" y="308"/>
      <point x="103" y="306"/>
      <point x="96" y="295" type="curve" smooth="yes"/>
      <point x="92" y="289"/>
      <point x="91" y="283"/>
      <point x="91" y="276" type="curve" smooth="yes"/>
      <point x="91" y="270"/>
      <point x="93" y="265"/>
    </contour>
  </outline>
</glyph>
<glyph name="uniA4DF" format="2">
  <advance width="672"/>
  <unicode hex="A4DF"/>
  <outline>
    <contour>
      <point x="339" y="153" type="curve" smooth="yes"/>
      <point x="339" y="163"/>
      <point x="338" y="172"/>
      <point x="336" y="182" type="curve" smooth="yes"/>
      <point x="315" y="287"/>
      <point x="291" y="420"/>
      <point x="282" y="477" type="curve" smooth="yes"/>
      <point x="279" y="496"/>
      <point x="279" y="508"/>
      <point x="278" y="515" type="curve" smooth="yes"/>
      <point x="276" y="528"/>
      <point x="254" y="533"/>
      <point x="236" y="533" type="curve" smooth="yes"/>
      <point x="226" y="533"/>
      <point x="221" y="532"/>
      <point x="215" y="528" type="curve" smooth="yes"/>
      <point x="211" y="525"/>
      <point x="205" y="517"/>
      <point x="205" y="508" type="curve" smooth="yes"/>
      <point x="205" y="496"/>
      <point x="206" y="477"/>
      <point x="210" y="462" type="curve" smooth="yes"/>
      <point x="222" y="418"/>
      <point x="253" y="248"/>
      <point x="272" y="149" type="curve" smooth="yes"/>
      <point x="275" y="133"/>
      <point x="290" y="130"/>
      <point x="305" y="130" type="curve" smooth="yes"/>
      <point x="312" y="130"/>
      <point x="322" y="133"/>
      <point x="328" y="137" type="curve" smooth="yes"/>
      <point x="332" y="140"/>
      <point x="339" y="146"/>
    </contour>
    <contour>
      <point x="594" y="510" type="curve" smooth="yes"/>
      <point x="546" y="457"/>
      <point x="384" y="292"/>
      <point x="300" y="190" type="curve" smooth="yes"/>
      <point x="291" y="179"/>
      <point x="285" y="168"/>
      <point x="283" y="164" type="curve" smooth="yes"/>
      <point x="280" y="158"/>
      <point x="279" y="154"/>
      <point x="279" y="149" type="curve" smooth="yes"/>
      <point x="279" y="145"/>
      <point x="280" y="140"/>
      <point x="283" y="137" type="curve" smooth="yes"/>
      <point x="289" y="131"/>
      <point x="294" y="130"/>
      <point x="302" y="130" type="curve" smooth="yes"/>
      <point x="314" y="130"/>
      <point x="323" y="130"/>
      <point x="331" y="132" type="curve" smooth="yes"/>
      <point x="338" y="134"/>
      <point x="343" y="137"/>
      <point x="349" y="143" type="curve" smooth="yes"/>
      <point x="353" y="147"/>
      <point x="358" y="152"/>
      <point x="362" y="157" type="curve" smooth="yes"/>
      <point x="429" y="241"/>
      <point x="611" y="412"/>
      <point x="649" y="495" type="curve" smooth="yes"/>
      <point x="655" y="508"/>
      <point x="658" y="517"/>
      <point x="656" y="523" type="curve" smooth="yes"/>
      <point x="653" y="531"/>
      <point x="642" y="535"/>
      <point x="633" y="535" type="curve" smooth="yes"/>
      <point x="626" y="535"/>
      <point x="617" y="533"/>
      <point x="612" y="528" type="curve" smooth="yes"/>
      <point x="608" y="524"/>
      <point x="603" y="520"/>
    </contour>
    <contour>
      <point x="59" y="-9" type="curve" smooth="yes"/>
      <point x="87" y="-9"/>
      <point x="103" y="0"/>
      <point x="110" y="17" type="curve" smooth="yes"/>
      <point x="117" y="33"/>
      <point x="126" y="66"/>
      <point x="138" y="104" type="curve" smooth="yes"/>
      <point x="161" y="177"/>
      <point x="191" y="270"/>
      <point x="227" y="366" type="curve" smooth="yes"/>
      <point x="243" y="409"/>
      <point x="263" y="456"/>
      <point x="274" y="488" type="curve" smooth="yes"/>
      <point x="277" y="498"/>
      <point x="278" y="505"/>
      <point x="278" y="515" type="curve" smooth="yes"/>
      <point x="278" y="530"/>
      <point x="261" y="538"/>
      <point x="237" y="538" type="curve" smooth="yes"/>
      <point x="217" y="538"/>
      <point x="207" y="535"/>
      <point x="199" y="527" type="curve" smooth="yes"/>
      <point x="193" y="521"/>
      <point x="189" y="514"/>
      <point x="183" y="499" type="curve" smooth="yes"/>
      <point x="174" y="476"/>
      <point x="162" y="436"/>
      <point x="151" y="403" type="curve" smooth="yes"/>
      <point x="121" y="313"/>
      <point x="92" y="229"/>
      <point x="60" y="140" type="curve" smooth="yes"/>
      <point x="47" y="104"/>
      <point x="34" y="68"/>
      <point x="26" y="45" type="curve" smooth="yes"/>
      <point x="22" y="34"/>
      <point x="19" y="24"/>
      <point x="19" y="16" type="curve" smooth="yes"/>
      <point x="19" y="-1"/>
      <point x="38" y="-9"/>
    </contour>
    <contour>
      <point x="474" y="-9" type="curve" smooth="yes"/>
      <point x="502" y="-9"/>
      <point x="518" y="0"/>
      <point x="525" y="17" type="curve" smooth="yes"/>
      <point x="532" y="33"/>
      <point x="541" y="66"/>
      <point x="553" y="104" type="curve" smooth="yes"/>
      <point x="576" y="177"/>
      <point x="606" y="270"/>
      <point x="642" y="366" type="curve" smooth="yes"/>
      <point x="658" y="409"/>
      <point x="679" y="459"/>
      <point x="689" y="488" type="curve" smooth="yes"/>
      <point x="693" y="500"/>
      <point x="695" y="512"/>
      <point x="691" y="522" type="curve" smooth="yes"/>
      <point x="687" y="531"/>
      <point x="673" y="538"/>
      <point x="649" y="538" type="curve" smooth="yes"/>
      <point x="631" y="538"/>
      <point x="617" y="533"/>
      <point x="612" y="528" type="curve" smooth="yes"/>
      <point x="609" y="525"/>
      <point x="607" y="507"/>
      <point x="606" y="502" type="curve" smooth="yes"/>
      <point x="597" y="469"/>
      <point x="584" y="435"/>
      <point x="572" y="403" type="curve" smooth="yes"/>
      <point x="538" y="313"/>
      <point x="507" y="229"/>
      <point x="475" y="140" type="curve" smooth="yes"/>
      <point x="462" y="104"/>
      <point x="449" y="68"/>
      <point x="441" y="45" type="curve" smooth="yes"/>
      <point x="437" y="34"/>
      <point x="434" y="24"/>
      <point x="434" y="16" type="curve" smooth="yes"/>
      <point x="434" y="-1"/>
      <point x="453" y="-9"/>
    </contour>
  </outline>
</glyph>
<glyph name="uniA4E7" format="2">
  <advance width="581"/>
  <unicode hex="A4E7"/>
  <outline>
    <contour>
      <point x="162" y="274" type="curve" smooth="yes"/>
      <point x="162" y="248"/>
      <point x="184" y="228"/>
      <point x="213" y="228" type="curve" smooth="yes"/>
      <point x="253" y="228"/>
      <point x="352" y="232"/>
      <point x="398" y="232" type="curve" smooth="yes"/>
      <point x="433" y="232"/>
      <point x="458" y="230"/>
      <point x="493" y="230" type="curve" smooth="yes"/>
      <point x="548" y="230"/>
      <point x="565" y="251"/>
      <point x="565" y="271" type="curve" smooth="yes"/>
      <point x="565" y="294"/>
      <point x="550" y="313"/>
      <point x="508" y="313" type="curve" smooth="yes"/>
      <point x="484" y="313"/>
      <point x="422" y="311"/>
      <point x="398" y="311" type="curve" smooth="yes"/>
      <point x="340" y="311"/>
      <point x="270" y="307"/>
      <point x="230" y="307" type="curve" smooth="yes"/>
      <point x="196" y="307"/>
      <point x="162" y="299"/>
    </contour>
    <contour>
      <point x="59" y="-9" type="curve" smooth="yes"/>
      <point x="87" y="-9"/>
      <point x="104" y="0"/>
      <point x="111" y="17" type="curve" smooth="yes"/>
      <point x="118" y="33"/>
      <point x="126" y="66"/>
      <point x="138" y="104" type="curve" smooth="yes"/>
      <point x="161" y="177"/>
      <point x="191" y="270"/>
      <point x="227" y="366" type="curve" smooth="yes"/>
      <point x="243" y="409"/>
      <point x="264" y="459"/>
      <point x="274" y="488" type="curve" smooth="yes"/>
      <point x="278" y="500"/>
      <point x="280" y="512"/>
      <point x="276" y="522" type="curve" smooth="yes"/>
      <point x="272" y="531"/>
      <point x="261" y="538"/>
      <point x="237" y="538" type="curve" smooth="yes"/>
      <point x="217" y="538"/>
      <point x="207" y="535"/>
      <point x="199" y="527" type="curve" smooth="yes"/>
      <point x="193" y="521"/>
      <point x="188" y="514"/>
      <point x="182" y="499" type="curve" smooth="yes"/>
      <point x="173" y="476"/>
      <point x="162" y="436"/>
      <point x="151" y="403" type="curve" smooth="yes"/>
      <point x="121" y="313"/>
      <point x="92" y="229"/>
      <point x="60" y="140" type="curve" smooth="yes"/>
      <point x="47" y="104"/>
      <point x="34" y="68"/>
      <point x="26" y="45" type="curve" smooth="yes"/>
      <point x="22" y="34"/>
      <point x="19" y="24"/>
      <point x="19" y="16" type="curve" smooth="yes"/>
      <point x="19" y="-1"/>
      <point x="38" y="-9"/>
    </contour>
    <contour>
      <point x="381" y="-9" type="curve" smooth="yes"/>
      <point x="409" y="-9"/>
      <point x="426" y="0"/>
      <point x="433" y="17" type="curve" smooth="yes"/>
      <point x="440" y="33"/>
      <point x="448" y="66"/>
      <point x="460" y="104" type="curve" smooth="yes"/>
      <point x="483" y="177"/>
      <point x="513" y="270"/>
      <point x="549" y="366" type="curve" smooth="yes"/>
      <point x="565" y="409"/>
      <point x="586" y="459"/>
      <point x="596" y="488" type="curve" smooth="yes"/>
      <point x="600" y="500"/>
      <point x="602" y="512"/>
      <point x="598" y="522" type="curve" smooth="yes"/>
      <point x="594" y="531"/>
      <point x="583" y="538"/>
      <point x="559" y="538" type="curve" smooth="yes"/>
      <point x="539" y="538"/>
      <point x="529" y="535"/>
      <point x="521" y="527" type="curve" smooth="yes"/>
      <point x="515" y="521"/>
      <point x="510" y="514"/>
      <point x="504" y="499" type="curve" smooth="yes"/>
      <point x="495" y="476"/>
      <point x="484" y="436"/>
      <point x="473" y="403" type="curve" smooth="yes"/>
      <point x="443" y="313"/>
      <point x="414" y="229"/>
      <point x="382" y="140" type="curve" smooth="yes"/>
      <point x="369" y="104"/>
      <point x="356" y="68"/>
      <point x="348" y="45" type="curve" smooth="yes"/>
      <point x="344" y="33"/>
      <point x="341" y="22"/>
      <point x="341" y="13" type="curve" smooth="yes"/>
      <point x="341" y="3"/>
      <point x="353" y="-9"/>
    </contour>
  </outline>
</glyph>
<glyph name="uniA4EB" format="2">
  <advance width="483"/>
  <unicode hex="A4EB"/>
  <outline>
    <contour>
      <point x="285" y="238" type="line"/>
      <point x="385" y="338"/>
      <point x="484" y="443"/>
      <point x="508" y="467" type="curve" smooth="yes"/>
      <point x="525" y="484"/>
      <point x="543" y="505"/>
      <point x="543" y="517" type="curve" smooth="yes"/>
      <point x="543" y="524"/>
      <point x="534" y="538"/>
      <point x="504" y="538" type="curve" smooth="yes"/>
      <point x="482" y="538"/>
      <point x="471" y="533"/>
      <point x="460" y="524" type="curve" smooth="yes"/>
      <point x="454" y="519"/>
      <point x="447" y="510"/>
      <point x="435" y="495" type="curve" smooth="yes"/>
      <point x="419" y="475"/>
      <point x="348" y="395"/>
      <point x="264" y="313" type="curve"/>
    </contour>
    <contour>
      <point x="354" y="60" type="curve" smooth="yes"/>
      <point x="346" y="123"/>
      <point x="318" y="219"/>
      <point x="294" y="306" type="curve" smooth="yes"/>
      <point x="272" y="384"/>
      <point x="251" y="453"/>
      <point x="247" y="479" type="curve" smooth="yes"/>
      <point x="244" y="497"/>
      <point x="241" y="510"/>
      <point x="240" y="518" type="curve" smooth="yes"/>
      <point x="239" y="530"/>
      <point x="223" y="538"/>
      <point x="208" y="538" type="curve" smooth="yes"/>
      <point x="200" y="538"/>
      <point x="184" y="538"/>
      <point x="178" y="534" type="curve" smooth="yes"/>
      <point x="172" y="530"/>
      <point x="169" y="524"/>
      <point x="169" y="511" type="curve" smooth="yes"/>
      <point x="169" y="500"/>
      <point x="173" y="484"/>
      <point x="176" y="469" type="curve" smooth="yes"/>
      <point x="180" y="447"/>
      <point x="210" y="354"/>
      <point x="237" y="255" type="curve" smooth="yes"/>
      <point x="257" y="181"/>
      <point x="274" y="105"/>
      <point x="283" y="51" type="curve" smooth="yes"/>
      <point x="286" y="32"/>
      <point x="287" y="19"/>
      <point x="288" y="13" type="curve" smooth="yes"/>
      <point x="290" y="-1"/>
      <point x="302" y="-9"/>
      <point x="325" y="-9" type="curve" smooth="yes"/>
      <point x="334" y="-9"/>
      <point x="345" y="-8"/>
      <point x="351" y="-4" type="curve" smooth="yes"/>
      <point x="356" y="-1"/>
      <point x="360" y="5"/>
      <point x="360" y="19" type="curve" smooth="yes"/>
      <point x="360" y="30"/>
      <point x="356" y="45"/>
    </contour>
    <contour>
      <point x="248" y="319" type="line"/>
      <point x="152" y="223"/>
      <point x="45" y="108"/>
      <point x="-3" y="53" type="curve" smooth="yes"/>
      <point x="-17" y="37"/>
      <point x="-27" y="25"/>
      <point x="-27" y="11" type="curve" smooth="yes"/>
      <point x="-27" y="-3"/>
      <point x="-9" y="-9"/>
      <point x="13" y="-9" type="curve" smooth="yes"/>
      <point x="27" y="-9"/>
      <point x="36" y="-7"/>
      <point x="44" y="-1" type="curve" smooth="yes"/>
      <point x="56" y="8"/>
      <point x="67" y="19"/>
      <point x="84" y="40" type="curve" smooth="yes"/>
      <point x="122" y="87"/>
      <point x="194" y="170"/>
      <point x="269" y="244" type="curve"/>
    </contour>
  </outline>
</glyph>
<glyph name="uniA4EC" format="2">
  <advance width="449"/>
  <unicode hex="A4EC"/>
  <outline>
    <contour>
      <point x="236" y="270" type="line"/>
      <point x="335" y="338"/>
      <point x="389" y="423"/>
      <point x="440" y="506" type="curve" smooth="yes"/>
      <point x="451" y="524"/>
      <point x="460" y="530"/>
      <point x="469" y="534" type="curve" smooth="yes"/>
      <point x="477" y="537"/>
      <point x="487" y="538"/>
      <point x="495" y="538" type="curve" smooth="yes"/>
      <point x="501" y="538"/>
      <point x="507" y="537"/>
      <point x="513" y="535" type="curve" smooth="yes"/>
      <point x="519" y="533"/>
      <point x="524" y="526"/>
      <point x="524" y="521" type="curve" smooth="yes"/>
      <point x="524" y="514"/>
      <point x="521" y="508"/>
      <point x="518" y="502" type="curve" smooth="yes"/>
      <point x="459" y="384"/>
      <point x="373" y="292"/>
      <point x="249" y="199" type="curve"/>
    </contour>
    <contour>
      <point x="187" y="533" type="curve" smooth="yes"/>
      <point x="194" y="529"/>
      <point x="199" y="524"/>
      <point x="199" y="502" type="curve" smooth="yes"/>
      <point x="199" y="366"/>
      <point x="266" y="314"/>
      <point x="266" y="238" type="curve" smooth="yes"/>
      <point x="266" y="179"/>
      <point x="229" y="81"/>
      <point x="210" y="21" type="curve" smooth="yes"/>
      <point x="202" y="-4"/>
      <point x="192" y="-9"/>
      <point x="166" y="-9" type="curve" smooth="yes"/>
      <point x="141" y="-9"/>
      <point x="132" y="-5"/>
      <point x="132" y="6" type="curve" smooth="yes"/>
      <point x="132" y="16"/>
      <point x="140" y="33"/>
      <point x="150" y="58" type="curve" smooth="yes"/>
      <point x="158" y="78"/>
      <point x="196" y="188"/>
      <point x="196" y="230" type="curve" smooth="yes"/>
      <point x="196" y="297"/>
      <point x="124" y="382"/>
      <point x="124" y="498" type="curve" smooth="yes"/>
      <point x="124" y="516"/>
      <point x="127" y="527"/>
      <point x="135" y="532" type="curve" smooth="yes"/>
      <point x="141" y="536"/>
      <point x="150" y="538"/>
      <point x="164" y="538" type="curve" smooth="yes"/>
      <point x="173" y="538"/>
      <point x="180" y="537"/>
    </contour>
  </outline>
</glyph>
<glyph name="uniA4ED" format="2">
  <advance width="488"/>
  <unicode hex="A4ED"/>
  <outline>
    <contour>
      <point x="361" y="240" type="line"/>
      <point x="328" y="243"/>
      <point x="304" y="244"/>
      <point x="276" y="244" type="curve" smooth="yes"/>
      <point x="179" y="244"/>
      <point x="103" y="209"/>
      <point x="103" y="138" type="curve" smooth="yes"/>
      <point x="103" y="93"/>
      <point x="152" y="52"/>
      <point x="245" y="52" type="curve" smooth="yes"/>
      <point x="284" y="52"/>
      <point x="347" y="65"/>
      <point x="378" y="80" type="curve" smooth="yes"/>
      <point x="389" y="85"/>
      <point x="398" y="87"/>
      <point x="403" y="87" type="curve" smooth="yes"/>
      <point x="417" y="87"/>
      <point x="424" y="78"/>
      <point x="424" y="65" type="curve" smooth="yes"/>
      <point x="424" y="44"/>
      <point x="407" y="27"/>
      <point x="371" y="12" type="curve" smooth="yes"/>
      <point x="342" y="0"/>
      <point x="295" y="-10"/>
      <point x="231" y="-10" type="curve" smooth="yes"/>
      <point x="102" y="-10"/>
      <point x="33" y="60"/>
      <point x="33" y="130" type="curve" smooth="yes"/>
      <point x="33" y="240"/>
      <point x="130" y="298"/>
      <point x="290" y="298" type="curve" smooth="yes"/>
      <point x="308" y="298"/>
      <point x="350" y="295"/>
      <point x="382" y="290" type="curve"/>
    </contour>
    <contour>
      <point x="301" y="44" type="curve" smooth="yes"/>
      <point x="280" y="44"/>
      <point x="264" y="55"/>
      <point x="264" y="64" type="curve" smooth="yes"/>
      <point x="264" y="70"/>
      <point x="265" y="76"/>
      <point x="270" y="89" type="curve" smooth="yes"/>
      <point x="282" y="121"/>
      <point x="288" y="137"/>
      <point x="294" y="154" type="curve" smooth="yes"/>
      <point x="328" y="247"/>
      <point x="365" y="357"/>
      <point x="388" y="426" type="curve" smooth="yes"/>
      <point x="396" y="450"/>
      <point x="401" y="465"/>
      <point x="406" y="481" type="curve" smooth="yes"/>
      <point x="412" y="499"/>
      <point x="422" y="507"/>
      <point x="446" y="507" type="curve" smooth="yes"/>
      <point x="475" y="507"/>
      <point x="482" y="495"/>
      <point x="482" y="487" type="curve" smooth="yes"/>
      <point x="482" y="480"/>
      <point x="480" y="474"/>
      <point x="478" y="468" type="curve" smooth="yes"/>
      <point x="465" y="431"/>
      <point x="462" y="425"/>
      <point x="449" y="390" type="curve" smooth="yes"/>
      <point x="416" y="302"/>
      <point x="386" y="216"/>
      <point x="358" y="126" type="curve" smooth="yes"/>
      <point x="350" y="102"/>
      <point x="349" y="96"/>
      <point x="341" y="73" type="curve" smooth="yes"/>
      <point x="334" y="50"/>
      <point x="325" y="44"/>
    </contour>
    <contour>
      <point x="398" y="300" type="curve"/>
      <point x="375" y="247" type="line"/>
      <point x="360" y="247"/>
      <point x="338" y="247"/>
      <point x="319" y="247" type="curve" smooth="yes"/>
      <point x="196" y="247"/>
      <point x="122" y="325"/>
      <point x="122" y="384" type="curve" smooth="yes"/>
      <point x="122" y="453"/>
      <point x="188" y="538"/>
      <point x="366" y="538" type="curve" smooth="yes"/>
      <point x="429" y="538"/>
      <point x="477" y="533"/>
      <point x="521" y="522" type="curve" smooth="yes"/>
      <point x="544" y="516"/>
      <point x="550" y="510"/>
      <point x="550" y="498" type="curve" smooth="yes"/>
      <point x="550" y="486"/>
      <point x="546" y="474"/>
      <point x="541" y="468" type="curve" smooth="yes"/>
      <point x="537" y="463"/>
      <point x="530" y="458"/>
      <point x="522" y="458" type="curve" smooth="yes"/>
      <point x="510" y="458"/>
      <point x="416" y="476"/>
      <point x="358" y="476" type="curve" smooth="yes"/>
      <point x="241" y="476"/>
      <point x="192" y="440"/>
      <point x="192" y="388" type="curve" smooth="yes"/>
      <point x="192" y="339"/>
      <point x="245" y="298"/>
      <point x="355" y="298" type="curve" smooth="yes"/>
      <point x="367" y="298"/>
      <point x="384" y="299"/>
    </contour>
  </outline>
</glyph>
<glyph name="uniA4FE" format="2">
  <advance width="551"/>
  <unicode hex="A4FE"/>
  <outline>
    <contour>
      <point x="453" y="79" type="curve" smooth="yes"/>
      <point x="453" y="104"/>
      <point x="437" y="125"/>
      <point x="409" y="125" type="curve" smooth="yes"/>
      <point x="366" y="125"/>
      <point x="333" y="75"/>
      <point x="333" y="37" type="curve" smooth="yes"/>
      <point x="333" y="13"/>
      <point x="347" y="-7"/>
      <point x="371" y="-7" type="curve" smooth="yes"/>
      <point x="417" y="-7"/>
      <point x="453" y="39"/>
    </contour>
    <contour>
      <point x="50" y="267" type="curve" smooth="yes"/>
      <point x="47" y="258"/>
      <point x="46" y="251"/>
      <point x="46" y="246" type="curve" smooth="yes"/>
      <point x="46" y="233"/>
      <point x="52" y="227"/>
      <point x="57" y="226" type="curve" smooth="yes"/>
      <point x="64" y="224"/>
      <point x="73" y="224"/>
      <point x="76" y="224" type="curve" smooth="yes"/>
      <point x="116" y="224"/>
      <point x="160" y="225"/>
      <point x="227" y="225" type="curve" smooth="yes"/>
      <point x="261" y="225"/>
      <point x="295" y="224"/>
      <point x="331" y="224" type="curve" smooth="yes"/>
      <point x="335" y="224"/>
      <point x="354" y="224"/>
      <point x="360" y="227" type="curve" smooth="yes"/>
      <point x="374" y="233"/>
      <point x="382" y="260"/>
      <point x="382" y="274" type="curve" smooth="yes"/>
      <point x="382" y="287"/>
      <point x="378" y="296"/>
      <point x="372" y="297" type="curve" smooth="yes"/>
      <point x="368" y="298"/>
      <point x="356" y="298"/>
      <point x="350" y="298" type="curve" smooth="yes"/>
      <point x="304" y="298"/>
      <point x="257" y="295"/>
      <point x="211" y="295" type="curve" smooth="yes"/>
      <point x="168" y="295"/>
      <point x="144" y="297"/>
      <point x="89" y="297" type="curve" smooth="yes"/>
      <point x="71" y="297"/>
      <point x="59" y="294"/>
    </contour>
  </outline>
</glyph>
